STARTFONT 2.1
FONT -FontForge-Rajdhani-Book-R-Normal--10-100-72-72-P-61-ISO10646-1
SIZE 10 72 72
FONTBOUNDINGBOX 24 14 -4 -4
COMMENT "Generated by fontforge, http://fontforge.sourceforge.net"
COMMENT "Copyright (c) 2014 Indian Type Foundry (info@indiantypefoundry.com)"
STARTPROPERTIES 40
FOUNDRY "FontForge"
FAMILY_NAME "Rajdhani"
WEIGHT_NAME "Book"
SLANT "R"
SETWIDTH_NAME "Normal"
ADD_STYLE_NAME ""
PIXEL_SIZE 10
POINT_SIZE 100
RESOLUTION_X 72
RESOLUTION_Y 72
SPACING "P"
AVERAGE_WIDTH 61
CHARSET_REGISTRY "ISO10646"
CHARSET_ENCODING "1"
FONTNAME_REGISTRY ""
CHARSET_COLLECTIONS "ISO8859-2 ISO8859-9 ISO8859-4 ISO10646-1"
FONT_NAME "Rajdhani-Regular"
FACE_NAME "Rajdhani Regular"
COPYRIGHT "Copyright (c) 2014 Indian Type Foundry (info@indiantypefoundry.com)"
FONT_VERSION "1.201;PS 1.0;hotconv 1.0.78;makeotf.lib2.5.61930; ttfautohint (v1.1) -l 7 -r 28 -G 50 -x 13 -D latn -f deva -w G"
FONT_ASCENT 8
FONT_DESCENT 2
UNDERLINE_POSITION -1
UNDERLINE_THICKNESS 1
X_HEIGHT 4
CAP_HEIGHT 5
DEFAULT_CHAR 3
RAW_ASCENT 800
RAW_DESCENT 200
NORM_SPACE 3
RELATIVE_WEIGHT 40
RELATIVE_SETWIDTH 50
SUPERSCRIPT_X 0
SUPERSCRIPT_Y 3
SUPERSCRIPT_SIZE 6
SUBSCRIPT_X 0
SUBSCRIPT_Y 0
SUBSCRIPT_SIZE 6
AVG_LOWERCASE_WIDTH 44
AVG_UPPERCASE_WIDTH 52
ENDPROPERTIES
CHARS 1043
STARTCHAR NULL.dup1
ENCODING 0
SWIDTH 0 0
DWIDTH 0 0
BBX 1 1 0 0
BITMAP
00
ENDCHAR
STARTCHAR CR
ENCODING 13
SWIDTH 0 0
DWIDTH 0 0
BBX 1 1 0 0
BITMAP
00
ENDCHAR
STARTCHAR space
ENCODING 32
SWIDTH 267 0
DWIDTH 3 0
BBX 1 1 0 0
BITMAP
00
ENDCHAR
STARTCHAR exclam
ENCODING 33
SWIDTH 237 0
DWIDTH 2 0
BBX 1 6 1 0
BITMAP
80
80
80
80
00
80
ENDCHAR
STARTCHAR quotedbl
ENCODING 34
SWIDTH 330 0
DWIDTH 3 0
BBX 2 2 1 4
BITMAP
C0
C0
ENDCHAR
STARTCHAR numbersign
ENCODING 35
SWIDTH 677 0
DWIDTH 7 0
BBX 5 6 1 0
BITMAP
48
F8
50
50
F8
A0
ENDCHAR
STARTCHAR dollar
ENCODING 36
SWIDTH 504 0
DWIDTH 5 0
BBX 3 8 1 -1
BITMAP
40
A0
80
E0
20
A0
A0
40
ENDCHAR
STARTCHAR percent
ENCODING 37
SWIDTH 717 0
DWIDTH 7 0
BBX 7 6 0 0
BITMAP
E8
A8
70
14
2A
2E
ENDCHAR
STARTCHAR ampersand
ENCODING 38
SWIDTH 597 0
DWIDTH 6 0
BBX 4 6 1 0
BITMAP
E0
90
80
F0
A0
F0
ENDCHAR
STARTCHAR quotesingle
ENCODING 39
SWIDTH 186 0
DWIDTH 2 0
BBX 1 2 0 4
BITMAP
80
80
ENDCHAR
STARTCHAR parenleft
ENCODING 40
SWIDTH 283 0
DWIDTH 3 0
BBX 1 8 1 -2
BITMAP
80
80
80
80
80
80
80
80
ENDCHAR
STARTCHAR parenright
ENCODING 41
SWIDTH 283 0
DWIDTH 3 0
BBX 1 8 1 -2
BITMAP
80
80
80
80
80
80
80
80
ENDCHAR
STARTCHAR asterisk
ENCODING 42
SWIDTH 406 0
DWIDTH 4 0
BBX 2 3 1 3
BITMAP
40
80
C0
ENDCHAR
STARTCHAR plus
ENCODING 43
SWIDTH 523 0
DWIDTH 5 0
BBX 4 4 1 1
BITMAP
40
F0
40
40
ENDCHAR
STARTCHAR comma
ENCODING 44
SWIDTH 191 0
DWIDTH 2 0
BBX 1 2 0 -1
BITMAP
80
80
ENDCHAR
STARTCHAR hyphen
ENCODING 45
SWIDTH 312 0
DWIDTH 3 0
BBX 3 1 0 3
BITMAP
E0
ENDCHAR
STARTCHAR period
ENCODING 46
SWIDTH 191 0
DWIDTH 2 0
BBX 1 1 0 0
BITMAP
80
ENDCHAR
STARTCHAR slash
ENCODING 47
SWIDTH 396 0
DWIDTH 4 0
BBX 2 6 1 0
BITMAP
40
40
40
80
80
80
ENDCHAR
STARTCHAR zero
ENCODING 48
SWIDTH 514 0
DWIDTH 5 0
BBX 3 6 1 0
BITMAP
E0
A0
A0
A0
A0
E0
ENDCHAR
STARTCHAR one
ENCODING 49
SWIDTH 317 0
DWIDTH 3 0
BBX 2 6 0 0
BITMAP
40
C0
40
40
40
40
ENDCHAR
STARTCHAR two
ENCODING 50
SWIDTH 478 0
DWIDTH 5 0
BBX 3 6 1 0
BITMAP
E0
A0
20
40
80
E0
ENDCHAR
STARTCHAR three
ENCODING 51
SWIDTH 496 0
DWIDTH 5 0
BBX 3 6 1 0
BITMAP
E0
20
60
20
A0
E0
ENDCHAR
STARTCHAR four
ENCODING 52
SWIDTH 520 0
DWIDTH 5 0
BBX 5 6 0 0
BITMAP
10
30
50
50
F8
10
ENDCHAR
STARTCHAR five
ENCODING 53
SWIDTH 482 0
DWIDTH 5 0
BBX 3 6 1 0
BITMAP
E0
80
E0
20
A0
E0
ENDCHAR
STARTCHAR six
ENCODING 54
SWIDTH 497 0
DWIDTH 5 0
BBX 3 6 1 0
BITMAP
E0
80
E0
A0
A0
E0
ENDCHAR
STARTCHAR seven
ENCODING 55
SWIDTH 380 0
DWIDTH 4 0
BBX 4 6 0 0
BITMAP
F0
20
20
20
40
40
ENDCHAR
STARTCHAR eight
ENCODING 56
SWIDTH 519 0
DWIDTH 5 0
BBX 4 6 1 0
BITMAP
E0
90
E0
90
90
E0
ENDCHAR
STARTCHAR nine
ENCODING 57
SWIDTH 497 0
DWIDTH 5 0
BBX 3 6 1 0
BITMAP
E0
A0
A0
E0
20
E0
ENDCHAR
STARTCHAR colon
ENCODING 58
SWIDTH 191 0
DWIDTH 2 0
BBX 1 5 0 0
BITMAP
80
00
00
00
80
ENDCHAR
STARTCHAR semicolon
ENCODING 59
SWIDTH 191 0
DWIDTH 2 0
BBX 1 6 0 -1
BITMAP
80
00
00
80
80
80
ENDCHAR
STARTCHAR less
ENCODING 60
SWIDTH 513 0
DWIDTH 5 0
BBX 3 3 1 2
BITMAP
20
C0
60
ENDCHAR
STARTCHAR equal
ENCODING 61
SWIDTH 531 0
DWIDTH 5 0
BBX 4 3 1 2
BITMAP
F0
00
F0
ENDCHAR
STARTCHAR greater
ENCODING 62
SWIDTH 531 0
DWIDTH 5 0
BBX 4 4 1 1
BITMAP
80
70
40
80
ENDCHAR
STARTCHAR question
ENCODING 63
SWIDTH 473 0
DWIDTH 5 0
BBX 3 6 1 0
BITMAP
E0
A0
20
40
00
40
ENDCHAR
STARTCHAR at
ENCODING 64
SWIDTH 753 0
DWIDTH 8 0
BBX 6 7 1 -1
BITMAP
78
B4
D4
D4
D4
A8
70
ENDCHAR
STARTCHAR A
ENCODING 65
SWIDTH 533 0
DWIDTH 5 0
BBX 5 6 0 0
BITMAP
20
30
50
50
78
88
ENDCHAR
STARTCHAR B
ENCODING 66
SWIDTH 546 0
DWIDTH 5 0
BBX 4 6 1 0
BITMAP
F0
90
E0
90
90
F0
ENDCHAR
STARTCHAR C
ENCODING 67
SWIDTH 542 0
DWIDTH 5 0
BBX 4 6 1 0
BITMAP
F0
90
80
80
90
F0
ENDCHAR
STARTCHAR D
ENCODING 68
SWIDTH 557 0
DWIDTH 6 0
BBX 4 6 1 0
BITMAP
F0
90
90
90
90
F0
ENDCHAR
STARTCHAR E
ENCODING 69
SWIDTH 481 0
DWIDTH 5 0
BBX 3 6 1 0
BITMAP
E0
80
E0
80
80
E0
ENDCHAR
STARTCHAR F
ENCODING 70
SWIDTH 459 0
DWIDTH 5 0
BBX 3 6 1 0
BITMAP
E0
80
E0
80
80
80
ENDCHAR
STARTCHAR G
ENCODING 71
SWIDTH 539 0
DWIDTH 5 0
BBX 4 6 1 0
BITMAP
F0
80
B0
90
90
E0
ENDCHAR
STARTCHAR H
ENCODING 72
SWIDTH 570 0
DWIDTH 6 0
BBX 4 6 1 0
BITMAP
90
90
F0
90
90
90
ENDCHAR
STARTCHAR I
ENCODING 73
SWIDTH 230 0
DWIDTH 2 0
BBX 1 6 1 0
BITMAP
80
80
80
80
80
80
ENDCHAR
STARTCHAR J
ENCODING 74
SWIDTH 499 0
DWIDTH 5 0
BBX 4 6 0 0
BITMAP
10
10
10
10
90
70
ENDCHAR
STARTCHAR K
ENCODING 75
SWIDTH 530 0
DWIDTH 5 0
BBX 4 6 1 0
BITMAP
90
A0
C0
A0
A0
90
ENDCHAR
STARTCHAR L
ENCODING 76
SWIDTH 451 0
DWIDTH 5 0
BBX 3 6 1 0
BITMAP
80
80
80
80
80
E0
ENDCHAR
STARTCHAR M
ENCODING 77
SWIDTH 696 0
DWIDTH 7 0
BBX 5 6 1 0
BITMAP
88
98
D8
D8
A8
88
ENDCHAR
STARTCHAR N
ENCODING 78
SWIDTH 579 0
DWIDTH 6 0
BBX 4 6 1 0
BITMAP
90
90
D0
B0
90
90
ENDCHAR
STARTCHAR O
ENCODING 79
SWIDTH 553 0
DWIDTH 6 0
BBX 4 6 1 0
BITMAP
F0
90
90
90
90
F0
ENDCHAR
STARTCHAR P
ENCODING 80
SWIDTH 524 0
DWIDTH 5 0
BBX 4 6 1 0
BITMAP
E0
90
90
E0
80
80
ENDCHAR
STARTCHAR Q
ENCODING 81
SWIDTH 556 0
DWIDTH 6 0
BBX 4 7 1 -1
BITMAP
F0
90
90
90
90
D0
20
ENDCHAR
STARTCHAR R
ENCODING 82
SWIDTH 534 0
DWIDTH 5 0
BBX 4 6 1 0
BITMAP
E0
90
90
E0
A0
90
ENDCHAR
STARTCHAR S
ENCODING 83
SWIDTH 562 0
DWIDTH 6 0
BBX 4 6 1 0
BITMAP
F0
90
C0
30
90
F0
ENDCHAR
STARTCHAR T
ENCODING 84
SWIDTH 420 0
DWIDTH 4 0
BBX 4 6 0 0
BITMAP
F0
20
20
20
20
20
ENDCHAR
STARTCHAR U
ENCODING 85
SWIDTH 552 0
DWIDTH 6 0
BBX 4 6 1 0
BITMAP
90
90
90
90
90
F0
ENDCHAR
STARTCHAR V
ENCODING 86
SWIDTH 500 0
DWIDTH 5 0
BBX 5 6 0 0
BITMAP
88
88
50
50
50
20
ENDCHAR
STARTCHAR W
ENCODING 87
SWIDTH 794 0
DWIDTH 8 0
BBX 8 6 0 0
BITMAP
91
99
5A
66
66
24
ENDCHAR
STARTCHAR X
ENCODING 88
SWIDTH 504 0
DWIDTH 5 0
BBX 5 6 0 0
BITMAP
88
50
20
20
50
88
ENDCHAR
STARTCHAR Y
ENCODING 89
SWIDTH 493 0
DWIDTH 5 0
BBX 5 6 0 0
BITMAP
88
50
50
20
20
20
ENDCHAR
STARTCHAR Z
ENCODING 90
SWIDTH 482 0
DWIDTH 5 0
BBX 4 6 0 0
BITMAP
70
10
20
20
40
F0
ENDCHAR
STARTCHAR bracketleft
ENCODING 91
SWIDTH 287 0
DWIDTH 3 0
BBX 1 8 1 -2
BITMAP
80
80
80
80
80
80
80
80
ENDCHAR
STARTCHAR backslash
ENCODING 92
SWIDTH 396 0
DWIDTH 4 0
BBX 2 6 1 0
BITMAP
80
80
80
40
40
40
ENDCHAR
STARTCHAR bracketright
ENCODING 93
SWIDTH 287 0
DWIDTH 3 0
BBX 1 8 1 -2
BITMAP
80
80
80
80
80
80
80
80
ENDCHAR
STARTCHAR asciicircum
ENCODING 94
SWIDTH 465 0
DWIDTH 5 0
BBX 3 2 1 4
BITMAP
40
A0
ENDCHAR
STARTCHAR underscore
ENCODING 95
SWIDTH 372 0
DWIDTH 4 0
BBX 4 1 0 -1
BITMAP
F0
ENDCHAR
STARTCHAR grave
ENCODING 96
SWIDTH 269 0
DWIDTH 3 0
BBX 1 1 1 6
BITMAP
80
ENDCHAR
STARTCHAR a
ENCODING 97
SWIDTH 502 0
DWIDTH 5 0
BBX 3 5 1 0
BITMAP
E0
A0
A0
A0
E0
ENDCHAR
STARTCHAR b
ENCODING 98
SWIDTH 504 0
DWIDTH 5 0
BBX 3 7 1 0
BITMAP
80
80
E0
A0
A0
A0
E0
ENDCHAR
STARTCHAR c
ENCODING 99
SWIDTH 394 0
DWIDTH 4 0
BBX 3 5 1 0
BITMAP
E0
80
80
80
E0
ENDCHAR
STARTCHAR d
ENCODING 100
SWIDTH 504 0
DWIDTH 5 0
BBX 3 7 1 0
BITMAP
20
20
E0
A0
A0
A0
E0
ENDCHAR
STARTCHAR e
ENCODING 101
SWIDTH 492 0
DWIDTH 5 0
BBX 3 5 1 0
BITMAP
E0
A0
E0
80
E0
ENDCHAR
STARTCHAR f
ENCODING 102
SWIDTH 303 0
DWIDTH 3 0
BBX 3 7 0 0
BITMAP
60
40
E0
40
40
40
40
ENDCHAR
STARTCHAR g
ENCODING 103
SWIDTH 506 0
DWIDTH 5 0
BBX 3 6 1 -1
BITMAP
E0
A0
A0
A0
E0
E0
ENDCHAR
STARTCHAR h
ENCODING 104
SWIDTH 507 0
DWIDTH 5 0
BBX 3 7 1 0
BITMAP
80
80
E0
A0
A0
A0
A0
ENDCHAR
STARTCHAR i
ENCODING 105
SWIDTH 210 0
DWIDTH 2 0
BBX 1 7 1 0
BITMAP
80
00
80
80
80
80
80
ENDCHAR
STARTCHAR j
ENCODING 106
SWIDTH 210 0
DWIDTH 2 0
BBX 2 8 -1 -1
BITMAP
40
00
40
40
40
40
40
C0
ENDCHAR
STARTCHAR k
ENCODING 107
SWIDTH 431 0
DWIDTH 4 0
BBX 3 7 1 0
BITMAP
80
80
A0
C0
80
C0
A0
ENDCHAR
STARTCHAR l
ENCODING 108
SWIDTH 210 0
DWIDTH 2 0
BBX 1 7 1 0
BITMAP
80
80
80
80
80
80
80
ENDCHAR
STARTCHAR m
ENCODING 109
SWIDTH 769 0
DWIDTH 8 0
BBX 6 5 1 0
BITMAP
FC
A4
A4
A4
A4
ENDCHAR
STARTCHAR n
ENCODING 110
SWIDTH 507 0
DWIDTH 5 0
BBX 3 5 1 0
BITMAP
E0
A0
A0
A0
A0
ENDCHAR
STARTCHAR o
ENCODING 111
SWIDTH 496 0
DWIDTH 5 0
BBX 3 5 1 0
BITMAP
E0
A0
A0
A0
E0
ENDCHAR
STARTCHAR p
ENCODING 112
SWIDTH 504 0
DWIDTH 5 0
BBX 3 6 1 -1
BITMAP
E0
A0
A0
A0
E0
80
ENDCHAR
STARTCHAR q
ENCODING 113
SWIDTH 502 0
DWIDTH 5 0
BBX 3 6 1 -1
BITMAP
E0
A0
A0
A0
E0
20
ENDCHAR
STARTCHAR r
ENCODING 114
SWIDTH 313 0
DWIDTH 3 0
BBX 2 5 1 0
BITMAP
C0
80
80
80
80
ENDCHAR
STARTCHAR s
ENCODING 115
SWIDTH 431 0
DWIDTH 4 0
BBX 4 5 0 0
BITMAP
70
80
60
10
70
ENDCHAR
STARTCHAR t
ENCODING 116
SWIDTH 347 0
DWIDTH 3 0
BBX 3 6 0 0
BITMAP
40
E0
40
40
40
60
ENDCHAR
STARTCHAR u
ENCODING 117
SWIDTH 507 0
DWIDTH 5 0
BBX 3 5 1 0
BITMAP
A0
A0
A0
A0
E0
ENDCHAR
STARTCHAR v
ENCODING 118
SWIDTH 416 0
DWIDTH 4 0
BBX 4 5 0 0
BITMAP
90
90
60
60
20
ENDCHAR
STARTCHAR w
ENCODING 119
SWIDTH 683 0
DWIDTH 7 0
BBX 7 5 0 0
BITMAP
92
B4
6C
6C
48
ENDCHAR
STARTCHAR x
ENCODING 120
SWIDTH 413 0
DWIDTH 4 0
BBX 4 5 0 0
BITMAP
90
60
20
60
90
ENDCHAR
STARTCHAR y
ENCODING 121
SWIDTH 459 0
DWIDTH 5 0
BBX 4 6 0 -1
BITMAP
90
50
50
20
20
40
ENDCHAR
STARTCHAR z
ENCODING 122
SWIDTH 405 0
DWIDTH 4 0
BBX 4 5 0 0
BITMAP
F0
20
20
40
F0
ENDCHAR
STARTCHAR braceleft
ENCODING 123
SWIDTH 298 0
DWIDTH 3 0
BBX 2 8 0 -2
BITMAP
40
40
40
80
40
40
40
40
ENDCHAR
STARTCHAR bar
ENCODING 124
SWIDTH 207 0
DWIDTH 2 0
BBX 1 6 1 0
BITMAP
80
80
80
80
80
80
ENDCHAR
STARTCHAR braceright
ENCODING 125
SWIDTH 298 0
DWIDTH 3 0
BBX 2 8 0 -2
BITMAP
C0
40
40
40
40
40
40
80
ENDCHAR
STARTCHAR asciitilde
ENCODING 126
SWIDTH 523 0
DWIDTH 5 0
BBX 4 1 1 3
BITMAP
F0
ENDCHAR
STARTCHAR uni00A0
ENCODING 160
SWIDTH 267 0
DWIDTH 3 0
BBX 1 1 0 0
BITMAP
00
ENDCHAR
STARTCHAR exclamdown
ENCODING 161
SWIDTH 237 0
DWIDTH 2 0
BBX 1 6 1 0
BITMAP
80
00
80
80
80
80
ENDCHAR
STARTCHAR cent
ENCODING 162
SWIDTH 414 0
DWIDTH 4 0
BBX 3 7 1 -1
BITMAP
40
A0
80
80
80
A0
40
ENDCHAR
STARTCHAR sterling
ENCODING 163
SWIDTH 528 0
DWIDTH 5 0
BBX 5 6 0 0
BITMAP
70
48
40
E0
40
F8
ENDCHAR
STARTCHAR yen
ENCODING 165
SWIDTH 499 0
DWIDTH 5 0
BBX 5 6 0 0
BITMAP
88
50
D8
20
F8
20
ENDCHAR
STARTCHAR brokenbar
ENCODING 166
SWIDTH 201 0
DWIDTH 2 0
BBX 1 6 1 0
BITMAP
80
80
80
80
80
80
ENDCHAR
STARTCHAR section
ENCODING 167
SWIDTH 454 0
DWIDTH 5 0
BBX 3 6 1 0
BITMAP
E0
80
E0
E0
20
E0
ENDCHAR
STARTCHAR dieresis
ENCODING 168
SWIDTH 345 0
DWIDTH 3 0
BBX 2 1 1 6
BITMAP
C0
ENDCHAR
STARTCHAR copyright
ENCODING 169
SWIDTH 723 0
DWIDTH 7 0
BBX 6 6 1 0
BITMAP
F8
F4
C4
D4
A4
F8
ENDCHAR
STARTCHAR guillemotleft
ENCODING 171
SWIDTH 431 0
DWIDTH 4 0
BBX 3 3 1 1
BITMAP
A0
C0
A0
ENDCHAR
STARTCHAR registered
ENCODING 174
SWIDTH 439 0
DWIDTH 4 0
BBX 3 4 1 3
BITMAP
E0
E0
A0
C0
ENDCHAR
STARTCHAR macron
ENCODING 175
SWIDTH 358 0
DWIDTH 4 0
BBX 2 1 1 5
BITMAP
C0
ENDCHAR
STARTCHAR degree
ENCODING 176
SWIDTH 298 0
DWIDTH 3 0
BBX 1 2 1 5
BITMAP
80
80
ENDCHAR
STARTCHAR plusminus
ENCODING 177
SWIDTH 523 0
DWIDTH 5 0
BBX 4 4 1 1
BITMAP
40
F0
40
F0
ENDCHAR
STARTCHAR acute
ENCODING 180
SWIDTH 269 0
DWIDTH 3 0
BBX 1 1 1 6
BITMAP
80
ENDCHAR
STARTCHAR paragraph
ENCODING 182
SWIDTH 513 0
DWIDTH 5 0
BBX 4 6 0 0
BITMAP
70
D0
50
50
50
50
ENDCHAR
STARTCHAR periodcentered
ENCODING 183
SWIDTH 207 0
DWIDTH 2 0
BBX 1 1 1 3
BITMAP
80
ENDCHAR
STARTCHAR cedilla
ENCODING 184
SWIDTH 257 0
DWIDTH 3 0
BBX 1 2 1 -2
BITMAP
80
80
ENDCHAR
STARTCHAR guillemotright
ENCODING 187
SWIDTH 431 0
DWIDTH 4 0
BBX 3 3 1 1
BITMAP
C0
60
C0
ENDCHAR
STARTCHAR questiondown
ENCODING 191
SWIDTH 473 0
DWIDTH 5 0
BBX 3 6 1 0
BITMAP
40
00
40
80
A0
E0
ENDCHAR
STARTCHAR Agrave
ENCODING 192
SWIDTH 532 0
DWIDTH 5 0
BBX 5 8 0 0
BITMAP
60
00
20
30
50
50
78
88
ENDCHAR
STARTCHAR Aacute
ENCODING 193
SWIDTH 532 0
DWIDTH 5 0
BBX 5 8 0 0
BITMAP
10
00
20
30
50
50
78
88
ENDCHAR
STARTCHAR Acircumflex
ENCODING 194
SWIDTH 532 0
DWIDTH 5 0
BBX 5 8 0 0
BITMAP
30
00
20
30
50
50
78
88
ENDCHAR
STARTCHAR Atilde
ENCODING 195
SWIDTH 532 0
DWIDTH 5 0
BBX 5 9 0 0
BITMAP
50
30
00
20
30
50
50
78
88
ENDCHAR
STARTCHAR Adieresis
ENCODING 196
SWIDTH 532 0
DWIDTH 5 0
BBX 5 8 0 0
BITMAP
50
00
20
30
50
50
78
88
ENDCHAR
STARTCHAR Aring
ENCODING 197
SWIDTH 532 0
DWIDTH 5 0
BBX 5 9 0 0
BITMAP
20
50
20
20
30
50
50
78
88
ENDCHAR
STARTCHAR AE
ENCODING 198
SWIDTH 773 0
DWIDTH 8 0
BBX 7 6 0 0
BITMAP
1E
28
2E
48
70
8E
ENDCHAR
STARTCHAR Ccedilla
ENCODING 199
SWIDTH 542 0
DWIDTH 5 0
BBX 4 8 1 -2
BITMAP
F0
90
80
80
90
B0
40
60
ENDCHAR
STARTCHAR Egrave
ENCODING 200
SWIDTH 481 0
DWIDTH 5 0
BBX 3 8 1 0
BITMAP
C0
00
E0
80
E0
80
80
E0
ENDCHAR
STARTCHAR Eacute
ENCODING 201
SWIDTH 481 0
DWIDTH 5 0
BBX 3 8 1 0
BITMAP
60
00
E0
80
E0
80
80
E0
ENDCHAR
STARTCHAR Ecircumflex
ENCODING 202
SWIDTH 481 0
DWIDTH 5 0
BBX 3 8 1 0
BITMAP
40
00
E0
80
E0
80
80
E0
ENDCHAR
STARTCHAR Edieresis
ENCODING 203
SWIDTH 481 0
DWIDTH 5 0
BBX 3 8 1 0
BITMAP
A0
00
E0
80
E0
80
80
E0
ENDCHAR
STARTCHAR Igrave
ENCODING 204
SWIDTH 230 0
DWIDTH 2 0
BBX 1 8 0 0
BITMAP
80
00
80
80
80
80
80
80
ENDCHAR
STARTCHAR Iacute
ENCODING 205
SWIDTH 231 0
DWIDTH 2 0
BBX 1 8 1 0
BITMAP
80
00
80
80
80
80
80
80
ENDCHAR
STARTCHAR Icircumflex
ENCODING 206
SWIDTH 229 0
DWIDTH 2 0
BBX 2 8 0 0
BITMAP
C0
00
40
40
40
40
40
40
ENDCHAR
STARTCHAR Idieresis
ENCODING 207
SWIDTH 230 0
DWIDTH 2 0
BBX 2 8 0 0
BITMAP
C0
00
40
40
40
40
40
40
ENDCHAR
STARTCHAR Eth
ENCODING 208
SWIDTH 514 0
DWIDTH 5 0
BBX 5 6 0 0
BITMAP
78
48
E8
48
48
78
ENDCHAR
STARTCHAR Ntilde
ENCODING 209
SWIDTH 579 0
DWIDTH 6 0
BBX 4 9 1 0
BITMAP
A0
60
00
90
90
D0
B0
90
90
ENDCHAR
STARTCHAR Ograve
ENCODING 210
SWIDTH 553 0
DWIDTH 6 0
BBX 4 8 1 0
BITMAP
40
00
F0
90
90
90
90
F0
ENDCHAR
STARTCHAR Oacute
ENCODING 211
SWIDTH 553 0
DWIDTH 6 0
BBX 4 8 1 0
BITMAP
20
00
F0
90
90
90
90
F0
ENDCHAR
STARTCHAR Ocircumflex
ENCODING 212
SWIDTH 553 0
DWIDTH 6 0
BBX 4 8 1 0
BITMAP
60
00
F0
90
90
90
90
F0
ENDCHAR
STARTCHAR Otilde
ENCODING 213
SWIDTH 553 0
DWIDTH 6 0
BBX 4 9 1 0
BITMAP
A0
60
00
F0
90
90
90
90
F0
ENDCHAR
STARTCHAR Odieresis
ENCODING 214
SWIDTH 553 0
DWIDTH 6 0
BBX 4 8 1 0
BITMAP
A0
00
F0
90
90
90
90
F0
ENDCHAR
STARTCHAR multiply
ENCODING 215
SWIDTH 493 0
DWIDTH 5 0
BBX 3 3 1 2
BITMAP
A0
40
A0
ENDCHAR
STARTCHAR Oslash
ENCODING 216
SWIDTH 559 0
DWIDTH 6 0
BBX 5 6 0 0
BITMAP
78
48
58
68
48
F8
ENDCHAR
STARTCHAR Ugrave
ENCODING 217
SWIDTH 552 0
DWIDTH 6 0
BBX 4 8 1 0
BITMAP
40
00
90
90
90
90
90
F0
ENDCHAR
STARTCHAR Uacute
ENCODING 218
SWIDTH 552 0
DWIDTH 6 0
BBX 4 8 1 0
BITMAP
20
00
90
90
90
90
90
F0
ENDCHAR
STARTCHAR Ucircumflex
ENCODING 219
SWIDTH 552 0
DWIDTH 6 0
BBX 4 8 1 0
BITMAP
60
00
90
90
90
90
90
F0
ENDCHAR
STARTCHAR Udieresis
ENCODING 220
SWIDTH 552 0
DWIDTH 6 0
BBX 4 8 1 0
BITMAP
A0
00
90
90
90
90
90
F0
ENDCHAR
STARTCHAR Yacute
ENCODING 221
SWIDTH 493 0
DWIDTH 5 0
BBX 5 8 0 0
BITMAP
30
00
88
50
50
20
20
20
ENDCHAR
STARTCHAR Thorn
ENCODING 222
SWIDTH 501 0
DWIDTH 5 0
BBX 3 6 1 0
BITMAP
80
E0
A0
A0
E0
80
ENDCHAR
STARTCHAR germandbls
ENCODING 223
SWIDTH 540 0
DWIDTH 5 0
BBX 4 6 1 0
BITMAP
E0
90
E0
90
90
F0
ENDCHAR
STARTCHAR agrave
ENCODING 224
SWIDTH 502 0
DWIDTH 5 0
BBX 3 7 1 0
BITMAP
40
00
E0
A0
A0
A0
E0
ENDCHAR
STARTCHAR aacute
ENCODING 225
SWIDTH 502 0
DWIDTH 5 0
BBX 3 7 1 0
BITMAP
20
40
E0
A0
A0
A0
E0
ENDCHAR
STARTCHAR acircumflex
ENCODING 226
SWIDTH 502 0
DWIDTH 5 0
BBX 3 7 1 0
BITMAP
40
20
E0
A0
A0
A0
E0
ENDCHAR
STARTCHAR atilde
ENCODING 227
SWIDTH 504 0
DWIDTH 5 0
BBX 3 7 1 0
BITMAP
A0
60
A0
A0
A0
A0
E0
ENDCHAR
STARTCHAR adieresis
ENCODING 228
SWIDTH 502 0
DWIDTH 5 0
BBX 3 7 1 0
BITMAP
A0
00
E0
A0
A0
A0
E0
ENDCHAR
STARTCHAR aring
ENCODING 229
SWIDTH 502 0
DWIDTH 5 0
BBX 3 8 1 0
BITMAP
40
A0
40
A0
A0
A0
A0
E0
ENDCHAR
STARTCHAR ae
ENCODING 230
SWIDTH 795 0
DWIDTH 8 0
BBX 6 5 1 0
BITMAP
FC
24
DC
A0
FC
ENDCHAR
STARTCHAR ccedilla
ENCODING 231
SWIDTH 394 0
DWIDTH 4 0
BBX 3 7 1 -2
BITMAP
E0
80
80
80
A0
40
40
ENDCHAR
STARTCHAR egrave
ENCODING 232
SWIDTH 492 0
DWIDTH 5 0
BBX 3 7 1 0
BITMAP
C0
00
E0
A0
E0
80
E0
ENDCHAR
STARTCHAR eacute
ENCODING 233
SWIDTH 492 0
DWIDTH 5 0
BBX 3 7 1 0
BITMAP
60
00
E0
A0
E0
80
E0
ENDCHAR
STARTCHAR ecircumflex
ENCODING 234
SWIDTH 492 0
DWIDTH 5 0
BBX 3 7 1 0
BITMAP
40
00
E0
A0
E0
80
E0
ENDCHAR
STARTCHAR edieresis
ENCODING 235
SWIDTH 492 0
DWIDTH 5 0
BBX 3 7 1 0
BITMAP
A0
00
E0
A0
E0
80
E0
ENDCHAR
STARTCHAR igrave
ENCODING 236
SWIDTH 210 0
DWIDTH 2 0
BBX 1 7 0 0
BITMAP
80
00
80
80
80
80
80
ENDCHAR
STARTCHAR iacute
ENCODING 237
SWIDTH 208 0
DWIDTH 2 0
BBX 1 7 1 0
BITMAP
80
00
80
80
80
80
80
ENDCHAR
STARTCHAR icircumflex
ENCODING 238
SWIDTH 210 0
DWIDTH 2 0
BBX 2 7 0 0
BITMAP
C0
00
40
40
40
40
40
ENDCHAR
STARTCHAR idieresis
ENCODING 239
SWIDTH 210 0
DWIDTH 2 0
BBX 2 7 0 0
BITMAP
C0
00
40
40
40
40
40
ENDCHAR
STARTCHAR eth
ENCODING 240
SWIDTH 488 0
DWIDTH 5 0
BBX 3 7 1 0
BITMAP
A0
40
A0
E0
A0
A0
E0
ENDCHAR
STARTCHAR ntilde
ENCODING 241
SWIDTH 507 0
DWIDTH 5 0
BBX 3 7 1 0
BITMAP
A0
60
A0
A0
A0
A0
A0
ENDCHAR
STARTCHAR ograve
ENCODING 242
SWIDTH 496 0
DWIDTH 5 0
BBX 3 7 1 0
BITMAP
80
40
E0
A0
A0
A0
E0
ENDCHAR
STARTCHAR oacute
ENCODING 243
SWIDTH 496 0
DWIDTH 5 0
BBX 3 7 1 0
BITMAP
20
40
E0
A0
A0
A0
E0
ENDCHAR
STARTCHAR ocircumflex
ENCODING 244
SWIDTH 496 0
DWIDTH 5 0
BBX 3 7 1 0
BITMAP
40
00
E0
A0
A0
A0
E0
ENDCHAR
STARTCHAR otilde
ENCODING 245
SWIDTH 496 0
DWIDTH 5 0
BBX 3 7 1 0
BITMAP
C0
A0
E0
A0
A0
A0
E0
ENDCHAR
STARTCHAR odieresis
ENCODING 246
SWIDTH 496 0
DWIDTH 5 0
BBX 3 7 1 0
BITMAP
A0
00
E0
A0
A0
A0
E0
ENDCHAR
STARTCHAR divide
ENCODING 247
SWIDTH 510 0
DWIDTH 5 0
BBX 3 4 1 1
BITMAP
40
E0
00
40
ENDCHAR
STARTCHAR oslash
ENCODING 248
SWIDTH 521 0
DWIDTH 5 0
BBX 5 5 0 0
BITMAP
78
50
68
48
F0
ENDCHAR
STARTCHAR ugrave
ENCODING 249
SWIDTH 507 0
DWIDTH 5 0
BBX 3 7 1 0
BITMAP
80
40
A0
A0
A0
A0
E0
ENDCHAR
STARTCHAR uacute
ENCODING 250
SWIDTH 507 0
DWIDTH 5 0
BBX 3 7 1 0
BITMAP
20
40
A0
A0
A0
A0
E0
ENDCHAR
STARTCHAR ucircumflex
ENCODING 251
SWIDTH 507 0
DWIDTH 5 0
BBX 3 7 1 0
BITMAP
40
00
A0
A0
A0
A0
E0
ENDCHAR
STARTCHAR udieresis
ENCODING 252
SWIDTH 507 0
DWIDTH 5 0
BBX 3 7 1 0
BITMAP
A0
00
A0
A0
A0
A0
E0
ENDCHAR
STARTCHAR yacute
ENCODING 253
SWIDTH 459 0
DWIDTH 5 0
BBX 4 8 0 -1
BITMAP
20
00
90
50
50
20
20
40
ENDCHAR
STARTCHAR thorn
ENCODING 254
SWIDTH 508 0
DWIDTH 5 0
BBX 3 8 1 -1
BITMAP
80
80
E0
A0
A0
A0
E0
80
ENDCHAR
STARTCHAR ydieresis
ENCODING 255
SWIDTH 459 0
DWIDTH 5 0
BBX 4 8 0 -1
BITMAP
50
00
90
50
50
20
20
40
ENDCHAR
STARTCHAR Amacron
ENCODING 256
SWIDTH 532 0
DWIDTH 5 0
BBX 5 8 0 0
BITMAP
30
00
20
30
50
50
78
88
ENDCHAR
STARTCHAR amacron
ENCODING 257
SWIDTH 502 0
DWIDTH 5 0
BBX 3 6 1 0
BITMAP
60
E0
A0
A0
A0
E0
ENDCHAR
STARTCHAR Abreve
ENCODING 258
SWIDTH 532 0
DWIDTH 5 0
BBX 5 9 0 0
BITMAP
50
20
00
20
30
50
50
78
88
ENDCHAR
STARTCHAR abreve
ENCODING 259
SWIDTH 502 0
DWIDTH 5 0
BBX 3 7 1 0
BITMAP
A0
40
A0
A0
A0
A0
E0
ENDCHAR
STARTCHAR Aogonek
ENCODING 260
SWIDTH 532 0
DWIDTH 5 0
BBX 5 7 0 -1
BITMAP
20
30
50
50
78
88
08
ENDCHAR
STARTCHAR aogonek
ENCODING 261
SWIDTH 502 0
DWIDTH 5 0
BBX 3 6 1 -1
BITMAP
E0
A0
A0
A0
E0
20
ENDCHAR
STARTCHAR Cacute
ENCODING 262
SWIDTH 542 0
DWIDTH 5 0
BBX 4 8 1 0
BITMAP
20
00
F0
90
80
80
90
F0
ENDCHAR
STARTCHAR cacute
ENCODING 263
SWIDTH 394 0
DWIDTH 4 0
BBX 3 7 1 0
BITMAP
40
00
E0
80
80
80
E0
ENDCHAR
STARTCHAR Cdotaccent
ENCODING 266
SWIDTH 542 0
DWIDTH 5 0
BBX 4 8 1 0
BITMAP
40
00
F0
90
80
80
90
F0
ENDCHAR
STARTCHAR cdotaccent
ENCODING 267
SWIDTH 394 0
DWIDTH 4 0
BBX 3 7 1 0
BITMAP
40
00
E0
80
80
80
E0
ENDCHAR
STARTCHAR Ccaron
ENCODING 268
SWIDTH 542 0
DWIDTH 5 0
BBX 4 8 1 0
BITMAP
60
00
F0
90
80
80
90
F0
ENDCHAR
STARTCHAR ccaron
ENCODING 269
SWIDTH 394 0
DWIDTH 4 0
BBX 3 7 1 0
BITMAP
C0
00
E0
80
80
80
E0
ENDCHAR
STARTCHAR Dcaron
ENCODING 270
SWIDTH 557 0
DWIDTH 6 0
BBX 4 8 1 0
BITMAP
60
00
F0
90
90
90
90
F0
ENDCHAR
STARTCHAR dcaron
ENCODING 271
SWIDTH 534 0
DWIDTH 5 0
BBX 4 7 1 0
BITMAP
10
10
E0
90
90
90
E0
ENDCHAR
STARTCHAR Dcroat
ENCODING 272
SWIDTH 514 0
DWIDTH 5 0
BBX 5 6 0 0
BITMAP
78
48
E8
48
48
78
ENDCHAR
STARTCHAR dcroat
ENCODING 273
SWIDTH 539 0
DWIDTH 5 0
BBX 4 7 1 0
BITMAP
10
70
F0
90
90
90
E0
ENDCHAR
STARTCHAR Emacron
ENCODING 274
SWIDTH 481 0
DWIDTH 5 0
BBX 3 8 1 0
BITMAP
E0
00
E0
80
E0
80
80
E0
ENDCHAR
STARTCHAR emacron
ENCODING 275
SWIDTH 492 0
DWIDTH 5 0
BBX 3 6 1 0
BITMAP
E0
E0
A0
E0
80
E0
ENDCHAR
STARTCHAR Ebreve
ENCODING 276
SWIDTH 481 0
DWIDTH 5 0
BBX 3 9 1 0
BITMAP
A0
40
00
E0
80
E0
80
80
E0
ENDCHAR
STARTCHAR ebreve
ENCODING 277
SWIDTH 492 0
DWIDTH 5 0
BBX 3 7 1 0
BITMAP
A0
40
A0
A0
E0
80
E0
ENDCHAR
STARTCHAR Edotaccent
ENCODING 278
SWIDTH 496 0
DWIDTH 5 0
BBX 3 8 1 0
BITMAP
40
00
E0
80
E0
80
80
E0
ENDCHAR
STARTCHAR edotaccent
ENCODING 279
SWIDTH 492 0
DWIDTH 5 0
BBX 3 7 1 0
BITMAP
40
00
E0
A0
E0
80
E0
ENDCHAR
STARTCHAR Eogonek
ENCODING 280
SWIDTH 481 0
DWIDTH 5 0
BBX 3 7 1 -1
BITMAP
E0
80
E0
80
80
C0
20
ENDCHAR
STARTCHAR eogonek
ENCODING 281
SWIDTH 492 0
DWIDTH 5 0
BBX 3 6 1 -1
BITMAP
E0
A0
E0
80
C0
20
ENDCHAR
STARTCHAR Ecaron
ENCODING 282
SWIDTH 481 0
DWIDTH 5 0
BBX 3 8 1 0
BITMAP
40
00
E0
80
E0
80
80
E0
ENDCHAR
STARTCHAR ecaron
ENCODING 283
SWIDTH 492 0
DWIDTH 5 0
BBX 3 7 1 0
BITMAP
C0
00
E0
A0
E0
80
E0
ENDCHAR
STARTCHAR Gcircumflex
ENCODING 284
SWIDTH 539 0
DWIDTH 5 0
BBX 4 8 1 0
BITMAP
60
00
F0
80
B0
90
90
E0
ENDCHAR
STARTCHAR gcircumflex
ENCODING 285
SWIDTH 506 0
DWIDTH 5 0
BBX 3 8 1 -1
BITMAP
40
20
E0
A0
A0
A0
E0
E0
ENDCHAR
STARTCHAR Gbreve
ENCODING 286
SWIDTH 539 0
DWIDTH 5 0
BBX 4 9 1 0
BITMAP
A0
40
00
F0
80
B0
90
90
E0
ENDCHAR
STARTCHAR gbreve
ENCODING 287
SWIDTH 506 0
DWIDTH 5 0
BBX 3 8 1 -1
BITMAP
60
00
E0
A0
A0
A0
E0
E0
ENDCHAR
STARTCHAR Gdotaccent
ENCODING 288
SWIDTH 539 0
DWIDTH 5 0
BBX 4 8 1 0
BITMAP
40
00
F0
80
B0
90
90
E0
ENDCHAR
STARTCHAR gdotaccent
ENCODING 289
SWIDTH 506 0
DWIDTH 5 0
BBX 3 8 1 -1
BITMAP
40
00
E0
A0
A0
A0
E0
E0
ENDCHAR
STARTCHAR uni0122
ENCODING 290
SWIDTH 539 0
DWIDTH 5 0
BBX 4 8 1 -2
BITMAP
F0
80
B0
90
90
A0
40
40
ENDCHAR
STARTCHAR uni0123
ENCODING 291
SWIDTH 506 0
DWIDTH 5 0
BBX 3 9 1 -1
BITMAP
40
40
00
E0
A0
A0
A0
E0
E0
ENDCHAR
STARTCHAR hcircumflex
ENCODING 293
SWIDTH 507 0
DWIDTH 5 0
BBX 3 8 1 0
BITMAP
40
A0
80
E0
A0
A0
A0
A0
ENDCHAR
STARTCHAR Hbar
ENCODING 294
SWIDTH 523 0
DWIDTH 5 0
BBX 6 6 0 0
BITMAP
48
FC
78
48
48
48
ENDCHAR
STARTCHAR hbar
ENCODING 295
SWIDTH 544 0
DWIDTH 5 0
BBX 5 7 0 0
BITMAP
40
E0
70
48
48
48
48
ENDCHAR
STARTCHAR Itilde
ENCODING 296
SWIDTH 230 0
DWIDTH 2 0
BBX 2 9 0 0
BITMAP
C0
C0
00
40
40
40
40
40
40
ENDCHAR
STARTCHAR itilde
ENCODING 297
SWIDTH 210 0
DWIDTH 2 0
BBX 2 7 0 0
BITMAP
C0
C0
40
40
40
40
40
ENDCHAR
STARTCHAR Imacron
ENCODING 298
SWIDTH 230 0
DWIDTH 2 0
BBX 2 8 0 0
BITMAP
C0
00
40
40
40
40
40
40
ENDCHAR
STARTCHAR imacron
ENCODING 299
SWIDTH 208 0
DWIDTH 2 0
BBX 2 6 0 0
BITMAP
C0
40
40
40
40
40
ENDCHAR
STARTCHAR Ibreve
ENCODING 300
SWIDTH 231 0
DWIDTH 2 0
BBX 2 9 0 0
BITMAP
C0
40
00
40
40
40
40
40
40
ENDCHAR
STARTCHAR ibreve
ENCODING 301
SWIDTH 211 0
DWIDTH 2 0
BBX 2 7 0 0
BITMAP
C0
C0
40
40
40
40
40
ENDCHAR
STARTCHAR Iogonek
ENCODING 302
SWIDTH 230 0
DWIDTH 2 0
BBX 1 7 0 -1
BITMAP
80
80
80
80
80
80
80
ENDCHAR
STARTCHAR iogonek
ENCODING 303
SWIDTH 210 0
DWIDTH 2 0
BBX 1 8 0 -1
BITMAP
80
00
80
80
80
80
80
80
ENDCHAR
STARTCHAR Idotaccent
ENCODING 304
SWIDTH 230 0
DWIDTH 2 0
BBX 1 8 1 0
BITMAP
80
00
80
80
80
80
80
80
ENDCHAR
STARTCHAR dotlessi
ENCODING 305
SWIDTH 212 0
DWIDTH 2 0
BBX 1 5 1 0
BITMAP
80
80
80
80
80
ENDCHAR
STARTCHAR IJ
ENCODING 306
SWIDTH 721 0
DWIDTH 7 0
BBX 5 6 1 0
BITMAP
88
88
88
88
C8
B8
ENDCHAR
STARTCHAR ij
ENCODING 307
SWIDTH 419 0
DWIDTH 4 0
BBX 2 8 1 -1
BITMAP
C0
00
C0
C0
C0
C0
C0
40
ENDCHAR
STARTCHAR Jcircumflex
ENCODING 308
SWIDTH 494 0
DWIDTH 5 0
BBX 5 8 0 0
BITMAP
18
00
10
10
10
10
90
70
ENDCHAR
STARTCHAR jcircumflex
ENCODING 309
SWIDTH 209 0
DWIDTH 2 0
BBX 3 8 -1 -1
BITMAP
60
00
20
20
20
20
20
C0
ENDCHAR
STARTCHAR uni0136
ENCODING 310
SWIDTH 530 0
DWIDTH 5 0
BBX 4 9 1 -3
BITMAP
90
A0
C0
A0
A0
90
40
40
40
ENDCHAR
STARTCHAR uni0137
ENCODING 311
SWIDTH 431 0
DWIDTH 4 0
BBX 3 9 1 -2
BITMAP
80
80
A0
C0
80
C0
A0
40
40
ENDCHAR
STARTCHAR Lacute
ENCODING 313
SWIDTH 451 0
DWIDTH 5 0
BBX 3 8 1 0
BITMAP
80
00
80
80
80
80
80
E0
ENDCHAR
STARTCHAR lacute
ENCODING 314
SWIDTH 207 0
DWIDTH 2 0
BBX 1 9 1 0
BITMAP
80
80
80
80
80
80
80
80
80
ENDCHAR
STARTCHAR uni013B
ENCODING 315
SWIDTH 451 0
DWIDTH 5 0
BBX 3 8 1 -2
BITMAP
80
80
80
80
80
A0
40
40
ENDCHAR
STARTCHAR uni013C
ENCODING 316
SWIDTH 211 0
DWIDTH 2 0
BBX 1 9 1 -2
BITMAP
80
80
80
80
80
80
80
80
80
ENDCHAR
STARTCHAR Lcaron
ENCODING 317
SWIDTH 451 0
DWIDTH 5 0
BBX 3 6 1 0
BITMAP
A0
A0
80
80
80
E0
ENDCHAR
STARTCHAR lcaron
ENCODING 318
SWIDTH 274 0
DWIDTH 3 0
BBX 2 7 1 0
BITMAP
C0
80
80
80
80
80
80
ENDCHAR
STARTCHAR Ldot
ENCODING 319
SWIDTH 500 0
DWIDTH 5 0
BBX 3 6 1 0
BITMAP
80
80
A0
80
80
E0
ENDCHAR
STARTCHAR ldot
ENCODING 320
SWIDTH 314 0
DWIDTH 3 0
BBX 2 7 1 0
BITMAP
80
80
80
C0
80
80
80
ENDCHAR
STARTCHAR Lslash
ENCODING 321
SWIDTH 504 0
DWIDTH 5 0
BBX 4 6 0 0
BITMAP
40
60
80
40
40
70
ENDCHAR
STARTCHAR lslash
ENCODING 322
SWIDTH 296 0
DWIDTH 3 0
BBX 3 7 0 0
BITMAP
40
40
60
C0
40
40
40
ENDCHAR
STARTCHAR Nacute
ENCODING 323
SWIDTH 579 0
DWIDTH 6 0
BBX 4 8 1 0
BITMAP
20
00
90
90
D0
B0
90
90
ENDCHAR
STARTCHAR nacute
ENCODING 324
SWIDTH 507 0
DWIDTH 5 0
BBX 3 7 1 0
BITMAP
20
40
E0
A0
A0
A0
A0
ENDCHAR
STARTCHAR uni0145
ENCODING 325
SWIDTH 579 0
DWIDTH 6 0
BBX 4 8 1 -2
BITMAP
90
90
D0
B0
90
90
40
40
ENDCHAR
STARTCHAR uni0146
ENCODING 326
SWIDTH 505 0
DWIDTH 5 0
BBX 3 7 1 -2
BITMAP
E0
A0
A0
A0
A0
40
40
ENDCHAR
STARTCHAR Ncaron
ENCODING 327
SWIDTH 579 0
DWIDTH 6 0
BBX 4 8 1 0
BITMAP
60
00
90
90
D0
B0
90
90
ENDCHAR
STARTCHAR ncaron
ENCODING 328
SWIDTH 507 0
DWIDTH 5 0
BBX 3 7 1 0
BITMAP
60
00
E0
A0
A0
A0
A0
ENDCHAR
STARTCHAR Eng
ENCODING 330
SWIDTH 519 0
DWIDTH 5 0
BBX 4 7 1 -1
BITMAP
90
90
D0
B0
90
90
30
ENDCHAR
STARTCHAR eng
ENCODING 331
SWIDTH 507 0
DWIDTH 5 0
BBX 3 6 1 -1
BITMAP
E0
A0
A0
A0
A0
20
ENDCHAR
STARTCHAR Omacron
ENCODING 332
SWIDTH 553 0
DWIDTH 6 0
BBX 4 8 1 0
BITMAP
60
00
F0
90
90
90
90
F0
ENDCHAR
STARTCHAR omacron
ENCODING 333
SWIDTH 496 0
DWIDTH 5 0
BBX 3 6 1 0
BITMAP
E0
E0
A0
A0
A0
E0
ENDCHAR
STARTCHAR Obreve
ENCODING 334
SWIDTH 553 0
DWIDTH 6 0
BBX 4 9 1 0
BITMAP
A0
40
00
F0
90
90
90
90
F0
ENDCHAR
STARTCHAR obreve
ENCODING 335
SWIDTH 496 0
DWIDTH 5 0
BBX 3 7 1 0
BITMAP
A0
40
A0
A0
A0
A0
E0
ENDCHAR
STARTCHAR Ohungarumlaut
ENCODING 336
SWIDTH 553 0
DWIDTH 6 0
BBX 4 8 1 0
BITMAP
60
00
F0
90
90
90
90
F0
ENDCHAR
STARTCHAR ohungarumlaut
ENCODING 337
SWIDTH 496 0
DWIDTH 5 0
BBX 3 7 1 0
BITMAP
60
00
E0
A0
A0
A0
E0
ENDCHAR
STARTCHAR OE
ENCODING 338
SWIDTH 775 0
DWIDTH 8 0
BBX 6 6 1 0
BITMAP
FC
A0
9C
A0
A0
FC
ENDCHAR
STARTCHAR oe
ENCODING 339
SWIDTH 812 0
DWIDTH 8 0
BBX 6 5 1 0
BITMAP
FC
94
9C
90
FC
ENDCHAR
STARTCHAR Racute
ENCODING 340
SWIDTH 534 0
DWIDTH 5 0
BBX 4 8 1 0
BITMAP
60
00
E0
90
90
E0
A0
90
ENDCHAR
STARTCHAR racute
ENCODING 341
SWIDTH 313 0
DWIDTH 3 0
BBX 2 7 1 0
BITMAP
40
80
C0
80
80
80
80
ENDCHAR
STARTCHAR uni0156
ENCODING 342
SWIDTH 534 0
DWIDTH 5 0
BBX 4 8 1 -2
BITMAP
E0
90
90
E0
A0
90
40
40
ENDCHAR
STARTCHAR uni0157
ENCODING 343
SWIDTH 313 0
DWIDTH 3 0
BBX 2 7 1 -2
BITMAP
C0
80
80
80
80
80
80
ENDCHAR
STARTCHAR Rcaron
ENCODING 344
SWIDTH 534 0
DWIDTH 5 0
BBX 4 8 1 0
BITMAP
40
00
E0
90
90
E0
A0
90
ENDCHAR
STARTCHAR rcaron
ENCODING 345
SWIDTH 313 0
DWIDTH 3 0
BBX 2 7 1 0
BITMAP
C0
00
C0
80
80
80
80
ENDCHAR
STARTCHAR Sacute
ENCODING 346
SWIDTH 562 0
DWIDTH 6 0
BBX 4 8 1 0
BITMAP
20
00
F0
90
C0
30
90
F0
ENDCHAR
STARTCHAR sacute
ENCODING 347
SWIDTH 427 0
DWIDTH 4 0
BBX 4 7 0 0
BITMAP
20
00
70
80
60
10
70
ENDCHAR
STARTCHAR Scircumflex
ENCODING 348
SWIDTH 562 0
DWIDTH 6 0
BBX 4 8 1 0
BITMAP
60
00
F0
90
C0
30
90
F0
ENDCHAR
STARTCHAR scircumflex
ENCODING 349
SWIDTH 427 0
DWIDTH 4 0
BBX 4 7 0 0
BITMAP
60
00
70
80
60
10
70
ENDCHAR
STARTCHAR uni015E
ENCODING 350
SWIDTH 562 0
DWIDTH 6 0
BBX 4 8 1 -2
BITMAP
F0
90
C0
30
90
B0
40
60
ENDCHAR
STARTCHAR uni015F
ENCODING 351
SWIDTH 427 0
DWIDTH 4 0
BBX 4 7 0 -2
BITMAP
70
80
60
10
50
20
20
ENDCHAR
STARTCHAR Scaron
ENCODING 352
SWIDTH 562 0
DWIDTH 6 0
BBX 4 8 1 0
BITMAP
60
00
F0
90
C0
30
90
F0
ENDCHAR
STARTCHAR scaron
ENCODING 353
SWIDTH 427 0
DWIDTH 4 0
BBX 4 7 0 0
BITMAP
60
00
70
80
60
10
70
ENDCHAR
STARTCHAR uni0162
ENCODING 354
SWIDTH 420 0
DWIDTH 4 0
BBX 4 9 0 -3
BITMAP
F0
20
20
20
20
20
20
20
40
ENDCHAR
STARTCHAR uni0163
ENCODING 355
SWIDTH 347 0
DWIDTH 3 0
BBX 3 9 0 -3
BITMAP
40
E0
40
40
40
40
20
20
40
ENDCHAR
STARTCHAR Tcaron
ENCODING 356
SWIDTH 420 0
DWIDTH 4 0
BBX 4 8 0 0
BITMAP
60
00
F0
20
20
20
20
20
ENDCHAR
STARTCHAR tcaron
ENCODING 357
SWIDTH 396 0
DWIDTH 4 0
BBX 4 6 0 0
BITMAP
50
F0
40
40
40
60
ENDCHAR
STARTCHAR Tbar
ENCODING 358
SWIDTH 501 0
DWIDTH 5 0
BBX 4 6 0 0
BITMAP
F0
20
70
20
20
20
ENDCHAR
STARTCHAR tbar
ENCODING 359
SWIDTH 350 0
DWIDTH 4 0
BBX 3 6 0 0
BITMAP
40
E0
40
E0
40
60
ENDCHAR
STARTCHAR Utilde
ENCODING 360
SWIDTH 552 0
DWIDTH 6 0
BBX 4 9 1 0
BITMAP
A0
60
00
90
90
90
90
90
F0
ENDCHAR
STARTCHAR utilde
ENCODING 361
SWIDTH 507 0
DWIDTH 5 0
BBX 3 7 1 0
BITMAP
E0
A0
A0
A0
A0
A0
E0
ENDCHAR
STARTCHAR Umacron
ENCODING 362
SWIDTH 552 0
DWIDTH 6 0
BBX 4 8 1 0
BITMAP
60
00
90
90
90
90
90
F0
ENDCHAR
STARTCHAR umacron
ENCODING 363
SWIDTH 507 0
DWIDTH 5 0
BBX 3 6 1 0
BITMAP
E0
A0
A0
A0
A0
E0
ENDCHAR
STARTCHAR Ubreve
ENCODING 364
SWIDTH 552 0
DWIDTH 6 0
BBX 4 9 1 0
BITMAP
A0
40
00
90
90
90
90
90
F0
ENDCHAR
STARTCHAR ubreve
ENCODING 365
SWIDTH 507 0
DWIDTH 5 0
BBX 3 7 1 0
BITMAP
A0
40
A0
A0
A0
A0
E0
ENDCHAR
STARTCHAR Uring
ENCODING 366
SWIDTH 552 0
DWIDTH 6 0
BBX 4 9 1 0
BITMAP
40
60
00
90
90
90
90
90
F0
ENDCHAR
STARTCHAR uring
ENCODING 367
SWIDTH 507 0
DWIDTH 5 0
BBX 3 8 1 0
BITMAP
40
A0
40
A0
A0
A0
A0
E0
ENDCHAR
STARTCHAR Uhungarumlaut
ENCODING 368
SWIDTH 552 0
DWIDTH 6 0
BBX 4 8 1 0
BITMAP
60
00
90
90
90
90
90
F0
ENDCHAR
STARTCHAR uhungarumlaut
ENCODING 369
SWIDTH 507 0
DWIDTH 5 0
BBX 3 7 1 0
BITMAP
60
00
A0
A0
A0
A0
E0
ENDCHAR
STARTCHAR Uogonek
ENCODING 370
SWIDTH 552 0
DWIDTH 6 0
BBX 4 7 1 -1
BITMAP
90
90
90
90
90
B0
40
ENDCHAR
STARTCHAR uogonek
ENCODING 371
SWIDTH 503 0
DWIDTH 5 0
BBX 3 6 1 -1
BITMAP
A0
A0
A0
A0
E0
20
ENDCHAR
STARTCHAR Wcircumflex
ENCODING 372
SWIDTH 795 0
DWIDTH 8 0
BBX 8 8 0 0
BITMAP
18
00
91
99
5A
66
66
24
ENDCHAR
STARTCHAR wcircumflex
ENCODING 373
SWIDTH 682 0
DWIDTH 7 0
BBX 7 7 0 0
BITMAP
10
20
92
B4
6C
6C
48
ENDCHAR
STARTCHAR Ycircumflex
ENCODING 374
SWIDTH 493 0
DWIDTH 5 0
BBX 5 8 0 0
BITMAP
60
00
88
50
50
20
20
20
ENDCHAR
STARTCHAR ycircumflex
ENCODING 375
SWIDTH 459 0
DWIDTH 5 0
BBX 4 8 0 -1
BITMAP
20
40
90
50
50
20
20
40
ENDCHAR
STARTCHAR Ydieresis
ENCODING 376
SWIDTH 493 0
DWIDTH 5 0
BBX 5 8 0 0
BITMAP
50
00
88
50
50
20
20
20
ENDCHAR
STARTCHAR Zacute
ENCODING 377
SWIDTH 482 0
DWIDTH 5 0
BBX 4 8 0 0
BITMAP
30
00
70
10
20
20
40
F0
ENDCHAR
STARTCHAR zacute
ENCODING 378
SWIDTH 405 0
DWIDTH 4 0
BBX 4 7 0 0
BITMAP
20
00
F0
20
20
40
F0
ENDCHAR
STARTCHAR Zdotaccent
ENCODING 379
SWIDTH 482 0
DWIDTH 5 0
BBX 4 8 0 0
BITMAP
20
00
70
10
20
20
40
F0
ENDCHAR
STARTCHAR zdotaccent
ENCODING 380
SWIDTH 405 0
DWIDTH 4 0
BBX 4 7 0 0
BITMAP
20
00
F0
20
20
40
F0
ENDCHAR
STARTCHAR Zcaron
ENCODING 381
SWIDTH 482 0
DWIDTH 5 0
BBX 4 8 0 0
BITMAP
30
00
70
10
20
20
40
F0
ENDCHAR
STARTCHAR zcaron
ENCODING 382
SWIDTH 405 0
DWIDTH 4 0
BBX 4 7 0 0
BITMAP
60
00
F0
20
20
40
F0
ENDCHAR
STARTCHAR florin
ENCODING 402
SWIDTH 494 0
DWIDTH 5 0
BBX 5 8 0 -1
BITMAP
18
20
70
20
20
20
40
C0
ENDCHAR
STARTCHAR AEacute
ENCODING 508
SWIDTH 773 0
DWIDTH 8 0
BBX 7 8 0 0
BITMAP
08
00
1E
28
2E
48
70
8E
ENDCHAR
STARTCHAR aeacute
ENCODING 509
SWIDTH 795 0
DWIDTH 8 0
BBX 6 7 1 0
BITMAP
10
00
FC
24
DC
A0
FC
ENDCHAR
STARTCHAR Oslashacute
ENCODING 510
SWIDTH 558 0
DWIDTH 6 0
BBX 5 8 0 0
BITMAP
10
00
78
48
58
68
48
F8
ENDCHAR
STARTCHAR oslashacute
ENCODING 511
SWIDTH 521 0
DWIDTH 5 0
BBX 5 7 0 0
BITMAP
10
20
78
50
68
48
F0
ENDCHAR
STARTCHAR uni0218
ENCODING 536
SWIDTH 562 0
DWIDTH 6 0
BBX 4 8 1 -2
BITMAP
F0
90
C0
30
90
B0
40
40
ENDCHAR
STARTCHAR uni0219
ENCODING 537
SWIDTH 427 0
DWIDTH 4 0
BBX 4 8 0 -3
BITMAP
70
80
60
10
50
20
20
20
ENDCHAR
STARTCHAR circumflex
ENCODING 710
SWIDTH 326 0
DWIDTH 3 0
BBX 2 1 1 6
BITMAP
C0
ENDCHAR
STARTCHAR caron
ENCODING 711
SWIDTH 326 0
DWIDTH 3 0
BBX 2 1 1 6
BITMAP
C0
ENDCHAR
STARTCHAR uni02C9
ENCODING 713
SWIDTH 358 0
DWIDTH 4 0
BBX 2 1 1 5
BITMAP
C0
ENDCHAR
STARTCHAR breve
ENCODING 728
SWIDTH 332 0
DWIDTH 3 0
BBX 2 2 1 5
BITMAP
C0
80
ENDCHAR
STARTCHAR dotaccent
ENCODING 729
SWIDTH 183 0
DWIDTH 2 0
BBX 1 1 0 6
BITMAP
80
ENDCHAR
STARTCHAR ring
ENCODING 730
SWIDTH 297 0
DWIDTH 3 0
BBX 1 2 1 5
BITMAP
80
80
ENDCHAR
STARTCHAR ogonek
ENCODING 731
SWIDTH 243 0
DWIDTH 2 0
BBX 1 2 1 -1
BITMAP
80
80
ENDCHAR
STARTCHAR tilde
ENCODING 732
SWIDTH 369 0
DWIDTH 4 0
BBX 2 2 1 5
BITMAP
C0
C0
ENDCHAR
STARTCHAR hungarumlaut
ENCODING 733
SWIDTH 377 0
DWIDTH 4 0
BBX 2 1 1 6
BITMAP
C0
ENDCHAR
STARTCHAR Mu
ENCODING 924
SWIDTH 527 0
DWIDTH 5 0
BBX 3 7 1 -1
BITMAP
A0
A0
A0
A0
A0
E0
80
ENDCHAR
STARTCHAR Pi
ENCODING 928
SWIDTH 605 0
DWIDTH 6 0
BBX 6 7 0 0
BITMAP
FC
48
48
48
48
48
48
ENDCHAR
STARTCHAR Sigma
ENCODING 931
SWIDTH 481 0
DWIDTH 5 0
BBX 3 7 1 0
BITMAP
E0
80
40
40
40
80
E0
ENDCHAR
STARTCHAR uni0901
ENCODING 2305
SWIDTH 0 0
DWIDTH 0 0
BBX 3 2 -3 8
BITMAP
40
E0
ENDCHAR
STARTCHAR uni0902
ENCODING 2306
SWIDTH 0 0
DWIDTH 0 0
BBX 1 1 -2 8
BITMAP
80
ENDCHAR
STARTCHAR uni0903
ENCODING 2307
SWIDTH 247 0
DWIDTH 2 0
BBX 1 4 1 1
BITMAP
80
00
00
80
ENDCHAR
STARTCHAR uni0905
ENCODING 2309
SWIDTH 598 0
DWIDTH 6 0
BBX 6 7 0 0
BITMAP
6C
28
28
78
28
28
E8
ENDCHAR
STARTCHAR uni0906
ENCODING 2310
SWIDTH 828 0
DWIDTH 8 0
BBX 8 7 0 0
BITMAP
6F
29
29
79
29
29
E9
ENDCHAR
STARTCHAR uni0907
ENCODING 2311
SWIDTH 478 0
DWIDTH 5 0
BBX 5 7 0 0
BITMAP
F8
10
70
80
70
90
70
ENDCHAR
STARTCHAR uni0908
ENCODING 2312
SWIDTH 478 0
DWIDTH 5 0
BBX 5 10 0 0
BITMAP
18
20
20
D8
10
70
80
70
90
70
ENDCHAR
STARTCHAR uni0909
ENCODING 2313
SWIDTH 471 0
DWIDTH 5 0
BBX 5 7 0 0
BITMAP
F8
10
10
20
10
90
70
ENDCHAR
STARTCHAR uni090A
ENCODING 2314
SWIDTH 661 0
DWIDTH 7 0
BBX 7 7 0 0
BITMAP
FE
10
10
3C
92
92
74
ENDCHAR
STARTCHAR uni090B
ENCODING 2315
SWIDTH 753 0
DWIDTH 8 0
BBX 8 7 0 0
BITMAP
FF
10
72
9E
16
34
56
ENDCHAR
STARTCHAR uni090C
ENCODING 2316
SWIDTH 676 0
DWIDTH 7 0
BBX 7 10 0 -3
BITMAP
FE
04
6C
94
94
84
64
08
08
06
ENDCHAR
STARTCHAR uni090D
ENCODING 2317
SWIDTH 521 0
DWIDTH 5 0
BBX 5 10 0 0
BITMAP
48
30
00
F8
48
48
50
40
40
70
ENDCHAR
STARTCHAR uni090E
ENCODING 2318
SWIDTH 522 0
DWIDTH 5 0
BBX 5 10 0 0
BITMAP
20
30
08
F8
48
48
50
40
40
70
ENDCHAR
STARTCHAR uni090F
ENCODING 2319
SWIDTH 526 0
DWIDTH 5 0
BBX 5 7 0 0
BITMAP
F8
48
48
50
40
40
70
ENDCHAR
STARTCHAR uni0910
ENCODING 2320
SWIDTH 526 0
DWIDTH 5 0
BBX 5 10 0 0
BITMAP
20
10
08
F8
48
48
50
40
40
70
ENDCHAR
STARTCHAR uni0911
ENCODING 2321
SWIDTH 829 0
DWIDTH 8 0
BBX 8 9 0 0
BITMAP
09
06
69
29
29
79
29
29
E9
ENDCHAR
STARTCHAR uni0912
ENCODING 2322
SWIDTH 828 0
DWIDTH 8 0
BBX 8 10 0 0
BITMAP
04
04
03
6F
29
29
79
29
29
E9
ENDCHAR
STARTCHAR uni0913
ENCODING 2323
SWIDTH 829 0
DWIDTH 8 0
BBX 8 10 0 0
BITMAP
04
02
02
6D
29
29
79
29
29
E9
ENDCHAR
STARTCHAR uni0914
ENCODING 2324
SWIDTH 829 0
DWIDTH 8 0
BBX 8 10 0 0
BITMAP
05
02
02
6D
29
29
79
29
29
E9
ENDCHAR
STARTCHAR uni0915
ENCODING 2325
SWIDTH 725 0
DWIDTH 7 0
BBX 7 7 0 0
BITMAP
FE
7C
92
92
92
74
10
ENDCHAR
STARTCHAR uni0916
ENCODING 2326
SWIDTH 696 0
DWIDTH 7 0
BBX 7 7 0 0
BITMAP
FE
24
2C
D4
54
4C
24
ENDCHAR
STARTCHAR uni0917
ENCODING 2327
SWIDTH 494 0
DWIDTH 5 0
BBX 5 7 0 0
BITMAP
F8
50
50
50
90
10
10
ENDCHAR
STARTCHAR uni0918
ENCODING 2328
SWIDTH 559 0
DWIDTH 6 0
BBX 6 7 0 0
BITMAP
FC
88
68
88
88
78
08
ENDCHAR
STARTCHAR uni0919
ENCODING 2329
SWIDTH 505 0
DWIDTH 5 0
BBX 5 7 0 0
BITMAP
F8
10
70
88
70
10
70
ENDCHAR
STARTCHAR uni091A
ENCODING 2330
SWIDTH 563 0
DWIDTH 6 0
BBX 6 7 0 0
BITMAP
FC
08
E8
48
48
38
08
ENDCHAR
STARTCHAR uni091B
ENCODING 2331
SWIDTH 581 0
DWIDTH 6 0
BBX 6 7 0 0
BITMAP
FC
48
58
68
48
48
78
ENDCHAR
STARTCHAR uni091C
ENCODING 2332
SWIDTH 547 0
DWIDTH 5 0
BBX 6 7 0 0
BITMAP
FC
08
78
28
28
C8
08
ENDCHAR
STARTCHAR uni091D
ENCODING 2333
SWIDTH 664 0
DWIDTH 7 0
BBX 7 7 0 0
BITMAP
FE
74
84
7C
14
94
74
ENDCHAR
STARTCHAR uni091E
ENCODING 2334
SWIDTH 592 0
DWIDTH 6 0
BBX 6 7 0 0
BITMAP
FC
48
28
38
28
C8
08
ENDCHAR
STARTCHAR uni091F
ENCODING 2335
SWIDTH 485 0
DWIDTH 5 0
BBX 5 7 0 0
BITMAP
F8
10
70
80
80
88
70
ENDCHAR
STARTCHAR uni0920
ENCODING 2336
SWIDTH 512 0
DWIDTH 5 0
BBX 5 7 0 0
BITMAP
F8
10
70
88
88
88
70
ENDCHAR
STARTCHAR uni0921
ENCODING 2337
SWIDTH 475 0
DWIDTH 5 0
BBX 5 7 0 0
BITMAP
F8
10
70
80
70
90
70
ENDCHAR
STARTCHAR uni0922
ENCODING 2338
SWIDTH 485 0
DWIDTH 5 0
BBX 5 7 0 0
BITMAP
F8
10
70
80
90
A8
70
ENDCHAR
STARTCHAR uni0923
ENCODING 2339
SWIDTH 681 0
DWIDTH 7 0
BBX 7 7 0 0
BITMAP
FE
54
54
54
64
04
04
ENDCHAR
STARTCHAR uni0924
ENCODING 2340
SWIDTH 496 0
DWIDTH 5 0
BBX 5 7 0 0
BITMAP
F8
10
70
90
90
90
50
ENDCHAR
STARTCHAR uni0925
ENCODING 2341
SWIDTH 593 0
DWIDTH 6 0
BBX 5 7 1 0
BITMAP
D8
B0
30
D0
90
F0
10
ENDCHAR
STARTCHAR uni0926
ENCODING 2342
SWIDTH 489 0
DWIDTH 5 0
BBX 5 7 0 0
BITMAP
F8
10
70
80
90
70
10
ENDCHAR
STARTCHAR uni0927
ENCODING 2343
SWIDTH 560 0
DWIDTH 6 0
BBX 6 7 0 0
BITMAP
DC
88
88
68
88
78
08
ENDCHAR
STARTCHAR uni0928
ENCODING 2344
SWIDTH 473 0
DWIDTH 5 0
BBX 5 7 0 0
BITMAP
F8
10
10
70
90
10
10
ENDCHAR
STARTCHAR uni0928093C
ENCODING 2345
SWIDTH 473 0
DWIDTH 5 0
BBX 5 7 0 0
BITMAP
F8
10
10
70
90
10
50
ENDCHAR
STARTCHAR uni092A
ENCODING 2346
SWIDTH 503 0
DWIDTH 5 0
BBX 5 7 0 0
BITMAP
F8
50
50
50
70
10
10
ENDCHAR
STARTCHAR uni092B
ENCODING 2347
SWIDTH 739 0
DWIDTH 7 0
BBX 8 7 0 0
BITMAP
FF
4C
52
52
72
14
10
ENDCHAR
STARTCHAR uni092C
ENCODING 2348
SWIDTH 491 0
DWIDTH 5 0
BBX 5 7 0 0
BITMAP
F8
70
50
B0
90
70
10
ENDCHAR
STARTCHAR uni092D
ENCODING 2349
SWIDTH 491 0
DWIDTH 5 0
BBX 5 7 0 0
BITMAP
B8
50
50
70
50
10
10
ENDCHAR
STARTCHAR uni092E
ENCODING 2350
SWIDTH 490 0
DWIDTH 5 0
BBX 5 7 0 0
BITMAP
F8
50
50
70
50
10
10
ENDCHAR
STARTCHAR uni092F
ENCODING 2351
SWIDTH 564 0
DWIDTH 6 0
BBX 6 7 0 0
BITMAP
FC
28
48
88
88
78
08
ENDCHAR
STARTCHAR uni0930
ENCODING 2352
SWIDTH 337 0
DWIDTH 3 0
BBX 4 7 0 0
BITMAP
F0
20
20
C0
40
40
20
ENDCHAR
STARTCHAR uni0930093C
ENCODING 2353
SWIDTH 347 0
DWIDTH 3 0
BBX 4 8 0 -1
BITMAP
F0
20
20
C0
40
40
20
80
ENDCHAR
STARTCHAR uni0932
ENCODING 2354
SWIDTH 676 0
DWIDTH 7 0
BBX 7 7 0 0
BITMAP
FE
04
6C
94
94
84
64
ENDCHAR
STARTCHAR uni0933
ENCODING 2355
SWIDTH 672 0
DWIDTH 7 0
BBX 7 7 0 0
BITMAP
FE
08
68
94
94
94
7C
ENDCHAR
STARTCHAR uni0933093C
ENCODING 2356
SWIDTH 672 0
DWIDTH 7 0
BBX 7 8 0 -1
BITMAP
FE
08
68
94
94
94
7C
20
ENDCHAR
STARTCHAR uni0935
ENCODING 2357
SWIDTH 484 0
DWIDTH 5 0
BBX 5 7 0 0
BITMAP
F8
70
90
90
90
70
10
ENDCHAR
STARTCHAR uni0936
ENCODING 2358
SWIDTH 614 0
DWIDTH 6 0
BBX 6 7 0 0
BITMAP
6C
98
18
E8
48
48
28
ENDCHAR
STARTCHAR uni0937
ENCODING 2359
SWIDTH 505 0
DWIDTH 5 0
BBX 5 7 0 0
BITMAP
F8
50
70
50
70
10
10
ENDCHAR
STARTCHAR uni0938
ENCODING 2360
SWIDTH 575 0
DWIDTH 6 0
BBX 6 7 0 0
BITMAP
FC
28
28
F8
48
48
28
ENDCHAR
STARTCHAR uni0939
ENCODING 2361
SWIDTH 481 0
DWIDTH 5 0
BBX 5 8 0 -1
BITMAP
F8
70
40
40
70
90
80
70
ENDCHAR
STARTCHAR uni093C
ENCODING 2364
SWIDTH 0 0
DWIDTH 0 0
BBX 1 1 -2 -1
BITMAP
80
ENDCHAR
STARTCHAR uni093D
ENCODING 2365
SWIDTH 529 0
DWIDTH 5 0
BBX 3 7 1 0
BITMAP
E0
80
80
60
20
A0
E0
ENDCHAR
STARTCHAR uni093E
ENCODING 2366
SWIDTH 231 0
DWIDTH 2 0
BBX 2 7 0 0
BITMAP
C0
40
40
40
40
40
40
ENDCHAR
STARTCHAR uni093F
ENCODING 2367
SWIDTH 231 0
DWIDTH 2 0
BBX 6 10 0 0
BITMAP
7C
44
40
C0
40
40
40
40
40
40
ENDCHAR
STARTCHAR uni0940
ENCODING 2368
SWIDTH 231 0
DWIDTH 2 0
BBX 3 10 -1 0
BITMAP
C0
A0
20
60
20
20
20
20
20
20
ENDCHAR
STARTCHAR uni0941
ENCODING 2369
SWIDTH 0 0
DWIDTH 0 0
BBX 3 3 -3 -3
BITMAP
20
A0
E0
ENDCHAR
STARTCHAR uni0942
ENCODING 2370
SWIDTH 0 0
DWIDTH 0 0
BBX 4 3 -3 -3
BITMAP
60
90
D0
ENDCHAR
STARTCHAR uni0943
ENCODING 2371
SWIDTH 0 0
DWIDTH 0 0
BBX 3 3 -3 -3
BITMAP
40
80
E0
ENDCHAR
STARTCHAR uni0945
ENCODING 2373
SWIDTH 0 0
DWIDTH 0 0
BBX 3 2 -3 7
BITMAP
A0
60
ENDCHAR
STARTCHAR uni0946
ENCODING 2374
SWIDTH 0 0
DWIDTH 0 0
BBX 3 3 -4 7
BITMAP
80
40
20
ENDCHAR
STARTCHAR uni0947
ENCODING 2375
SWIDTH 0 0
DWIDTH 0 0
BBX 2 3 -3 7
BITMAP
80
80
40
ENDCHAR
STARTCHAR uni0948
ENCODING 2376
SWIDTH 0 0
DWIDTH 0 0
BBX 2 3 -3 7
BITMAP
C0
C0
40
ENDCHAR
STARTCHAR uni0949
ENCODING 2377
SWIDTH 231 0
DWIDTH 2 0
BBX 3 9 0 0
BITMAP
A0
C0
40
40
40
40
40
40
40
ENDCHAR
STARTCHAR uni094A
ENCODING 2378
SWIDTH 231 0
DWIDTH 2 0
BBX 3 10 -1 0
BITMAP
80
C0
20
60
20
20
20
20
20
20
ENDCHAR
STARTCHAR uni094B
ENCODING 2379
SWIDTH 231 0
DWIDTH 2 0
BBX 3 10 -1 0
BITMAP
80
40
40
20
20
20
20
20
20
20
ENDCHAR
STARTCHAR uni094C
ENCODING 2380
SWIDTH 231 0
DWIDTH 2 0
BBX 3 10 -1 0
BITMAP
A0
40
40
20
20
20
20
20
20
20
ENDCHAR
STARTCHAR uni094D
ENCODING 2381
SWIDTH 0 0
DWIDTH 0 0
BBX 1 2 -1 -2
BITMAP
80
80
ENDCHAR
STARTCHAR uni0950
ENCODING 2384
SWIDTH 847 0
DWIDTH 8 0
BBX 7 9 1 0
BITMAP
08
02
CC
20
2C
42
3A
AA
CC
ENDCHAR
STARTCHAR uni0951
ENCODING 2385
SWIDTH 0 0
DWIDTH 0 0
BBX 1 2 -2 8
BITMAP
80
80
ENDCHAR
STARTCHAR uni0952
ENCODING 2386
SWIDTH 0 0
DWIDTH 0 0
BBX 3 1 -4 -1
BITMAP
E0
ENDCHAR
STARTCHAR uni0953
ENCODING 2387
SWIDTH 0 0
DWIDTH 0 0
BBX 2 2 -3 8
BITMAP
80
40
ENDCHAR
STARTCHAR uni0954
ENCODING 2388
SWIDTH 0 0
DWIDTH 0 0
BBX 1 2 -1 8
BITMAP
80
80
ENDCHAR
STARTCHAR uni0915093C
ENCODING 2392
SWIDTH 725 0
DWIDTH 7 0
BBX 7 8 0 -1
BITMAP
FE
7C
92
92
92
74
10
40
ENDCHAR
STARTCHAR uni0916093C
ENCODING 2393
SWIDTH 696 0
DWIDTH 7 0
BBX 7 8 0 -1
BITMAP
FE
24
2C
D4
54
4C
24
80
ENDCHAR
STARTCHAR uni0917093C
ENCODING 2394
SWIDTH 494 0
DWIDTH 5 0
BBX 5 8 0 -1
BITMAP
F8
50
50
50
90
10
10
40
ENDCHAR
STARTCHAR uni091C093C
ENCODING 2395
SWIDTH 547 0
DWIDTH 5 0
BBX 6 8 0 -1
BITMAP
FC
08
78
28
28
C8
08
40
ENDCHAR
STARTCHAR uni0921093C
ENCODING 2396
SWIDTH 475 0
DWIDTH 5 0
BBX 5 9 0 -2
BITMAP
F8
10
70
80
70
90
70
00
20
ENDCHAR
STARTCHAR uni0922093C
ENCODING 2397
SWIDTH 485 0
DWIDTH 5 0
BBX 5 9 0 -2
BITMAP
F8
10
70
80
90
A8
70
00
20
ENDCHAR
STARTCHAR uni092B093C
ENCODING 2398
SWIDTH 739 0
DWIDTH 7 0
BBX 8 8 0 -1
BITMAP
FF
4C
52
52
72
14
10
40
ENDCHAR
STARTCHAR uni092F093C
ENCODING 2399
SWIDTH 564 0
DWIDTH 6 0
BBX 6 8 0 -1
BITMAP
FC
28
48
88
88
78
08
40
ENDCHAR
STARTCHAR uni0960
ENCODING 2400
SWIDTH 753 0
DWIDTH 8 0
BBX 8 9 0 -2
BITMAP
FF
10
72
96
9C
34
56
04
06
ENDCHAR
STARTCHAR uni0961
ENCODING 2401
SWIDTH 676 0
DWIDTH 7 0
BBX 7 10 0 -3
BITMAP
FE
04
6C
94
94
8C
68
0C
08
0C
ENDCHAR
STARTCHAR uni0964
ENCODING 2404
SWIDTH 286 0
DWIDTH 3 0
BBX 1 7 1 0
BITMAP
80
80
80
80
80
80
80
ENDCHAR
STARTCHAR uni0965
ENCODING 2405
SWIDTH 518 0
DWIDTH 5 0
BBX 3 7 1 0
BITMAP
A0
A0
A0
A0
A0
A0
A0
ENDCHAR
STARTCHAR uni0966
ENCODING 2406
SWIDTH 519 0
DWIDTH 5 0
BBX 3 7 1 0
BITMAP
E0
A0
A0
A0
A0
A0
E0
ENDCHAR
STARTCHAR uni0967
ENCODING 2407
SWIDTH 288 0
DWIDTH 3 0
BBX 2 7 0 0
BITMAP
C0
40
40
40
40
40
40
ENDCHAR
STARTCHAR uni0968
ENCODING 2408
SWIDTH 453 0
DWIDTH 5 0
BBX 4 7 0 0
BITMAP
70
90
10
20
40
80
F0
ENDCHAR
STARTCHAR uni0969
ENCODING 2409
SWIDTH 489 0
DWIDTH 5 0
BBX 3 7 1 0
BITMAP
E0
A0
20
40
20
A0
E0
ENDCHAR
STARTCHAR uni096A
ENCODING 2410
SWIDTH 453 0
DWIDTH 5 0
BBX 5 7 0 0
BITMAP
10
30
50
50
90
F8
10
ENDCHAR
STARTCHAR uni096B
ENCODING 2411
SWIDTH 480 0
DWIDTH 5 0
BBX 3 7 1 0
BITMAP
E0
80
E0
20
20
A0
E0
ENDCHAR
STARTCHAR uni096C
ENCODING 2412
SWIDTH 495 0
DWIDTH 5 0
BBX 3 7 1 0
BITMAP
E0
80
E0
A0
A0
A0
E0
ENDCHAR
STARTCHAR uni096D
ENCODING 2413
SWIDTH 380 0
DWIDTH 4 0
BBX 4 7 0 0
BITMAP
F0
20
20
20
40
40
40
ENDCHAR
STARTCHAR uni096E
ENCODING 2414
SWIDTH 523 0
DWIDTH 5 0
BBX 4 7 1 0
BITMAP
E0
90
90
E0
90
90
E0
ENDCHAR
STARTCHAR uni096F
ENCODING 2415
SWIDTH 493 0
DWIDTH 5 0
BBX 4 7 0 0
BITMAP
70
90
90
70
10
10
70
ENDCHAR
STARTCHAR uni0970
ENCODING 2416
SWIDTH 391 0
DWIDTH 4 0
BBX 4 4 0 1
BITMAP
60
90
90
60
ENDCHAR
STARTCHAR uni0972
ENCODING 2418
SWIDTH 598 0
DWIDTH 6 0
BBX 6 9 0 0
BITMAP
14
0C
68
28
28
78
28
28
E8
ENDCHAR
STARTCHAR Wgrave
ENCODING 7808
SWIDTH 795 0
DWIDTH 8 0
BBX 8 8 0 0
BITMAP
10
00
91
99
5A
66
66
24
ENDCHAR
STARTCHAR wgrave
ENCODING 7809
SWIDTH 682 0
DWIDTH 7 0
BBX 7 7 0 0
BITMAP
20
10
92
B4
6C
6C
48
ENDCHAR
STARTCHAR Wacute
ENCODING 7810
SWIDTH 795 0
DWIDTH 8 0
BBX 8 8 0 0
BITMAP
08
00
91
99
5A
66
66
24
ENDCHAR
STARTCHAR wacute
ENCODING 7811
SWIDTH 682 0
DWIDTH 7 0
BBX 7 7 0 0
BITMAP
18
00
92
B4
6C
6C
48
ENDCHAR
STARTCHAR Wdieresis
ENCODING 7812
SWIDTH 795 0
DWIDTH 8 0
BBX 8 8 0 0
BITMAP
18
00
91
99
5A
66
66
24
ENDCHAR
STARTCHAR wdieresis
ENCODING 7813
SWIDTH 682 0
DWIDTH 7 0
BBX 7 7 0 0
BITMAP
28
00
92
B4
6C
6C
48
ENDCHAR
STARTCHAR uni1E9E
ENCODING 7838
SWIDTH 542 0
DWIDTH 5 0
BBX 4 6 1 0
BITMAP
F0
A0
A0
90
90
F0
ENDCHAR
STARTCHAR Ygrave
ENCODING 7922
SWIDTH 493 0
DWIDTH 5 0
BBX 5 8 0 0
BITMAP
60
00
88
50
50
20
20
20
ENDCHAR
STARTCHAR ygrave
ENCODING 7923
SWIDTH 459 0
DWIDTH 5 0
BBX 4 8 0 -1
BITMAP
40
20
90
50
50
20
20
40
ENDCHAR
STARTCHAR uni200B
ENCODING 8203
SWIDTH 0 0
DWIDTH 0 0
BBX 1 1 0 0
BITMAP
00
ENDCHAR
STARTCHAR uni200C
ENCODING 8204
SWIDTH 0 0
DWIDTH 0 0
BBX 1 10 0 -2
BITMAP
80
80
80
80
80
80
80
80
80
80
ENDCHAR
STARTCHAR uni200D
ENCODING 8205
SWIDTH 0 0
DWIDTH 0 0
BBX 2 10 -1 -2
BITMAP
C0
C0
80
80
80
80
80
80
80
80
ENDCHAR
STARTCHAR endash
ENCODING 8211
SWIDTH 408 0
DWIDTH 4 0
BBX 4 1 0 3
BITMAP
F0
ENDCHAR
STARTCHAR emdash
ENCODING 8212
SWIDTH 537 0
DWIDTH 5 0
BBX 5 1 0 3
BITMAP
F8
ENDCHAR
STARTCHAR quoteleft
ENCODING 8216
SWIDTH 179 0
DWIDTH 2 0
BBX 1 2 0 4
BITMAP
80
80
ENDCHAR
STARTCHAR quoteright
ENCODING 8217
SWIDTH 179 0
DWIDTH 2 0
BBX 1 2 0 4
BITMAP
80
80
ENDCHAR
STARTCHAR quotesinglbase
ENCODING 8218
SWIDTH 187 0
DWIDTH 2 0
BBX 1 2 0 -1
BITMAP
80
80
ENDCHAR
STARTCHAR quotedblleft
ENCODING 8220
SWIDTH 329 0
DWIDTH 3 0
BBX 2 2 1 4
BITMAP
C0
C0
ENDCHAR
STARTCHAR quotedblright
ENCODING 8221
SWIDTH 329 0
DWIDTH 3 0
BBX 2 2 1 4
BITMAP
C0
C0
ENDCHAR
STARTCHAR quotedblbase
ENCODING 8222
SWIDTH 337 0
DWIDTH 3 0
BBX 2 2 1 -1
BITMAP
C0
80
ENDCHAR
STARTCHAR dagger
ENCODING 8224
SWIDTH 427 0
DWIDTH 4 0
BBX 4 6 0 0
BITMAP
20
F0
20
20
20
20
ENDCHAR
STARTCHAR daggerdbl
ENCODING 8225
SWIDTH 427 0
DWIDTH 4 0
BBX 4 6 0 0
BITMAP
20
F0
20
20
F0
20
ENDCHAR
STARTCHAR bullet
ENCODING 8226
SWIDTH 273 0
DWIDTH 3 0
BBX 1 2 1 2
BITMAP
80
80
ENDCHAR
STARTCHAR ellipsis
ENCODING 8230
SWIDTH 591 0
DWIDTH 6 0
BBX 4 1 1 0
BITMAP
D0
ENDCHAR
STARTCHAR perthousand
ENCODING 8240
SWIDTH 1027 0
DWIDTH 10 0
BBX 10 6 0 0
BITMAP
E800
A800
7000
14C0
2B40
2FC0
ENDCHAR
STARTCHAR guilsinglleft
ENCODING 8249
SWIDTH 290 0
DWIDTH 3 0
BBX 1 3 1 1
BITMAP
80
80
80
ENDCHAR
STARTCHAR guilsinglright
ENCODING 8250
SWIDTH 290 0
DWIDTH 3 0
BBX 1 3 1 1
BITMAP
80
80
80
ENDCHAR
STARTCHAR fraction
ENCODING 8260
SWIDTH 117 0
DWIDTH 1 0
BBX 5 6 -2 0
BITMAP
08
10
20
20
40
80
ENDCHAR
STARTCHAR Euro
ENCODING 8364
SWIDTH 523 0
DWIDTH 5 0
BBX 5 6 0 0
BITMAP
70
48
E0
E0
48
70
ENDCHAR
STARTCHAR uni20B9
ENCODING 8377
SWIDTH 414 0
DWIDTH 4 0
BBX 4 7 0 0
BITMAP
F0
F0
20
C0
40
40
20
ENDCHAR
STARTCHAR trademark
ENCODING 8482
SWIDTH 591 0
DWIDTH 6 0
BBX 4 3 1 4
BITMAP
F0
B0
B0
ENDCHAR
STARTCHAR uni2126
ENCODING 8486
SWIDTH 629 0
DWIDTH 6 0
BBX 6 7 0 0
BITMAP
78
44
44
44
44
44
EC
ENDCHAR
STARTCHAR partialdiff
ENCODING 8706
SWIDTH 481 0
DWIDTH 5 0
BBX 3 8 1 0
BITMAP
C0
20
20
E0
A0
A0
A0
E0
ENDCHAR
STARTCHAR uni2206
ENCODING 8710
SWIDTH 594 0
DWIDTH 6 0
BBX 6 7 0 0
BITMAP
20
30
30
48
48
48
FC
ENDCHAR
STARTCHAR minus
ENCODING 8722
SWIDTH 523 0
DWIDTH 5 0
BBX 4 1 1 3
BITMAP
F0
ENDCHAR
STARTCHAR approxequal
ENCODING 8776
SWIDTH 523 0
DWIDTH 5 0
BBX 4 3 1 2
BITMAP
F0
00
F0
ENDCHAR
STARTCHAR notequal
ENCODING 8800
SWIDTH 523 0
DWIDTH 5 0
BBX 4 5 1 1
BITMAP
20
F0
40
F0
80
ENDCHAR
STARTCHAR lessequal
ENCODING 8804
SWIDTH 523 0
DWIDTH 5 0
BBX 4 4 1 1
BITMAP
70
E0
10
F0
ENDCHAR
STARTCHAR greaterequal
ENCODING 8805
SWIDTH 523 0
DWIDTH 5 0
BBX 4 4 1 1
BITMAP
E0
70
80
F0
ENDCHAR
STARTCHAR uni25CC
ENCODING 9676
SWIDTH 701 0
DWIDTH 7 0
BBX 5 7 1 0
BITMAP
30
48
80
08
88
88
60
ENDCHAR
STARTCHAR commaaccent
ENCODING 63171
SWIDTH 0 0
DWIDTH 0 0
BBX 1 2 2 -3
BITMAP
80
80
ENDCHAR
STARTCHAR .notdef
ENCODING -1
SWIDTH 600 0
DWIDTH 6 0
BBX 4 7 1 0
BITMAP
F0
90
90
90
90
90
F0
ENDCHAR
STARTCHAR .null
ENCODING -1
SWIDTH 0 0
DWIDTH 0 0
BBX 1 1 0 0
BITMAP
00
ENDCHAR
STARTCHAR nonmarkingreturn
ENCODING -1
SWIDTH 333 0
DWIDTH 3 0
BBX 1 1 0 0
BITMAP
00
ENDCHAR
STARTCHAR uni0915094D
ENCODING -1
SWIDTH 519 0
DWIDTH 5 0
BBX 6 7 0 0
BITMAP
FC
7C
90
90
90
70
10
ENDCHAR
STARTCHAR uni0916094D
ENCODING -1
SWIDTH 468 0
DWIDTH 5 0
BBX 6 7 0 0
BITMAP
FC
20
28
D0
50
4C
20
ENDCHAR
STARTCHAR uni0917094D
ENCODING -1
SWIDTH 264 0
DWIDTH 3 0
BBX 3 5 0 2
BITMAP
E0
40
40
40
80
ENDCHAR
STARTCHAR uni0918094D
ENCODING -1
SWIDTH 321 0
DWIDTH 3 0
BBX 4 6 0 1
BITMAP
F0
80
60
80
80
70
ENDCHAR
STARTCHAR uni0919094D
ENCODING -1
SWIDTH 505 0
DWIDTH 5 0
BBX 5 9 0 -2
BITMAP
F8
10
70
88
70
10
70
00
30
ENDCHAR
STARTCHAR uni091A094D
ENCODING -1
SWIDTH 330 0
DWIDTH 3 0
BBX 5 6 0 1
BITMAP
F8
00
E0
40
48
30
ENDCHAR
STARTCHAR uni091B094D
ENCODING -1
SWIDTH 581 0
DWIDTH 6 0
BBX 6 7 0 0
BITMAP
FC
40
58
68
48
48
78
ENDCHAR
STARTCHAR uni091C094D
ENCODING -1
SWIDTH 309 0
DWIDTH 3 0
BBX 4 6 0 1
BITMAP
F0
00
70
20
20
C0
ENDCHAR
STARTCHAR uni091D094D
ENCODING -1
SWIDTH 432 0
DWIDTH 4 0
BBX 5 8 0 -1
BITMAP
F8
10
70
80
78
90
70
80
ENDCHAR
STARTCHAR uni091E094D
ENCODING -1
SWIDTH 359 0
DWIDTH 4 0
BBX 5 6 0 1
BITMAP
F8
40
20
38
20
C0
ENDCHAR
STARTCHAR uni091F094D
ENCODING -1
SWIDTH 485 0
DWIDTH 5 0
BBX 5 9 0 -2
BITMAP
F8
10
70
80
80
88
70
00
30
ENDCHAR
STARTCHAR uni0920094D
ENCODING -1
SWIDTH 512 0
DWIDTH 5 0
BBX 5 9 0 -2
BITMAP
F8
10
70
88
88
88
70
00
30
ENDCHAR
STARTCHAR uni0921094D
ENCODING -1
SWIDTH 475 0
DWIDTH 5 0
BBX 5 9 0 -2
BITMAP
F8
10
70
80
70
90
70
00
30
ENDCHAR
STARTCHAR uni0922094D
ENCODING -1
SWIDTH 485 0
DWIDTH 5 0
BBX 5 9 0 -2
BITMAP
F8
10
70
80
90
A8
70
00
30
ENDCHAR
STARTCHAR uni0923094D
ENCODING -1
SWIDTH 454 0
DWIDTH 5 0
BBX 5 5 0 2
BITMAP
F8
50
50
50
60
ENDCHAR
STARTCHAR uni0924094D
ENCODING -1
SWIDTH 263 0
DWIDTH 3 0
BBX 4 7 0 0
BITMAP
F0
00
70
80
80
80
40
ENDCHAR
STARTCHAR uni0925094D
ENCODING -1
SWIDTH 359 0
DWIDTH 4 0
BBX 4 6 1 1
BITMAP
C0
A0
20
C0
80
F0
ENDCHAR
STARTCHAR uni0926094D
ENCODING -1
SWIDTH 489 0
DWIDTH 5 0
BBX 5 8 0 -1
BITMAP
F8
10
70
80
90
70
10
30
ENDCHAR
STARTCHAR uni0927094D
ENCODING -1
SWIDTH 321 0
DWIDTH 3 0
BBX 5 6 0 1
BITMAP
D8
80
60
80
80
70
ENDCHAR
STARTCHAR uni0928094D
ENCODING -1
SWIDTH 233 0
DWIDTH 2 0
BBX 3 5 0 2
BITMAP
E0
00
00
60
80
ENDCHAR
STARTCHAR uni092A094D
ENCODING -1
SWIDTH 269 0
DWIDTH 3 0
BBX 4 5 0 2
BITMAP
F0
40
40
40
70
ENDCHAR
STARTCHAR uni092B094D
ENCODING -1
SWIDTH 530 0
DWIDTH 5 0
BBX 7 7 0 0
BITMAP
FE
4C
52
50
70
10
10
ENDCHAR
STARTCHAR uni092C094D
ENCODING -1
SWIDTH 265 0
DWIDTH 3 0
BBX 4 6 0 1
BITMAP
F0
60
40
A0
90
60
ENDCHAR
STARTCHAR uni092D094D
ENCODING -1
SWIDTH 261 0
DWIDTH 3 0
BBX 4 5 0 2
BITMAP
B0
40
40
70
40
ENDCHAR
STARTCHAR uni092E094D
ENCODING -1
SWIDTH 261 0
DWIDTH 3 0
BBX 4 5 0 2
BITMAP
F0
40
40
70
40
ENDCHAR
STARTCHAR uni092F094D
ENCODING -1
SWIDTH 323 0
DWIDTH 3 0
BBX 5 6 0 1
BITMAP
F0
20
40
80
88
70
ENDCHAR
STARTCHAR uni0930094D
ENCODING -1
SWIDTH 337 0
DWIDTH 3 0
BBX 4 9 0 -2
BITMAP
F0
20
20
C0
40
40
20
40
20
ENDCHAR
STARTCHAR uni0932094D
ENCODING -1
SWIDTH 431 0
DWIDTH 4 0
BBX 6 7 0 0
BITMAP
FC
00
6C
90
90
80
60
ENDCHAR
STARTCHAR uni0933094D
ENCODING -1
SWIDTH 677 0
DWIDTH 7 0
BBX 7 7 0 0
BITMAP
FE
00
68
94
94
94
7C
ENDCHAR
STARTCHAR uni0935094D
ENCODING -1
SWIDTH 255 0
DWIDTH 3 0
BBX 4 6 0 1
BITMAP
F0
60
80
80
90
60
ENDCHAR
STARTCHAR uni0936094D
ENCODING -1
SWIDTH 378 0
DWIDTH 4 0
BBX 3 7 0 0
BITMAP
60
A0
20
E0
40
40
20
ENDCHAR
STARTCHAR uni0937094D
ENCODING -1
SWIDTH 282 0
DWIDTH 3 0
BBX 4 5 0 2
BITMAP
F0
40
60
50
60
ENDCHAR
STARTCHAR uni0938094D
ENCODING -1
SWIDTH 338 0
DWIDTH 3 0
BBX 5 7 0 0
BITMAP
F8
20
20
F8
40
40
20
ENDCHAR
STARTCHAR uni0939094D
ENCODING -1
SWIDTH 457 0
DWIDTH 5 0
BBX 6 8 0 -1
BITMAP
F8
70
40
40
7C
80
80
70
ENDCHAR
STARTCHAR uni0915093C094D
ENCODING -1
SWIDTH 519 0
DWIDTH 5 0
BBX 6 8 0 -1
BITMAP
FC
7C
90
90
90
70
10
40
ENDCHAR
STARTCHAR uni0916093C094D
ENCODING -1
SWIDTH 463 0
DWIDTH 5 0
BBX 6 8 0 -1
BITMAP
FC
20
28
D0
50
4C
20
80
ENDCHAR
STARTCHAR uni0917093C094D
ENCODING -1
SWIDTH 264 0
DWIDTH 3 0
BBX 3 7 0 0
BITMAP
E0
40
40
40
80
00
40
ENDCHAR
STARTCHAR uni091C093C094D
ENCODING -1
SWIDTH 314 0
DWIDTH 3 0
BBX 4 8 0 -1
BITMAP
F0
00
70
20
20
C0
00
40
ENDCHAR
STARTCHAR uni0928093C094D
ENCODING -1
SWIDTH 241 0
DWIDTH 2 0
BBX 3 7 0 0
BITMAP
E0
00
00
60
80
00
40
ENDCHAR
STARTCHAR uni092B093C094D
ENCODING -1
SWIDTH 530 0
DWIDTH 5 0
BBX 7 8 0 -1
BITMAP
FE
4C
52
50
70
10
10
40
ENDCHAR
STARTCHAR uni092F093C094D
ENCODING -1
SWIDTH 325 0
DWIDTH 3 0
BBX 5 8 0 -1
BITMAP
F0
20
40
80
88
70
00
40
ENDCHAR
STARTCHAR uni09080902
ENCODING -1
SWIDTH 478 0
DWIDTH 5 0
BBX 5 10 0 0
BITMAP
18
30
20
D8
10
70
80
70
90
70
ENDCHAR
STARTCHAR uni09300941
ENCODING -1
SWIDTH 533 0
DWIDTH 5 0
BBX 5 7 0 0
BITMAP
F8
20
30
C8
48
50
20
ENDCHAR
STARTCHAR uni09300942
ENCODING -1
SWIDTH 645 0
DWIDTH 6 0
BBX 7 7 0 0
BITMAP
FE
28
34
D4
44
48
20
ENDCHAR
STARTCHAR uni09390941
ENCODING -1
SWIDTH 495 0
DWIDTH 5 0
BBX 5 10 0 -3
BITMAP
F8
10
70
40
70
90
80
70
88
70
ENDCHAR
STARTCHAR uni09390942
ENCODING -1
SWIDTH 492 0
DWIDTH 5 0
BBX 5 10 0 -3
BITMAP
F8
10
70
40
70
90
60
50
50
68
ENDCHAR
STARTCHAR uni09260943
ENCODING -1
SWIDTH 390 0
DWIDTH 4 0
BBX 4 7 0 0
BITMAP
F0
20
60
80
60
80
60
ENDCHAR
STARTCHAR uni09390943
ENCODING -1
SWIDTH 519 0
DWIDTH 5 0
BBX 5 9 0 -2
BITMAP
F8
10
70
80
70
A8
B8
80
70
ENDCHAR
STARTCHAR uni094D0930
ENCODING -1
SWIDTH 0 0
DWIDTH 0 0
BBX 3 2 -4 -2
BITMAP
40
A0
ENDCHAR
STARTCHAR uni0930094D.1
ENCODING -1
SWIDTH 192 0
DWIDTH 2 0
BBX 4 3 -1 4
BITMAP
60
00
F0
ENDCHAR
STARTCHAR uni0930094D.2
ENCODING -1
SWIDTH 0 0
DWIDTH 0 0
BBX 1 3 -1 7
BITMAP
80
80
80
ENDCHAR
STARTCHAR uni0930094D0902
ENCODING -1
SWIDTH 0 0
DWIDTH 0 0
BBX 1 3 -1 7
BITMAP
80
80
80
ENDCHAR
STARTCHAR uni093E0930094D
ENCODING -1
SWIDTH 231 0
DWIDTH 2 0
BBX 3 10 0 0
BITMAP
60
40
40
C0
40
40
40
40
40
40
ENDCHAR
STARTCHAR uni093E0930094D0902
ENCODING -1
SWIDTH 231 0
DWIDTH 2 0
BBX 3 10 0 0
BITMAP
60
60
40
C0
40
40
40
40
40
40
ENDCHAR
STARTCHAR uni0930094D.aMatraI
ENCODING -1
SWIDTH 0 0
DWIDTH 0 0
BBX 1 3 0 7
BITMAP
80
80
80
ENDCHAR
STARTCHAR uni0902.aMatraI
ENCODING -1
SWIDTH 0 0
DWIDTH 0 0
BBX 1 1 0 8
BITMAP
80
ENDCHAR
STARTCHAR uni0930094D0902.aMatraI
ENCODING -1
SWIDTH 0 0
DWIDTH 0 0
BBX 1 3 0 7
BITMAP
80
80
80
ENDCHAR
STARTCHAR uni09400930094D
ENCODING -1
SWIDTH 231 0
DWIDTH 2 0
BBX 4 10 -1 0
BITMAP
F0
A0
20
60
20
20
20
20
20
20
ENDCHAR
STARTCHAR uni09400902
ENCODING -1
SWIDTH 231 0
DWIDTH 2 0
BBX 3 10 -1 0
BITMAP
C0
A0
20
60
20
20
20
20
20
20
ENDCHAR
STARTCHAR uni09400930094D0902
ENCODING -1
SWIDTH 231 0
DWIDTH 2 0
BBX 4 10 -1 0
BITMAP
F0
B0
20
60
20
20
20
20
20
20
ENDCHAR
STARTCHAR uni0940.aLong
ENCODING -1
SWIDTH 231 0
DWIDTH 2 0
BBX 6 10 -4 0
BITMAP
F8
84
04
0C
04
04
04
04
04
04
ENDCHAR
STARTCHAR uni09400930094D.aLong
ENCODING -1
SWIDTH 231 0
DWIDTH 2 0
BBX 7 10 -4 0
BITMAP
FE
84
04
0C
04
04
04
04
04
04
ENDCHAR
STARTCHAR uni09400902.aLong
ENCODING -1
SWIDTH 231 0
DWIDTH 2 0
BBX 7 10 -4 0
BITMAP
F8
86
04
0C
04
04
04
04
04
04
ENDCHAR
STARTCHAR uni09400930094D0902.aLong
ENCODING -1
SWIDTH 231 0
DWIDTH 2 0
BBX 7 10 -4 0
BITMAP
FE
86
04
0C
04
04
04
04
04
04
ENDCHAR
STARTCHAR uni09470930094D
ENCODING -1
SWIDTH 0 0
DWIDTH 0 0
BBX 3 3 -3 7
BITMAP
A0
40
40
ENDCHAR
STARTCHAR uni09470902
ENCODING -1
SWIDTH 0 0
DWIDTH 0 0
BBX 3 3 -3 7
BITMAP
80
A0
40
ENDCHAR
STARTCHAR uni09470901
ENCODING -1
SWIDTH 0 0
DWIDTH 0 0
BBX 5 3 -3 7
BITMAP
90
A8
78
ENDCHAR
STARTCHAR uni09470930094D0902
ENCODING -1
SWIDTH 0 0
DWIDTH 0 0
BBX 3 3 -3 7
BITMAP
A0
60
40
ENDCHAR
STARTCHAR uni09480930094D
ENCODING -1
SWIDTH 0 0
DWIDTH 0 0
BBX 3 3 -3 7
BITMAP
E0
40
40
ENDCHAR
STARTCHAR uni09480902
ENCODING -1
SWIDTH 0 0
DWIDTH 0 0
BBX 3 3 -3 7
BITMAP
C0
E0
40
ENDCHAR
STARTCHAR uni09480901
ENCODING -1
SWIDTH 0 0
DWIDTH 0 0
BBX 6 3 -3 7
BITMAP
C8
DC
40
ENDCHAR
STARTCHAR uni09480930094D0902
ENCODING -1
SWIDTH 0 0
DWIDTH 0 0
BBX 3 3 -3 7
BITMAP
E0
60
40
ENDCHAR
STARTCHAR uni094B0930094D
ENCODING -1
SWIDTH 231 0
DWIDTH 2 0
BBX 4 10 -1 0
BITMAP
B0
40
20
60
20
20
20
20
20
20
ENDCHAR
STARTCHAR uni094B0902
ENCODING -1
SWIDTH 231 0
DWIDTH 2 0
BBX 3 10 -1 0
BITMAP
80
60
40
20
20
20
20
20
20
20
ENDCHAR
STARTCHAR uni094B0930094D0902
ENCODING -1
SWIDTH 231 0
DWIDTH 2 0
BBX 4 10 -1 0
BITMAP
B0
50
20
60
20
20
20
20
20
20
ENDCHAR
STARTCHAR uni094C0930094D
ENCODING -1
SWIDTH 231 0
DWIDTH 2 0
BBX 4 10 -1 0
BITMAP
B0
40
40
20
20
20
20
20
20
20
ENDCHAR
STARTCHAR uni094C0902
ENCODING -1
SWIDTH 231 0
DWIDTH 2 0
BBX 3 10 -1 0
BITMAP
A0
60
40
20
20
20
20
20
20
20
ENDCHAR
STARTCHAR uni094C0930094D0902
ENCODING -1
SWIDTH 231 0
DWIDTH 2 0
BBX 4 10 -1 0
BITMAP
B0
50
40
20
20
20
20
20
20
20
ENDCHAR
STARTCHAR uni0915094D0937
ENCODING -1
SWIDTH 656 0
DWIDTH 7 0
BBX 6 7 1 0
BITMAP
EC
A8
F8
88
A8
E8
28
ENDCHAR
STARTCHAR uni0915094D0937094D
ENCODING -1
SWIDTH 429 0
DWIDTH 4 0
BBX 4 7 1 0
BITMAP
E0
A0
F0
80
A0
E0
20
ENDCHAR
STARTCHAR uni0915094D0937094D092E
ENCODING -1
SWIDTH 933 0
DWIDTH 9 0
BBX 8 7 1 0
BITMAP
EF
A9
F9
8E
A9
E1
21
ENDCHAR
STARTCHAR uni0915094D0937094D092E094D
ENCODING -1
SWIDTH 717 0
DWIDTH 7 0
BBX 7 7 1 0
BITMAP
EE
A8
F8
8E
A8
E0
20
ENDCHAR
STARTCHAR uni0915094D0937094D092E094D092F
ENCODING -1
SWIDTH 1283 0
DWIDTH 13 0
BBX 12 7 1 0
BITMAP
EFF0
A8A0
F920
8E20
A920
E0E0
2020
ENDCHAR
STARTCHAR uni0915094D0937094D092F
ENCODING -1
SWIDTH 989 0
DWIDTH 10 0
BBX 9 7 1 0
BITMAP
EF80
A500
FD00
8900
A900
E700
2100
ENDCHAR
STARTCHAR uni0915094D0937094D0935
ENCODING -1
SWIDTH 936 0
DWIDTH 9 0
BBX 9 7 1 0
BITMAP
EF80
A500
F900
8900
A900
E600
2100
ENDCHAR
STARTCHAR uni091C094D091E
ENCODING -1
SWIDTH 629 0
DWIDTH 6 0
BBX 6 8 0 -1
BITMAP
FC
04
78
84
74
94
74
80
ENDCHAR
STARTCHAR uni091C094D091E094D
ENCODING -1
SWIDTH 398 0
DWIDTH 4 0
BBX 5 8 0 -1
BITMAP
F8
00
78
80
70
90
70
80
ENDCHAR
STARTCHAR uni091C094D091E094D092F
ENCODING -1
SWIDTH 975 0
DWIDTH 10 0
BBX 10 8 0 -1
BITMAP
FFC0
0280
7A80
8480
7480
9780
7080
8000
ENDCHAR
STARTCHAR uni0915094D0928
ENCODING -1
SWIDTH 1003 0
DWIDTH 10 0
BBX 10 7 0 0
BITMAP
FFC0
7C80
9280
9380
9280
7080
1080
ENDCHAR
STARTCHAR uni0916094D0928
ENCODING -1
SWIDTH 958 0
DWIDTH 10 0
BBX 10 7 0 0
BITMAP
FFC0
2080
2C80
D780
4C80
4080
2080
ENDCHAR
STARTCHAR uni0917094D0928
ENCODING -1
SWIDTH 736 0
DWIDTH 7 0
BBX 8 7 0 0
BITMAP
FF
42
42
5C
92
02
02
ENDCHAR
STARTCHAR uni0918094D0928
ENCODING -1
SWIDTH 814 0
DWIDTH 8 0
BBX 8 7 0 0
BITMAP
FF
82
62
4E
8A
7A
02
ENDCHAR
STARTCHAR uni091A094D0928
ENCODING -1
SWIDTH 829 0
DWIDTH 8 0
BBX 8 7 0 0
BITMAP
FF
01
E1
4E
49
39
01
ENDCHAR
STARTCHAR uni091B094D0928
ENCODING -1
SWIDTH 977 0
DWIDTH 10 0
BBX 10 7 0 0
BITMAP
FFC0
5880
4880
6B80
4C80
4880
7880
ENDCHAR
STARTCHAR uni091C094D0928
ENCODING -1
SWIDTH 831 0
DWIDTH 8 0
BBX 8 7 0 0
BITMAP
FF
01
7E
29
29
21
E1
ENDCHAR
STARTCHAR uni091D094D0928
ENCODING -1
SWIDTH 935 0
DWIDTH 9 0
BBX 9 8 0 -1
BITMAP
FF80
7080
8080
7F80
1480
9080
7080
8000
ENDCHAR
STARTCHAR uni091F094D0928
ENCODING -1
SWIDTH 494 0
DWIDTH 5 0
BBX 5 10 0 -3
BITMAP
F8
10
70
80
88
88
70
70
90
10
ENDCHAR
STARTCHAR uni0920094D0928
ENCODING -1
SWIDTH 516 0
DWIDTH 5 0
BBX 5 10 0 -3
BITMAP
F8
10
70
88
88
88
70
70
90
10
ENDCHAR
STARTCHAR uni0921094D0928
ENCODING -1
SWIDTH 481 0
DWIDTH 5 0
BBX 5 10 0 -3
BITMAP
F8
10
70
80
70
90
70
70
90
10
ENDCHAR
STARTCHAR uni0924094D0928
ENCODING -1
SWIDTH 756 0
DWIDTH 8 0
BBX 8 7 0 0
BITMAP
FF
02
72
8E
92
82
42
ENDCHAR
STARTCHAR uni0925094D0928
ENCODING -1
SWIDTH 855 0
DWIDTH 9 0
BBX 8 7 1 0
BITMAP
DF
A2
22
CE
92
F2
02
ENDCHAR
STARTCHAR uni0926094D0928
ENCODING -1
SWIDTH 955 0
DWIDTH 10 0
BBX 10 9 0 -2
BITMAP
FFC0
1080
7080
8780
9480
7080
1080
0000
0800
ENDCHAR
STARTCHAR uni0927094D0928
ENCODING -1
SWIDTH 814 0
DWIDTH 8 0
BBX 8 7 0 0
BITMAP
EF
82
62
4E
8A
7A
02
ENDCHAR
STARTCHAR uni0928094D0928
ENCODING -1
SWIDTH 738 0
DWIDTH 7 0
BBX 8 7 0 0
BITMAP
FF
02
02
7C
92
02
02
ENDCHAR
STARTCHAR uni092A094D0928
ENCODING -1
SWIDTH 782 0
DWIDTH 8 0
BBX 8 7 0 0
BITMAP
FF
42
42
4E
72
02
02
ENDCHAR
STARTCHAR uni092B094D0928
ENCODING -1
SWIDTH 1013 0
DWIDTH 10 0
BBX 10 7 0 0
BITMAP
FFC0
4C80
5280
5380
7280
1080
1080
ENDCHAR
STARTCHAR uni092C094D0928
ENCODING -1
SWIDTH 810 0
DWIDTH 8 0
BBX 8 7 0 0
BITMAP
FF
62
42
AE
92
62
02
ENDCHAR
STARTCHAR uni092D094D0928
ENCODING -1
SWIDTH 757 0
DWIDTH 8 0
BBX 8 7 0 0
BITMAP
BF
42
42
7E
52
02
02
ENDCHAR
STARTCHAR uni092E094D0928
ENCODING -1
SWIDTH 757 0
DWIDTH 8 0
BBX 8 7 0 0
BITMAP
FF
42
42
7E
52
02
02
ENDCHAR
STARTCHAR uni092F094D0928
ENCODING -1
SWIDTH 829 0
DWIDTH 8 0
BBX 8 7 0 0
BITMAP
FF
21
41
8E
49
79
01
ENDCHAR
STARTCHAR uni0935094D0928
ENCODING -1
SWIDTH 798 0
DWIDTH 8 0
BBX 8 7 0 0
BITMAP
FF
62
82
8E
8A
72
02
ENDCHAR
STARTCHAR uni0936094D0928
ENCODING -1
SWIDTH 845 0
DWIDTH 8 0
BBX 9 7 0 0
BITMAP
6F80
9100
1100
EF00
4900
4100
2100
ENDCHAR
STARTCHAR uni0938094D0928
ENCODING -1
SWIDTH 831 0
DWIDTH 8 0
BBX 8 7 0 0
BITMAP
FF
21
21
FF
49
41
21
ENDCHAR
STARTCHAR uni0939094D0928
ENCODING -1
SWIDTH 500 0
DWIDTH 5 0
BBX 5 9 0 -2
BITMAP
F8
10
70
40
70
50
A8
40
70
ENDCHAR
STARTCHAR uni0915094D0930
ENCODING -1
SWIDTH 725 0
DWIDTH 7 0
BBX 7 7 0 0
BITMAP
FE
7C
92
92
92
74
70
ENDCHAR
STARTCHAR uni0916094D0930
ENCODING -1
SWIDTH 698 0
DWIDTH 7 0
BBX 7 7 0 0
BITMAP
FE
24
2C
D4
54
4C
3C
ENDCHAR
STARTCHAR uni0917094D0930
ENCODING -1
SWIDTH 494 0
DWIDTH 5 0
BBX 5 7 0 0
BITMAP
F8
50
50
50
90
30
50
ENDCHAR
STARTCHAR uni0918094D0930
ENCODING -1
SWIDTH 559 0
DWIDTH 6 0
BBX 6 7 0 0
BITMAP
FC
88
68
88
88
78
68
ENDCHAR
STARTCHAR uni0919094D0930
ENCODING -1
SWIDTH 505 0
DWIDTH 5 0
BBX 5 9 0 -2
BITMAP
F8
10
70
88
70
10
50
60
50
ENDCHAR
STARTCHAR uni091A094D0930
ENCODING -1
SWIDTH 563 0
DWIDTH 6 0
BBX 6 7 0 0
BITMAP
FC
08
E8
48
48
38
28
ENDCHAR
STARTCHAR uni091B094D0930
ENCODING -1
SWIDTH 581 0
DWIDTH 6 0
BBX 6 8 0 -1
BITMAP
FC
48
58
68
48
48
48
70
ENDCHAR
STARTCHAR uni091C094D0930
ENCODING -1
SWIDTH 547 0
DWIDTH 5 0
BBX 6 7 0 0
BITMAP
FC
08
78
28
28
D8
28
ENDCHAR
STARTCHAR uni091D094D0930
ENCODING -1
SWIDTH 684 0
DWIDTH 7 0
BBX 7 7 0 0
BITMAP
FE
74
84
7C
94
94
7C
ENDCHAR
STARTCHAR uni091E094D0930
ENCODING -1
SWIDTH 598 0
DWIDTH 6 0
BBX 6 7 0 0
BITMAP
FC
48
28
38
28
D8
38
ENDCHAR
STARTCHAR uni091F094D0930
ENCODING -1
SWIDTH 485 0
DWIDTH 5 0
BBX 5 9 0 -2
BITMAP
F8
10
70
80
80
88
50
20
50
ENDCHAR
STARTCHAR uni0920094D0930
ENCODING -1
SWIDTH 512 0
DWIDTH 5 0
BBX 5 8 0 -1
BITMAP
F8
10
70
88
88
88
70
50
ENDCHAR
STARTCHAR uni0921094D0930
ENCODING -1
SWIDTH 475 0
DWIDTH 5 0
BBX 5 8 0 -1
BITMAP
F8
10
70
80
70
90
70
50
ENDCHAR
STARTCHAR uni0922094D0930
ENCODING -1
SWIDTH 485 0
DWIDTH 5 0
BBX 5 8 0 -1
BITMAP
F8
10
70
80
90
A8
70
50
ENDCHAR
STARTCHAR uni0923094D0930
ENCODING -1
SWIDTH 681 0
DWIDTH 7 0
BBX 7 7 0 0
BITMAP
FE
54
54
54
64
0C
14
ENDCHAR
STARTCHAR uni0924094D0930
ENCODING -1
SWIDTH 493 0
DWIDTH 5 0
BBX 5 7 0 0
BITMAP
F8
10
70
90
10
30
50
ENDCHAR
STARTCHAR uni0925094D0930
ENCODING -1
SWIDTH 593 0
DWIDTH 6 0
BBX 5 7 1 0
BITMAP
D8
B0
30
D0
90
F0
50
ENDCHAR
STARTCHAR uni0926094D0930
ENCODING -1
SWIDTH 489 0
DWIDTH 5 0
BBX 5 7 0 0
BITMAP
F8
10
70
80
90
70
30
ENDCHAR
STARTCHAR uni0927094D0930
ENCODING -1
SWIDTH 560 0
DWIDTH 6 0
BBX 6 7 0 0
BITMAP
DC
88
88
68
88
78
28
ENDCHAR
STARTCHAR uni0928094D0930
ENCODING -1
SWIDTH 473 0
DWIDTH 5 0
BBX 5 7 0 0
BITMAP
F8
10
10
70
90
30
50
ENDCHAR
STARTCHAR uni092A094D0930
ENCODING -1
SWIDTH 503 0
DWIDTH 5 0
BBX 5 7 0 0
BITMAP
F8
50
50
50
70
30
50
ENDCHAR
STARTCHAR uni092B094D0930
ENCODING -1
SWIDTH 741 0
DWIDTH 7 0
BBX 8 7 0 0
BITMAP
FF
4C
52
52
72
34
50
ENDCHAR
STARTCHAR uni092C094D0930
ENCODING -1
SWIDTH 491 0
DWIDTH 5 0
BBX 5 7 0 0
BITMAP
F8
70
50
B0
90
70
70
ENDCHAR
STARTCHAR uni092D094D0930
ENCODING -1
SWIDTH 491 0
DWIDTH 5 0
BBX 5 7 0 0
BITMAP
B8
50
50
70
50
30
50
ENDCHAR
STARTCHAR uni092E094D0930
ENCODING -1
SWIDTH 490 0
DWIDTH 5 0
BBX 5 7 0 0
BITMAP
F8
50
50
70
50
30
50
ENDCHAR
STARTCHAR uni092F094D0930
ENCODING -1
SWIDTH 564 0
DWIDTH 6 0
BBX 6 7 0 0
BITMAP
FC
28
48
88
88
78
68
ENDCHAR
STARTCHAR uni0935094D0930
ENCODING -1
SWIDTH 484 0
DWIDTH 5 0
BBX 5 7 0 0
BITMAP
F8
70
90
90
90
70
70
ENDCHAR
STARTCHAR uni0936094D0930
ENCODING -1
SWIDTH 558 0
DWIDTH 6 0
BBX 6 7 0 0
BITMAP
6C
98
68
28
D8
18
68
ENDCHAR
STARTCHAR uni0938094D0930
ENCODING -1
SWIDTH 604 0
DWIDTH 6 0
BBX 6 7 0 0
BITMAP
FC
28
28
F8
58
58
28
ENDCHAR
STARTCHAR uni0939094D0930
ENCODING -1
SWIDTH 505 0
DWIDTH 5 0
BBX 5 9 0 -2
BITMAP
F8
10
70
80
70
90
A8
80
70
ENDCHAR
STARTCHAR uni0915093C094D0930
ENCODING -1
SWIDTH 725 0
DWIDTH 7 0
BBX 7 8 0 -1
BITMAP
FE
7C
92
92
92
74
50
20
ENDCHAR
STARTCHAR uni0916093C094D0930
ENCODING -1
SWIDTH 698 0
DWIDTH 7 0
BBX 7 8 0 -1
BITMAP
FE
24
2C
D4
54
4C
2C
18
ENDCHAR
STARTCHAR uni0917093C094D0930
ENCODING -1
SWIDTH 494 0
DWIDTH 5 0
BBX 5 8 0 -1
BITMAP
F8
50
50
50
90
30
50
20
ENDCHAR
STARTCHAR uni091C093C094D0930
ENCODING -1
SWIDTH 547 0
DWIDTH 5 0
BBX 6 8 0 -1
BITMAP
FC
08
78
28
28
D8
28
80
ENDCHAR
STARTCHAR uni0921093C094D0930
ENCODING -1
SWIDTH 475 0
DWIDTH 5 0
BBX 5 8 0 -1
BITMAP
F8
10
70
80
70
90
70
D0
ENDCHAR
STARTCHAR uni0922093C094D0930
ENCODING -1
SWIDTH 485 0
DWIDTH 5 0
BBX 5 8 0 -1
BITMAP
F8
10
70
80
90
A8
50
F0
ENDCHAR
STARTCHAR uni0928093C094D0930
ENCODING -1
SWIDTH 473 0
DWIDTH 5 0
BBX 5 8 0 -1
BITMAP
F8
10
10
70
90
30
50
40
ENDCHAR
STARTCHAR uni092B093C094D0930
ENCODING -1
SWIDTH 741 0
DWIDTH 7 0
BBX 8 8 0 -1
BITMAP
FF
4C
52
52
72
34
50
20
ENDCHAR
STARTCHAR uni092F093C094D0930
ENCODING -1
SWIDTH 564 0
DWIDTH 6 0
BBX 6 8 0 -1
BITMAP
FC
28
48
88
88
78
28
60
ENDCHAR
STARTCHAR uni0915094D0930094D
ENCODING -1
SWIDTH 518 0
DWIDTH 5 0
BBX 6 7 0 0
BITMAP
FC
7C
90
90
90
70
70
ENDCHAR
STARTCHAR uni0916094D0930094D
ENCODING -1
SWIDTH 469 0
DWIDTH 5 0
BBX 6 7 0 0
BITMAP
FC
20
28
D0
50
4C
38
ENDCHAR
STARTCHAR uni0917094D0930094D
ENCODING -1
SWIDTH 264 0
DWIDTH 3 0
BBX 4 7 0 0
BITMAP
E0
40
40
40
90
20
40
ENDCHAR
STARTCHAR uni0918094D0930094D
ENCODING -1
SWIDTH 319 0
DWIDTH 3 0
BBX 4 7 0 0
BITMAP
F0
80
60
80
80
70
60
ENDCHAR
STARTCHAR uni091A094D0930094D
ENCODING -1
SWIDTH 331 0
DWIDTH 3 0
BBX 5 7 0 0
BITMAP
F0
00
E0
40
48
30
20
ENDCHAR
STARTCHAR uni091C094D0930094D
ENCODING -1
SWIDTH 312 0
DWIDTH 3 0
BBX 4 7 0 0
BITMAP
F0
00
70
20
20
D0
20
ENDCHAR
STARTCHAR uni091D094D0930094D
ENCODING -1
SWIDTH 441 0
DWIDTH 4 0
BBX 6 8 0 -1
BITMAP
F8
10
70
80
7C
94
78
98
ENDCHAR
STARTCHAR uni091E094D0930094D
ENCODING -1
SWIDTH 374 0
DWIDTH 4 0
BBX 5 7 0 0
BITMAP
F8
40
20
38
28
D0
10
ENDCHAR
STARTCHAR uni091F094D0930094D
ENCODING -1
SWIDTH 485 0
DWIDTH 5 0
BBX 5 10 0 -3
BITMAP
F8
10
70
80
88
88
70
50
20
10
ENDCHAR
STARTCHAR uni0920094D0930094D
ENCODING -1
SWIDTH 512 0
DWIDTH 5 0
BBX 5 10 0 -3
BITMAP
F8
10
70
88
88
88
70
50
20
10
ENDCHAR
STARTCHAR uni0921094D0930094D
ENCODING -1
SWIDTH 475 0
DWIDTH 5 0
BBX 5 10 0 -3
BITMAP
F8
10
70
80
70
10
70
50
50
30
ENDCHAR
STARTCHAR uni0922094D0930094D
ENCODING -1
SWIDTH 485 0
DWIDTH 5 0
BBX 5 10 0 -3
BITMAP
F8
10
70
80
90
A8
50
30
70
10
ENDCHAR
STARTCHAR uni0923094D0930094D
ENCODING -1
SWIDTH 457 0
DWIDTH 5 0
BBX 6 7 0 0
BITMAP
F8
50
50
54
68
08
10
ENDCHAR
STARTCHAR uni0924094D0930094D
ENCODING -1
SWIDTH 268 0
DWIDTH 3 0
BBX 4 7 0 0
BITMAP
F0
00
60
90
10
20
40
ENDCHAR
STARTCHAR uni0925094D0930094D
ENCODING -1
SWIDTH 358 0
DWIDTH 4 0
BBX 4 7 1 0
BITMAP
C0
A0
20
C0
90
E0
40
ENDCHAR
STARTCHAR uni0926094D0930094D
ENCODING -1
SWIDTH 489 0
DWIDTH 5 0
BBX 5 9 0 -2
BITMAP
F8
10
70
80
90
70
30
10
10
ENDCHAR
STARTCHAR uni0927094D0930094D
ENCODING -1
SWIDTH 322 0
DWIDTH 3 0
BBX 5 7 0 0
BITMAP
D0
80
80
60
88
70
20
ENDCHAR
STARTCHAR uni0928094D0930094D
ENCODING -1
SWIDTH 247 0
DWIDTH 2 0
BBX 4 7 0 0
BITMAP
F0
00
00
70
90
20
40
ENDCHAR
STARTCHAR uni092A094D0930094D
ENCODING -1
SWIDTH 270 0
DWIDTH 3 0
BBX 4 7 0 0
BITMAP
E0
40
40
40
70
20
40
ENDCHAR
STARTCHAR uni092B094D0930094D
ENCODING -1
SWIDTH 523 0
DWIDTH 5 0
BBX 7 7 0 0
BITMAP
FC
9C
92
90
70
30
50
ENDCHAR
STARTCHAR uni092C094D0930094D
ENCODING -1
SWIDTH 267 0
DWIDTH 3 0
BBX 4 7 0 0
BITMAP
F0
60
40
A0
90
60
60
ENDCHAR
STARTCHAR uni092D094D0930094D
ENCODING -1
SWIDTH 257 0
DWIDTH 3 0
BBX 4 7 0 0
BITMAP
B0
40
40
70
50
20
40
ENDCHAR
STARTCHAR uni092E094D0930094D
ENCODING -1
SWIDTH 261 0
DWIDTH 3 0
BBX 4 7 0 0
BITMAP
F0
40
40
70
50
20
40
ENDCHAR
STARTCHAR uni092F094D0930094D
ENCODING -1
SWIDTH 323 0
DWIDTH 3 0
BBX 5 7 0 0
BITMAP
F0
20
40
80
88
70
60
ENDCHAR
STARTCHAR uni0935094D0930094D
ENCODING -1
SWIDTH 255 0
DWIDTH 3 0
BBX 4 7 0 0
BITMAP
E0
60
80
80
90
60
60
ENDCHAR
STARTCHAR uni0938094D0930094D
ENCODING -1
SWIDTH 347 0
DWIDTH 3 0
BBX 5 7 0 0
BITMAP
F0
20
20
F8
50
50
20
ENDCHAR
STARTCHAR uni0915093C094D0930094D
ENCODING -1
SWIDTH 518 0
DWIDTH 5 0
BBX 6 8 0 -1
BITMAP
FC
7C
90
90
90
70
50
20
ENDCHAR
STARTCHAR uni0916093C094D0930094D
ENCODING -1
SWIDTH 466 0
DWIDTH 5 0
BBX 6 8 0 -1
BITMAP
FC
20
28
D0
50
4C
28
18
ENDCHAR
STARTCHAR uni0917093C094D0930094D
ENCODING -1
SWIDTH 264 0
DWIDTH 3 0
BBX 4 8 0 -1
BITMAP
E0
40
40
40
90
20
40
20
ENDCHAR
STARTCHAR uni091C093C094D0930094D
ENCODING -1
SWIDTH 320 0
DWIDTH 3 0
BBX 4 8 0 -1
BITMAP
F0
00
70
20
20
D0
20
80
ENDCHAR
STARTCHAR uni0928093C094D0930094D
ENCODING -1
SWIDTH 247 0
DWIDTH 2 0
BBX 4 8 0 -1
BITMAP
F0
00
00
70
90
20
40
20
ENDCHAR
STARTCHAR uni092B093C094D0930094D
ENCODING -1
SWIDTH 523 0
DWIDTH 5 0
BBX 7 8 0 -1
BITMAP
FC
9C
92
90
70
30
50
20
ENDCHAR
STARTCHAR uni092F093C094D0930094D
ENCODING -1
SWIDTH 323 0
DWIDTH 3 0
BBX 5 8 0 -1
BITMAP
F0
20
40
80
88
70
20
50
ENDCHAR
STARTCHAR uni0915094D0915
ENCODING -1
SWIDTH 1255 0
DWIDTH 13 0
BBX 13 7 0 0
BITMAP
FFF8
7F60
9290
9290
9290
71A0
1080
ENDCHAR
STARTCHAR uni0915094D0916
ENCODING -1
SWIDTH 1256 0
DWIDTH 13 0
BBX 13 7 0 0
BITMAP
FFF8
7D10
9350
9350
9250
7130
1110
ENDCHAR
STARTCHAR uni0915094D091A
ENCODING -1
SWIDTH 1086 0
DWIDTH 11 0
BBX 11 7 0 0
BITMAP
FFE0
7C40
9340
9240
9240
71C0
1040
ENDCHAR
STARTCHAR uni0915094D091C
ENCODING -1
SWIDTH 1071 0
DWIDTH 11 0
BBX 11 7 0 0
BITMAP
FFE0
7040
9FC0
9140
9140
7340
1040
ENDCHAR
STARTCHAR uni0915094D091F
ENCODING -1
SWIDTH 984 0
DWIDTH 10 0
BBX 10 7 0 0
BITMAP
FFC0
7C80
9380
9400
9440
7440
1380
ENDCHAR
STARTCHAR uni0915094D0923
ENCODING -1
SWIDTH 1183 0
DWIDTH 12 0
BBX 12 7 0 0
BITMAP
FFF0
72A0
9CA0
92A0
9320
7020
1020
ENDCHAR
STARTCHAR uni0915094D0924
ENCODING -1
SWIDTH 761 0
DWIDTH 8 0
BBX 8 7 0 0
BITMAP
FF
08
7C
4A
4A
2C
08
ENDCHAR
STARTCHAR uni0915094D0925
ENCODING -1
SWIDTH 1118 0
DWIDTH 11 0
BBX 11 7 0 0
BITMAP
FB20
70A0
9F20
9220
9240
71A0
1020
ENDCHAR
STARTCHAR uni0915094D0926
ENCODING -1
SWIDTH 1009 0
DWIDTH 10 0
BBX 10 7 0 0
BITMAP
FFC0
7C80
9380
9200
9240
7380
1040
ENDCHAR
STARTCHAR uni0915094D092A
ENCODING -1
SWIDTH 1007 0
DWIDTH 10 0
BBX 10 7 0 0
BITMAP
FFC0
7280
9C80
9280
9380
7080
1080
ENDCHAR
STARTCHAR uni0915094D092B
ENCODING -1
SWIDTH 1242 0
DWIDTH 12 0
BBX 13 7 0 0
BITMAP
FFF8
7260
9C90
9290
9390
70A0
1080
ENDCHAR
STARTCHAR uni0915094D092E
ENCODING -1
SWIDTH 994 0
DWIDTH 10 0
BBX 10 7 0 0
BITMAP
FFC0
7280
9C80
9380
9280
7080
1080
ENDCHAR
STARTCHAR uni0915094D092F
ENCODING -1
SWIDTH 1076 0
DWIDTH 11 0
BBX 11 7 0 0
BITMAP
FFE0
7140
9E40
9240
9240
71C0
1040
ENDCHAR
STARTCHAR uni0915094D0932
ENCODING -1
SWIDTH 1178 0
DWIDTH 12 0
BBX 12 7 0 0
BITMAP
FFF0
7C20
9360
94A0
94A0
7420
1320
ENDCHAR
STARTCHAR uni0915094D0935
ENCODING -1
SWIDTH 1013 0
DWIDTH 10 0
BBX 10 7 0 0
BITMAP
FFC0
7D80
9280
9280
9280
7180
1080
ENDCHAR
STARTCHAR uni0915094D0936
ENCODING -1
SWIDTH 1194 0
DWIDTH 12 0
BBX 12 7 0 0
BITMAP
FDB0
72A0
9CA0
93A0
9220
7120
10A0
ENDCHAR
STARTCHAR uni0915094D0938
ENCODING -1
SWIDTH 1143 0
DWIDTH 11 0
BBX 12 7 0 0
BITMAP
FFF0
7D20
9320
93E0
9220
7120
1120
ENDCHAR
STARTCHAR uni0916094D0916
ENCODING -1
SWIDTH 1223 0
DWIDTH 12 0
BBX 12 7 0 0
BITMAP
FFF0
2110
2950
D290
5290
4E60
2110
ENDCHAR
STARTCHAR uni0916094D0924
ENCODING -1
SWIDTH 984 0
DWIDTH 10 0
BBX 10 7 0 0
BITMAP
FFC0
2080
2B80
D480
5480
4C80
2280
ENDCHAR
STARTCHAR uni0916094D092E
ENCODING -1
SWIDTH 965 0
DWIDTH 10 0
BBX 10 7 0 0
BITMAP
FFC0
2480
2C80
D380
5480
4C80
2080
ENDCHAR
STARTCHAR uni0916094D092F
ENCODING -1
SWIDTH 1047 0
DWIDTH 10 0
BBX 11 7 0 0
BITMAP
FFE0
2140
3A40
D440
5440
4BC0
2040
ENDCHAR
STARTCHAR uni0916094D0935
ENCODING -1
SWIDTH 975 0
DWIDTH 10 0
BBX 10 7 0 0
BITMAP
FFC0
2380
2C80
D480
5480
4B80
2080
ENDCHAR
STARTCHAR uni0916094D0936
ENCODING -1
SWIDTH 1123 0
DWIDTH 11 0
BBX 11 7 0 0
BITMAP
FB20
22A0
28A0
D720
5420
4A20
2120
ENDCHAR
STARTCHAR uni0917094D0917
ENCODING -1
SWIDTH 744 0
DWIDTH 7 0
BBX 8 7 0 0
BITMAP
FF
4A
4A
4A
92
02
02
ENDCHAR
STARTCHAR uni0917094D0918
ENCODING -1
SWIDTH 823 0
DWIDTH 8 0
BBX 8 7 0 0
BITMAP
FF
51
49
51
91
0E
01
ENDCHAR
STARTCHAR uni0917094D091C
ENCODING -1
SWIDTH 801 0
DWIDTH 8 0
BBX 8 7 0 0
BITMAP
FF
42
5E
46
86
1A
02
ENDCHAR
STARTCHAR uni0917094D0923
ENCODING -1
SWIDTH 945 0
DWIDTH 9 0
BBX 10 7 0 0
BITMAP
FFC0
5280
5280
5280
8C80
0080
0080
ENDCHAR
STARTCHAR uni0917094D0926
ENCODING -1
SWIDTH 748 0
DWIDTH 7 0
BBX 8 7 0 0
BITMAP
FF
42
4E
50
92
0E
02
ENDCHAR
STARTCHAR uni0917094D0927
ENCODING -1
SWIDTH 823 0
DWIDTH 8 0
BBX 8 7 0 0
BITMAP
FB
51
51
49
91
0E
01
ENDCHAR
STARTCHAR uni0917094D092C
ENCODING -1
SWIDTH 755 0
DWIDTH 8 0
BBX 8 7 0 0
BITMAP
FF
4A
52
5A
96
0E
02
ENDCHAR
STARTCHAR uni0917094D092D
ENCODING -1
SWIDTH 755 0
DWIDTH 8 0
BBX 8 7 0 0
BITMAP
F7
52
52
5E
92
02
02
ENDCHAR
STARTCHAR uni0917094D092E
ENCODING -1
SWIDTH 754 0
DWIDTH 8 0
BBX 8 7 0 0
BITMAP
FF
52
52
5E
92
02
02
ENDCHAR
STARTCHAR uni0917094D092F
ENCODING -1
SWIDTH 828 0
DWIDTH 8 0
BBX 8 7 0 0
BITMAP
FF
45
59
51
91
0E
01
ENDCHAR
STARTCHAR uni0917094D0932
ENCODING -1
SWIDTH 924 0
DWIDTH 9 0
BBX 9 7 0 0
BITMAP
FF80
4080
4B00
5480
9480
1080
1880
ENDCHAR
STARTCHAR uni0917094D0935
ENCODING -1
SWIDTH 747 0
DWIDTH 7 0
BBX 8 7 0 0
BITMAP
FF
4A
52
52
92
0E
02
ENDCHAR
STARTCHAR uni0917094D0938
ENCODING -1
SWIDTH 839 0
DWIDTH 8 0
BBX 9 7 0 0
BITMAP
FF80
4900
4900
5E00
9100
0900
0900
ENDCHAR
STARTCHAR uni0918094D092E
ENCODING -1
SWIDTH 818 0
DWIDTH 8 0
BBX 8 7 0 0
BITMAP
FF
89
69
8E
89
71
01
ENDCHAR
STARTCHAR uni0918094D092F
ENCODING -1
SWIDTH 867 0
DWIDTH 9 0
BBX 9 7 0 0
BITMAP
FF80
8500
6900
9100
8900
7700
0100
ENDCHAR
STARTCHAR uni091A094D091A
ENCODING -1
SWIDTH 868 0
DWIDTH 9 0
BBX 9 7 0 0
BITMAP
FF80
0100
ED00
4900
4900
3700
0100
ENDCHAR
STARTCHAR uni091A094D091B
ENCODING -1
SWIDTH 922 0
DWIDTH 9 0
BBX 9 7 0 0
BITMAP
FF80
0900
E900
4480
4880
4880
2F00
ENDCHAR
STARTCHAR uni091A094D092E
ENCODING -1
SWIDTH 830 0
DWIDTH 8 0
BBX 8 7 0 0
BITMAP
FF
09
E9
4E
49
31
01
ENDCHAR
STARTCHAR uni091A094D092F
ENCODING -1
SWIDTH 904 0
DWIDTH 9 0
BBX 9 7 0 0
BITMAP
FF80
0500
ED00
4900
4900
3700
0100
ENDCHAR
STARTCHAR uni091B094D092F
ENCODING -1
SWIDTH 1068 0
DWIDTH 11 0
BBX 11 7 0 0
BITMAP
FFE0
5F40
4940
6B40
4A40
49C0
7840
ENDCHAR
STARTCHAR uni091B094D0935
ENCODING -1
SWIDTH 581 0
DWIDTH 6 0
BBX 6 8 0 -1
BITMAP
FC
58
68
48
48
78
48
70
ENDCHAR
STARTCHAR uni091C094D0915
ENCODING -1
SWIDTH 1054 0
DWIDTH 11 0
BBX 11 7 0 0
BITMAP
FFE0
0D80
7240
2A40
2A40
CE80
0200
ENDCHAR
STARTCHAR uni091C094D091C
ENCODING -1
SWIDTH 903 0
DWIDTH 9 0
BBX 9 7 0 0
BITMAP
FF80
0100
7700
2300
2300
CD00
0100
ENDCHAR
STARTCHAR uni091C094D091D
ENCODING -1
SWIDTH 990 0
DWIDTH 10 0
BBX 10 7 0 0
BITMAP
FFC0
0E80
7080
2F80
2280
CA80
0E80
ENDCHAR
STARTCHAR uni091C094D091F
ENCODING -1
SWIDTH 815 0
DWIDTH 8 0
BBX 8 7 0 0
BITMAP
FF
02
76
28
28
29
CE
ENDCHAR
STARTCHAR uni091C094D0921
ENCODING -1
SWIDTH 797 0
DWIDTH 8 0
BBX 8 7 0 0
BITMAP
FF
02
7E
28
2E
C9
0E
ENDCHAR
STARTCHAR uni091C094D0924
ENCODING -1
SWIDTH 830 0
DWIDTH 8 0
BBX 8 7 0 0
BITMAP
FF
01
76
29
29
C9
0D
ENDCHAR
STARTCHAR uni091C094D0926
ENCODING -1
SWIDTH 817 0
DWIDTH 8 0
BBX 8 7 0 0
BITMAP
FF
01
7E
28
29
C6
01
ENDCHAR
STARTCHAR uni091C094D092C
ENCODING -1
SWIDTH 820 0
DWIDTH 8 0
BBX 8 7 0 0
BITMAP
FF
05
79
2D
2A
CE
01
ENDCHAR
STARTCHAR uni091C094D092E
ENCODING -1
SWIDTH 813 0
DWIDTH 8 0
BBX 8 7 0 0
BITMAP
FF
0A
7A
2E
2A
C2
02
ENDCHAR
STARTCHAR uni091C094D092F
ENCODING -1
SWIDTH 893 0
DWIDTH 9 0
BBX 9 7 0 0
BITMAP
FF80
0500
7D00
2900
2900
C700
0100
ENDCHAR
STARTCHAR uni091C094D0935
ENCODING -1
SWIDTH 813 0
DWIDTH 8 0
BBX 8 7 0 0
BITMAP
FF
0E
72
2A
2A
CE
02
ENDCHAR
STARTCHAR uni091D094D092E
ENCODING -1
SWIDTH 936 0
DWIDTH 9 0
BBX 10 8 0 -1
BITMAP
FFC0
7480
8480
7F00
1480
9080
7080
8000
ENDCHAR
STARTCHAR uni091D094D092F
ENCODING -1
SWIDTH 1000 0
DWIDTH 10 0
BBX 10 8 0 -1
BITMAP
FFC0
7280
8680
7C80
1480
9380
7080
8000
ENDCHAR
STARTCHAR uni091E094D091B
ENCODING -1
SWIDTH 913 0
DWIDTH 9 0
BBX 9 7 0 0
BITMAP
FF80
0900
6900
2C80
3880
E880
0F00
ENDCHAR
STARTCHAR uni091E094D091C
ENCODING -1
SWIDTH 932 0
DWIDTH 9 0
BBX 9 7 0 0
BITMAP
FF80
0080
4700
2280
3280
EC80
0080
ENDCHAR
STARTCHAR uni091E094D0936
ENCODING -1
SWIDTH 975 0
DWIDTH 10 0
BBX 10 7 0 0
BITMAP
FEC0
4A80
2280
3C80
2880
C480
0480
ENDCHAR
STARTCHAR uni091F094D091F
ENCODING -1
SWIDTH 494 0
DWIDTH 5 0
BBX 5 11 0 -4
BITMAP
F8
10
70
80
88
70
70
80
80
88
70
ENDCHAR
STARTCHAR uni091F094D0920
ENCODING -1
SWIDTH 495 0
DWIDTH 5 0
BBX 5 11 0 -4
BITMAP
F8
10
70
80
88
70
30
50
88
88
70
ENDCHAR
STARTCHAR uni091F094D092F
ENCODING -1
SWIDTH 990 0
DWIDTH 10 0
BBX 10 7 0 0
BITMAP
FFC0
1080
7E80
8180
8E80
8C80
7380
ENDCHAR
STARTCHAR uni091F094D0935
ENCODING -1
SWIDTH 501 0
DWIDTH 5 0
BBX 5 8 0 -1
BITMAP
F8
10
70
80
88
70
50
70
ENDCHAR
STARTCHAR uni0920094D092F
ENCODING -1
SWIDTH 998 0
DWIDTH 10 0
BBX 10 7 0 0
BITMAP
FFC0
1080
7E80
8980
8E80
8C80
7380
ENDCHAR
STARTCHAR uni0921094D0921
ENCODING -1
SWIDTH 493 0
DWIDTH 5 0
BBX 5 11 0 -4
BITMAP
F8
70
80
70
90
70
80
70
10
90
70
ENDCHAR
STARTCHAR uni0921094D0922
ENCODING -1
SWIDTH 493 0
DWIDTH 5 0
BBX 5 10 0 -3
BITMAP
F8
10
70
80
70
90
70
A8
88
70
ENDCHAR
STARTCHAR uni0921094D092F
ENCODING -1
SWIDTH 973 0
DWIDTH 10 0
BBX 10 7 0 0
BITMAP
FFC0
1080
7E80
8280
7680
9380
7080
ENDCHAR
STARTCHAR uni0921094D0935
ENCODING -1
SWIDTH 493 0
DWIDTH 5 0
BBX 5 9 0 -2
BITMAP
F8
70
80
70
90
70
50
50
70
ENDCHAR
STARTCHAR uni0922094D092F
ENCODING -1
SWIDTH 981 0
DWIDTH 10 0
BBX 10 7 0 0
BITMAP
FFC0
1080
7E80
9280
AE80
AC80
7380
ENDCHAR
STARTCHAR uni0923094D091F
ENCODING -1
SWIDTH 908 0
DWIDTH 9 0
BBX 9 7 0 0
BITMAP
FF80
5100
5700
5400
5400
6480
0700
ENDCHAR
STARTCHAR uni0923094D0920
ENCODING -1
SWIDTH 936 0
DWIDTH 9 0
BBX 10 7 0 0
BITMAP
FFC0
5100
5300
5480
5480
6480
0700
ENDCHAR
STARTCHAR uni0923094D0921
ENCODING -1
SWIDTH 892 0
DWIDTH 9 0
BBX 9 7 0 0
BITMAP
FF80
5100
5700
5400
6300
0480
0700
ENDCHAR
STARTCHAR uni0923094D0922
ENCODING -1
SWIDTH 908 0
DWIDTH 9 0
BBX 9 7 0 0
BITMAP
FF80
5100
5300
5400
5500
2680
0700
ENDCHAR
STARTCHAR uni0923094D0923
ENCODING -1
SWIDTH 1127 0
DWIDTH 11 0
BBX 11 7 0 0
BITMAP
FFE0
5520
5520
5520
6320
0020
0020
ENDCHAR
STARTCHAR uni0923094D092E
ENCODING -1
SWIDTH 932 0
DWIDTH 9 0
BBX 9 7 0 0
BITMAP
FF80
5480
5480
5700
6480
0080
0080
ENDCHAR
STARTCHAR uni0923094D092F
ENCODING -1
SWIDTH 998 0
DWIDTH 10 0
BBX 10 7 0 0
BITMAP
FFC0
5280
5680
5480
6480
0380
0080
ENDCHAR
STARTCHAR uni0923094D0935
ENCODING -1
SWIDTH 923 0
DWIDTH 9 0
BBX 9 7 0 0
BITMAP
FF80
5280
5480
5480
6480
0300
0080
ENDCHAR
STARTCHAR uni0924094D0915
ENCODING -1
SWIDTH 992 0
DWIDTH 10 0
BBX 10 7 0 0
BITMAP
FFC0
0B80
7240
9240
9240
8F80
4200
ENDCHAR
STARTCHAR uni0924094D0916
ENCODING -1
SWIDTH 1014 0
DWIDTH 10 0
BBX 10 7 0 0
BITMAP
FFC0
0480
7580
8A80
8A80
8980
4480
ENDCHAR
STARTCHAR uni0924094D0924
ENCODING -1
SWIDTH 542 0
DWIDTH 5 0
BBX 6 7 0 0
BITMAP
FC
08
F8
48
48
48
68
ENDCHAR
STARTCHAR uni0924094D0925
ENCODING -1
SWIDTH 869 0
DWIDTH 9 0
BBX 9 7 0 0
BITMAP
ED80
0500
7D00
9100
9100
8F00
4100
ENDCHAR
STARTCHAR uni0924094D092A
ENCODING -1
SWIDTH 757 0
DWIDTH 8 0
BBX 8 7 0 0
BITMAP
FF
12
72
92
8E
82
42
ENDCHAR
STARTCHAR uni0924094D092B
ENCODING -1
SWIDTH 992 0
DWIDTH 10 0
BBX 10 7 0 0
BITMAP
FFC0
1380
7240
9240
8E40
8380
4200
ENDCHAR
STARTCHAR uni0924094D092E
ENCODING -1
SWIDTH 764 0
DWIDTH 8 0
BBX 8 7 0 0
BITMAP
FF
12
72
8E
92
82
42
ENDCHAR
STARTCHAR uni0924094D092F
ENCODING -1
SWIDTH 830 0
DWIDTH 8 0
BBX 8 7 0 0
BITMAP
FF
05
79
91
91
8E
41
ENDCHAR
STARTCHAR uni0924094D0932
ENCODING -1
SWIDTH 957 0
DWIDTH 10 0
BBX 10 7 0 0
BITMAP
FFC0
0080
6F80
9280
9280
9080
4C80
ENDCHAR
STARTCHAR uni0924094D0935
ENCODING -1
SWIDTH 751 0
DWIDTH 8 0
BBX 8 7 0 0
BITMAP
FF
0A
72
92
92
8E
42
ENDCHAR
STARTCHAR uni0924094D0938
ENCODING -1
SWIDTH 876 0
DWIDTH 9 0
BBX 9 7 0 0
BITMAP
FF80
0500
6500
9F00
8900
8900
4500
ENDCHAR
STARTCHAR uni0925094D092F
ENCODING -1
SWIDTH 931 0
DWIDTH 9 0
BBX 8 7 1 0
BITMAP
DF
A5
39
D1
91
EE
01
ENDCHAR
STARTCHAR uni0925094D0935
ENCODING -1
SWIDTH 862 0
DWIDTH 9 0
BBX 8 7 1 0
BITMAP
DF
AA
32
D2
92
EE
02
ENDCHAR
STARTCHAR uni0926094D0917
ENCODING -1
SWIDTH 489 0
DWIDTH 5 0
BBX 5 8 0 -1
BITMAP
F8
70
80
80
90
70
30
40
ENDCHAR
STARTCHAR uni0926094D0918
ENCODING -1
SWIDTH 686 0
DWIDTH 7 0
BBX 7 8 0 -1
BITMAP
FE
04
78
A0
64
9C
94
60
ENDCHAR
STARTCHAR uni0926094D0926
ENCODING -1
SWIDTH 506 0
DWIDTH 5 0
BBX 5 8 0 -1
BITMAP
F8
10
70
40
60
48
70
08
ENDCHAR
STARTCHAR uni0926094D0927
ENCODING -1
SWIDTH 686 0
DWIDTH 7 0
BBX 7 8 0 -1
BITMAP
FE
04
58
A0
64
9C
94
60
ENDCHAR
STARTCHAR uni0926094D092C
ENCODING -1
SWIDTH 481 0
DWIDTH 5 0
BBX 5 9 0 -2
BITMAP
F8
10
70
80
90
70
70
70
70
ENDCHAR
STARTCHAR uni0926094D092D
ENCODING -1
SWIDTH 499 0
DWIDTH 5 0
BBX 5 9 0 -2
BITMAP
F8
70
80
90
70
90
50
70
50
ENDCHAR
STARTCHAR uni0926094D092E
ENCODING -1
SWIDTH 706 0
DWIDTH 7 0
BBX 7 7 0 0
BITMAP
FE
74
84
84
74
1C
14
ENDCHAR
STARTCHAR uni0926094D092F
ENCODING -1
SWIDTH 583 0
DWIDTH 6 0
BBX 6 7 0 0
BITMAP
FC
68
88
68
48
88
78
ENDCHAR
STARTCHAR uni0926094D0935
ENCODING -1
SWIDTH 483 0
DWIDTH 5 0
BBX 5 9 0 -2
BITMAP
F8
10
70
80
90
70
50
50
70
ENDCHAR
STARTCHAR uni0927094D092E
ENCODING -1
SWIDTH 817 0
DWIDTH 8 0
BBX 8 7 0 0
BITMAP
DF
89
69
8E
89
71
01
ENDCHAR
STARTCHAR uni0927094D092F
ENCODING -1
SWIDTH 886 0
DWIDTH 9 0
BBX 9 7 0 0
BITMAP
DF80
8500
6900
8900
8900
7700
0100
ENDCHAR
STARTCHAR uni0927094D0935
ENCODING -1
SWIDTH 810 0
DWIDTH 8 0
BBX 8 7 0 0
BITMAP
DF
8E
6A
8A
8A
76
02
ENDCHAR
STARTCHAR uni0928094D0915
ENCODING -1
SWIDTH 973 0
DWIDTH 10 0
BBX 10 7 0 0
BITMAP
FFC0
0B80
1280
7280
9280
0D80
0200
ENDCHAR
STARTCHAR uni0928094D091A
ENCODING -1
SWIDTH 820 0
DWIDTH 8 0
BBX 8 7 0 0
BITMAP
FF
01
1D
71
91
0E
01
ENDCHAR
STARTCHAR uni0928094D091B
ENCODING -1
SWIDTH 781 0
DWIDTH 8 0
BBX 8 7 0 0
BITMAP
FF
12
16
7A
92
12
1E
ENDCHAR
STARTCHAR uni0928094D091F
ENCODING -1
SWIDTH 715 0
DWIDTH 7 0
BBX 7 7 0 0
BITMAP
FE
04
0C
70
90
12
1C
ENDCHAR
STARTCHAR uni0928094D0921
ENCODING -1
SWIDTH 705 0
DWIDTH 7 0
BBX 7 7 0 0
BITMAP
FE
04
1C
70
9C
02
1C
ENDCHAR
STARTCHAR uni0928094D0924
ENCODING -1
SWIDTH 717 0
DWIDTH 7 0
BBX 7 7 0 0
BITMAP
FE
02
1C
62
92
12
1A
ENDCHAR
STARTCHAR uni0928094D0925
ENCODING -1
SWIDTH 804 0
DWIDTH 8 0
BBX 8 7 0 0
BITMAP
DB
16
06
7A
A2
1E
02
ENDCHAR
STARTCHAR uni0928094D0926
ENCODING -1
SWIDTH 724 0
DWIDTH 7 0
BBX 7 7 0 0
BITMAP
FE
02
0C
70
92
1C
02
ENDCHAR
STARTCHAR uni0928094D0927
ENCODING -1
SWIDTH 753 0
DWIDTH 8 0
BBX 8 7 0 0
BITMAP
F7
22
22
7A
A2
1E
02
ENDCHAR
STARTCHAR uni0928094D092A
ENCODING -1
SWIDTH 742 0
DWIDTH 7 0
BBX 8 7 0 0
BITMAP
FF
12
12
72
8E
02
02
ENDCHAR
STARTCHAR uni0928094D092B
ENCODING -1
SWIDTH 970 0
DWIDTH 10 0
BBX 10 7 0 0
BITMAP
FFC0
1300
1280
7280
8C80
0300
0200
ENDCHAR
STARTCHAR uni0928094D092D
ENCODING -1
SWIDTH 739 0
DWIDTH 7 0
BBX 8 7 0 0
BITMAP
F7
12
12
7C
92
02
02
ENDCHAR
STARTCHAR uni0928094D092E
ENCODING -1
SWIDTH 735 0
DWIDTH 7 0
BBX 7 7 0 0
BITMAP
FE
12
12
7C
92
02
02
ENDCHAR
STARTCHAR uni0928094D092F
ENCODING -1
SWIDTH 801 0
DWIDTH 8 0
BBX 8 7 0 0
BITMAP
FF
0A
7A
92
12
0E
02
ENDCHAR
STARTCHAR uni0928094D0935
ENCODING -1
SWIDTH 732 0
DWIDTH 7 0
BBX 7 7 0 0
BITMAP
FE
0A
12
72
92
0C
02
ENDCHAR
STARTCHAR uni0928094D0938
ENCODING -1
SWIDTH 867 0
DWIDTH 9 0
BBX 9 7 0 0
BITMAP
FF80
0500
6500
9F00
9100
0900
0900
ENDCHAR
STARTCHAR uni0928094D0939
ENCODING -1
SWIDTH 714 0
DWIDTH 7 0
BBX 7 8 0 -1
BITMAP
FE
0C
10
70
8C
12
10
0C
ENDCHAR
STARTCHAR uni092A094D091F
ENCODING -1
SWIDTH 489 0
DWIDTH 5 0
BBX 5 7 0 0
BITMAP
F8
50
50
70
80
88
70
ENDCHAR
STARTCHAR uni092A094D0920
ENCODING -1
SWIDTH 506 0
DWIDTH 5 0
BBX 5 7 0 0
BITMAP
F8
48
50
70
88
88
70
ENDCHAR
STARTCHAR uni092A094D0924
ENCODING -1
SWIDTH 495 0
DWIDTH 5 0
BBX 5 7 0 0
BITMAP
F8
90
90
70
90
90
50
ENDCHAR
STARTCHAR uni092A094D092A
ENCODING -1
SWIDTH 770 0
DWIDTH 8 0
BBX 8 7 0 0
BITMAP
FF
52
52
52
6E
02
02
ENDCHAR
STARTCHAR uni092A094D092B
ENCODING -1
SWIDTH 1003 0
DWIDTH 10 0
BBX 10 7 0 0
BITMAP
FFC0
5380
5240
5240
6E40
0380
0200
ENDCHAR
STARTCHAR uni092A094D092E
ENCODING -1
SWIDTH 774 0
DWIDTH 8 0
BBX 8 7 0 0
BITMAP
FF
52
52
4E
72
02
02
ENDCHAR
STARTCHAR uni092A094D092F
ENCODING -1
SWIDTH 855 0
DWIDTH 9 0
BBX 9 7 0 0
BITMAP
FF80
4500
4900
5100
7100
0F00
0100
ENDCHAR
STARTCHAR uni092A094D0932
ENCODING -1
SWIDTH 960 0
DWIDTH 10 0
BBX 10 7 0 0
BITMAP
FFC0
4080
4F80
5280
7080
1080
0C80
ENDCHAR
STARTCHAR uni092A094D0935
ENCODING -1
SWIDTH 780 0
DWIDTH 8 0
BBX 8 7 0 0
BITMAP
FF
4E
52
52
72
0E
02
ENDCHAR
STARTCHAR uni092A094D0938
ENCODING -1
SWIDTH 880 0
DWIDTH 9 0
BBX 9 7 0 0
BITMAP
FF80
4500
4500
5F00
6900
0900
0500
ENDCHAR
STARTCHAR uni092B094D091C
ENCODING -1
SWIDTH 1100 0
DWIDTH 11 0
BBX 11 7 0 0
BITMAP
FFE0
5040
4DC0
50C0
70C0
1340
1040
ENDCHAR
STARTCHAR uni092B094D091F
ENCODING -1
SWIDTH 1006 0
DWIDTH 10 0
BBX 10 7 0 0
BITMAP
FFC0
4C80
5380
5200
7240
1240
1380
ENDCHAR
STARTCHAR uni092B094D0924
ENCODING -1
SWIDTH 1034 0
DWIDTH 10 0
BBX 10 7 0 0
BITMAP
FFC0
4C40
5380
5240
7240
1240
1340
ENDCHAR
STARTCHAR uni092B094D092A
ENCODING -1
SWIDTH 1021 0
DWIDTH 10 0
BBX 10 7 0 0
BITMAP
FFC0
5240
4C40
5240
7380
1040
1040
ENDCHAR
STARTCHAR uni092B094D092B
ENCODING -1
SWIDTH 1256 0
DWIDTH 13 0
BBX 13 7 0 0
BITMAP
FFF8
5260
4C90
5290
7390
10A0
1080
ENDCHAR
STARTCHAR uni092B094D092F
ENCODING -1
SWIDTH 1120 0
DWIDTH 11 0
BBX 11 7 0 0
BITMAP
FFE0
5140
4F40
5240
7240
11C0
1040
ENDCHAR
STARTCHAR uni092B094D0932
ENCODING -1
SWIDTH 1202 0
DWIDTH 12 0
BBX 12 7 0 0
BITMAP
FFF0
4C20
5360
52A0
72A0
1220
1320
ENDCHAR
STARTCHAR uni092B094D0936
ENCODING -1
SWIDTH 1211 0
DWIDTH 12 0
BBX 12 7 0 0
BITMAP
FDB0
4E60
5260
53A0
7220
1120
1120
ENDCHAR
STARTCHAR uni092C094D091C
ENCODING -1
SWIDTH 883 0
DWIDTH 9 0
BBX 9 7 0 0
BITMAP
FF80
0100
6F00
A500
9500
7D00
0100
ENDCHAR
STARTCHAR uni092C094D091D
ENCODING -1
SWIDTH 962 0
DWIDTH 10 0
BBX 10 8 0 -1
BITMAP
FFC0
6C80
5080
AF80
9280
6280
0E80
0800
ENDCHAR
STARTCHAR uni092C094D0924
ENCODING -1
SWIDTH 786 0
DWIDTH 8 0
BBX 8 7 0 0
BITMAP
FF
62
4E
B2
92
72
0A
ENDCHAR
STARTCHAR uni092C094D0926
ENCODING -1
SWIDTH 775 0
DWIDTH 8 0
BBX 8 7 0 0
BITMAP
FF
62
4E
B0
92
6E
02
ENDCHAR
STARTCHAR uni092C094D0927
ENCODING -1
SWIDTH 844 0
DWIDTH 8 0
BBX 9 7 0 0
BITMAP
FB80
7100
5100
AD00
9100
6F00
0100
ENDCHAR
STARTCHAR uni092C094D092C
ENCODING -1
SWIDTH 783 0
DWIDTH 8 0
BBX 8 7 0 0
BITMAP
FF
6E
4A
B6
92
6E
02
ENDCHAR
STARTCHAR uni092C094D092D
ENCODING -1
SWIDTH 764 0
DWIDTH 8 0
BBX 8 7 0 0
BITMAP
F7
72
52
AE
92
62
02
ENDCHAR
STARTCHAR uni092C094D092F
ENCODING -1
SWIDTH 852 0
DWIDTH 9 0
BBX 9 7 0 0
BITMAP
FF80
6500
4900
B100
9100
6F00
0100
ENDCHAR
STARTCHAR uni092C094D0932
ENCODING -1
SWIDTH 961 0
DWIDTH 10 0
BBX 10 7 0 0
BITMAP
FFC0
6080
4F80
B280
9280
7080
0C80
ENDCHAR
STARTCHAR uni092C094D0935
ENCODING -1
SWIDTH 776 0
DWIDTH 8 0
BBX 8 7 0 0
BITMAP
FF
6E
52
B2
92
6E
02
ENDCHAR
STARTCHAR uni092C094D0936
ENCODING -1
SWIDTH 926 0
DWIDTH 9 0
BBX 9 7 0 0
BITMAP
EC80
6A80
4280
AC80
9880
6880
0480
ENDCHAR
STARTCHAR uni092C094D0938
ENCODING -1
SWIDTH 897 0
DWIDTH 9 0
BBX 9 7 0 0
BITMAP
FF80
6500
4500
AF00
9900
6900
0500
ENDCHAR
STARTCHAR uni092D094D092F
ENCODING -1
SWIDTH 827 0
DWIDTH 8 0
BBX 8 7 0 0
BITMAP
BF
45
59
71
51
0E
01
ENDCHAR
STARTCHAR uni092D094D0932
ENCODING -1
SWIDTH 941 0
DWIDTH 9 0
BBX 10 7 0 0
BITMAP
BFC0
4080
4F00
7480
5480
1080
0880
ENDCHAR
STARTCHAR uni092D094D0935
ENCODING -1
SWIDTH 755 0
DWIDTH 8 0
BBX 8 7 0 0
BITMAP
BF
4A
52
72
52
0E
02
ENDCHAR
STARTCHAR uni092E094D0924
ENCODING -1
SWIDTH 765 0
DWIDTH 8 0
BBX 8 7 0 0
BITMAP
FF
42
4E
72
52
12
0A
ENDCHAR
STARTCHAR uni092E094D0926
ENCODING -1
SWIDTH 766 0
DWIDTH 8 0
BBX 8 7 0 0
BITMAP
FF
42
4E
70
52
0E
02
ENDCHAR
STARTCHAR uni092E094D092A
ENCODING -1
SWIDTH 762 0
DWIDTH 8 0
BBX 8 7 0 0
BITMAP
FF
52
52
72
4E
02
02
ENDCHAR
STARTCHAR uni092E094D092C
ENCODING -1
SWIDTH 768 0
DWIDTH 8 0
BBX 8 7 0 0
BITMAP
FF
4E
5A
76
52
0E
02
ENDCHAR
STARTCHAR uni092E094D092D
ENCODING -1
SWIDTH 768 0
DWIDTH 8 0
BBX 8 7 0 0
BITMAP
F7
52
52
7E
52
02
02
ENDCHAR
STARTCHAR uni092E094D092E
ENCODING -1
SWIDTH 759 0
DWIDTH 8 0
BBX 8 7 0 0
BITMAP
FF
52
52
7E
52
02
02
ENDCHAR
STARTCHAR uni092E094D092F
ENCODING -1
SWIDTH 834 0
DWIDTH 8 0
BBX 8 7 0 0
BITMAP
FF
45
59
71
51
0E
01
ENDCHAR
STARTCHAR uni092E094D0932
ENCODING -1
SWIDTH 945 0
DWIDTH 9 0
BBX 10 7 0 0
BITMAP
FFC0
4080
4F80
7480
5480
1080
0880
ENDCHAR
STARTCHAR uni092E094D0935
ENCODING -1
SWIDTH 761 0
DWIDTH 8 0
BBX 8 7 0 0
BITMAP
FF
4A
52
72
52
0E
02
ENDCHAR
STARTCHAR uni092E094D0936
ENCODING -1
SWIDTH 884 0
DWIDTH 9 0
BBX 9 7 0 0
BITMAP
ED80
5500
4500
7D00
5100
0900
0500
ENDCHAR
STARTCHAR uni092E094D0938
ENCODING -1
SWIDTH 816 0
DWIDTH 8 0
BBX 8 7 0 0
BITMAP
FF
49
49
7E
51
11
09
ENDCHAR
STARTCHAR uni092E094D0939
ENCODING -1
SWIDTH 758 0
DWIDTH 8 0
BBX 8 8 0 -1
BITMAP
FF
4E
50
70
4C
12
10
0E
ENDCHAR
STARTCHAR uni092F094D092F
ENCODING -1
SWIDTH 897 0
DWIDTH 9 0
BBX 9 7 0 0
BITMAP
FF80
2500
4D00
8900
8900
7700
0100
ENDCHAR
STARTCHAR uni0930094D092F
ENCODING -1
SWIDTH 713 0
DWIDTH 7 0
BBX 7 7 0 0
BITMAP
FE
14
F4
24
24
1C
04
ENDCHAR
STARTCHAR uni0930094D0939
ENCODING -1
SWIDTH 619 0
DWIDTH 6 0
BBX 6 8 0 -1
BITMAP
FC
18
E0
20
18
24
20
18
ENDCHAR
STARTCHAR uni0932094D0915
ENCODING -1
SWIDTH 1182 0
DWIDTH 12 0
BBX 12 7 0 0
BITMAP
FFF0
02E0
6CA0
94A0
94A0
8360
6080
ENDCHAR
STARTCHAR uni0932094D0916
ENCODING -1
SWIDTH 1195 0
DWIDTH 12 0
BBX 12 7 0 0
BITMAP
FFF0
0120
6960
96A0
92A0
8260
6120
ENDCHAR
STARTCHAR uni0932094D0917
ENCODING -1
SWIDTH 950 0
DWIDTH 10 0
BBX 10 7 0 0
BITMAP
FFC0
0280
6A80
9280
9480
8080
6080
ENDCHAR
STARTCHAR uni0932094D091C
ENCODING -1
SWIDTH 1035 0
DWIDTH 10 0
BBX 11 7 0 0
BITMAP
FFE0
0040
6B80
9140
8140
8640
6040
ENDCHAR
STARTCHAR uni0932094D091F
ENCODING -1
SWIDTH 929 0
DWIDTH 9 0
BBX 9 7 0 0
BITMAP
FF80
0100
6B00
9400
9400
8480
6700
ENDCHAR
STARTCHAR uni0932094D0920
ENCODING -1
SWIDTH 953 0
DWIDTH 10 0
BBX 10 7 0 0
BITMAP
FFC0
0080
6B00
9480
9480
8480
6780
ENDCHAR
STARTCHAR uni0932094D0921
ENCODING -1
SWIDTH 916 0
DWIDTH 9 0
BBX 9 7 0 0
BITMAP
FF80
0100
6B00
9400
9300
8080
6700
ENDCHAR
STARTCHAR uni0932094D0922
ENCODING -1
SWIDTH 924 0
DWIDTH 9 0
BBX 9 7 0 0
BITMAP
FF80
0100
6B00
9400
9500
8680
6780
ENDCHAR
STARTCHAR uni0932094D0924
ENCODING -1
SWIDTH 929 0
DWIDTH 9 0
BBX 9 7 0 0
BITMAP
FF80
0080
7B00
9480
9480
8480
6680
ENDCHAR
STARTCHAR uni0932094D0925
ENCODING -1
SWIDTH 1061 0
DWIDTH 11 0
BBX 11 7 0 0
BITMAP
FB60
0540
6940
9640
9440
83C0
6040
ENDCHAR
STARTCHAR uni0932094D0926
ENCODING -1
SWIDTH 939 0
DWIDTH 9 0
BBX 10 7 0 0
BITMAP
FFC0
0080
6B00
9400
9480
8380
6080
ENDCHAR
STARTCHAR uni0932094D092A
ENCODING -1
SWIDTH 939 0
DWIDTH 9 0
BBX 10 7 0 0
BITMAP
FFC0
0480
6C80
9480
8300
8080
6080
ENDCHAR
STARTCHAR uni0932094D092B
ENCODING -1
SWIDTH 1176 0
DWIDTH 12 0
BBX 12 7 0 0
BITMAP
FFF0
04E0
6CA0
94A0
9320
80E0
6080
ENDCHAR
STARTCHAR uni0932094D092C
ENCODING -1
SWIDTH 949 0
DWIDTH 9 0
BBX 10 7 0 0
BITMAP
FFC0
0280
6C80
9680
9580
8380
6080
ENDCHAR
STARTCHAR uni0932094D092D
ENCODING -1
SWIDTH 931 0
DWIDTH 9 0
BBX 9 7 0 0
BITMAP
FD80
0480
6C80
9700
9480
8080
6080
ENDCHAR
STARTCHAR uni0932094D092E
ENCODING -1
SWIDTH 931 0
DWIDTH 9 0
BBX 9 7 0 0
BITMAP
FF80
0480
6C80
9700
9480
8080
6080
ENDCHAR
STARTCHAR uni0932094D092F
ENCODING -1
SWIDTH 1033 0
DWIDTH 10 0
BBX 10 7 0 0
BITMAP
FFC0
6940
5540
9640
9440
8380
6040
ENDCHAR
STARTCHAR uni0932094D0932
ENCODING -1
SWIDTH 1112 0
DWIDTH 11 0
BBX 11 7 0 0
BITMAP
FFE0
0040
6AC0
9540
9540
8440
6640
ENDCHAR
STARTCHAR uni0932094D0935
ENCODING -1
SWIDTH 940 0
DWIDTH 9 0
BBX 10 7 0 0
BITMAP
FFC0
0280
6C80
9480
9480
8300
6080
ENDCHAR
STARTCHAR uni0932094D0938
ENCODING -1
SWIDTH 1068 0
DWIDTH 11 0
BBX 11 7 0 0
BITMAP
FFE0
0140
6940
97C0
9440
8240
6240
ENDCHAR
STARTCHAR uni0932094D0939
ENCODING -1
SWIDTH 922 0
DWIDTH 9 0
BBX 9 8 0 -1
BITMAP
FF80
0080
6B00
9400
9300
8480
6400
0300
ENDCHAR
STARTCHAR uni0933094D092F
ENCODING -1
SWIDTH 1050 0
DWIDTH 11 0
BBX 11 7 0 0
BITMAP
FFE0
6D40
9240
9440
9440
6FC0
0040
ENDCHAR
STARTCHAR uni0935094D092F
ENCODING -1
SWIDTH 852 0
DWIDTH 9 0
BBX 9 7 0 0
BITMAP
FF80
6500
8900
9100
9100
6F00
0100
ENDCHAR
STARTCHAR uni0935094D0932
ENCODING -1
SWIDTH 961 0
DWIDTH 10 0
BBX 10 7 0 0
BITMAP
FFC0
6080
8F80
9280
9080
7080
0C80
ENDCHAR
STARTCHAR uni0935094D0935
ENCODING -1
SWIDTH 776 0
DWIDTH 8 0
BBX 8 7 0 0
BITMAP
FF
6E
92
92
92
6E
02
ENDCHAR
STARTCHAR uni0935094D0939
ENCODING -1
SWIDTH 754 0
DWIDTH 8 0
BBX 8 8 0 -1
BITMAP
FF
6E
90
90
8E
70
10
0E
ENDCHAR
STARTCHAR uni0936094D0915
ENCODING -1
SWIDTH 1093 0
DWIDTH 11 0
BBX 11 7 0 0
BITMAP
6FE0
95C0
1920
E920
4920
47C0
2100
ENDCHAR
STARTCHAR uni0936094D091A
ENCODING -1
SWIDTH 950 0
DWIDTH 10 0
BBX 10 7 0 0
BITMAP
6FC0
9080
1E80
E480
4480
4780
2080
ENDCHAR
STARTCHAR uni0936094D091B
ENCODING -1
SWIDTH 968 0
DWIDTH 10 0
BBX 10 7 0 0
BITMAP
6FC0
9880
1980
E480
4880
4880
2780
ENDCHAR
STARTCHAR uni0936094D091F
ENCODING -1
SWIDTH 854 0
DWIDTH 9 0
BBX 9 7 0 0
BITMAP
6F80
9100
1600
E800
4900
4900
2700
ENDCHAR
STARTCHAR uni0936094D0924
ENCODING -1
SWIDTH 864 0
DWIDTH 9 0
BBX 9 7 0 0
BITMAP
6F80
9100
1700
E900
4900
4900
2500
ENDCHAR
STARTCHAR uni0936094D092E
ENCODING -1
SWIDTH 885 0
DWIDTH 9 0
BBX 9 7 0 0
BITMAP
6F80
9900
1900
E700
4900
4100
2100
ENDCHAR
STARTCHAR uni0936094D092F
ENCODING -1
SWIDTH 940 0
DWIDTH 9 0
BBX 10 7 0 0
BITMAP
6FC0
9280
1C80
E880
4880
4700
2080
ENDCHAR
STARTCHAR uni0936094D0932
ENCODING -1
SWIDTH 1039 0
DWIDTH 10 0
BBX 11 7 0 0
BITMAP
6FE0
9040
1780
EA40
4A40
4840
2440
ENDCHAR
STARTCHAR uni0936094D0935
ENCODING -1
SWIDTH 850 0
DWIDTH 9 0
BBX 9 7 0 0
BITMAP
6F80
9500
1900
E900
4900
4700
2100
ENDCHAR
STARTCHAR uni0936094D0936
ENCODING -1
SWIDTH 1009 0
DWIDTH 10 0
BBX 10 7 0 0
BITMAP
66C0
9980
1180
EE80
4480
4480
2280
ENDCHAR
STARTCHAR uni0937094D0915
ENCODING -1
SWIDTH 1039 0
DWIDTH 10 0
BBX 11 7 0 0
BITMAP
FFE0
4D80
6A40
5240
6A40
0E80
0200
ENDCHAR
STARTCHAR uni0937094D091F
ENCODING -1
SWIDTH 493 0
DWIDTH 5 0
BBX 5 7 0 0
BITMAP
F8
70
50
70
80
88
70
ENDCHAR
STARTCHAR uni0937094D0920
ENCODING -1
SWIDTH 511 0
DWIDTH 5 0
BBX 5 7 0 0
BITMAP
F8
70
70
70
88
88
70
ENDCHAR
STARTCHAR uni0937094D0923
ENCODING -1
SWIDTH 980 0
DWIDTH 10 0
BBX 10 7 0 0
BITMAP
FFC0
4A80
6A80
5280
6C80
0080
0080
ENDCHAR
STARTCHAR uni0937094D092A
ENCODING -1
SWIDTH 980 0
DWIDTH 10 0
BBX 10 7 0 0
BITMAP
FFC0
4A80
6A80
5280
6C80
0080
0080
ENDCHAR
STARTCHAR uni0937094D092B
ENCODING -1
SWIDTH 1036 0
DWIDTH 10 0
BBX 11 7 0 0
BITMAP
FFE0
4B80
6A40
5240
6E40
0280
0200
ENDCHAR
STARTCHAR uni0937094D092E
ENCODING -1
SWIDTH 791 0
DWIDTH 8 0
BBX 8 7 0 0
BITMAP
FF
4A
6A
5E
6A
02
02
ENDCHAR
STARTCHAR uni0937094D092F
ENCODING -1
SWIDTH 877 0
DWIDTH 9 0
BBX 9 7 0 0
BITMAP
FF80
4500
6900
5100
6900
0700
0100
ENDCHAR
STARTCHAR uni0937094D0935
ENCODING -1
SWIDTH 802 0
DWIDTH 8 0
BBX 8 7 0 0
BITMAP
FF
4E
6A
52
6A
0E
02
ENDCHAR
STARTCHAR uni0937094D0937
ENCODING -1
SWIDTH 804 0
DWIDTH 8 0
BBX 8 7 0 0
BITMAP
FF
4A
6E
52
6E
02
02
ENDCHAR
STARTCHAR uni0938094D0915
ENCODING -1
SWIDTH 1089 0
DWIDTH 11 0
BBX 11 7 0 0
BITMAP
FFE0
25C0
2920
F920
4940
47C0
2100
ENDCHAR
STARTCHAR uni0938094D0916
ENCODING -1
SWIDTH 990 0
DWIDTH 10 0
BBX 10 7 0 0
BITMAP
FFC0
2480
2580
FA80
4A80
4980
2480
ENDCHAR
STARTCHAR uni0938094D091C
ENCODING -1
SWIDTH 970 0
DWIDTH 10 0
BBX 10 7 0 0
BITMAP
FFC0
2080
2780
FA80
4280
4E80
2080
ENDCHAR
STARTCHAR uni0938094D091F
ENCODING -1
SWIDTH 844 0
DWIDTH 8 0
BBX 9 7 0 0
BITMAP
FF80
2100
2600
F800
4900
4900
2700
ENDCHAR
STARTCHAR uni0938094D0924
ENCODING -1
SWIDTH 852 0
DWIDTH 9 0
BBX 9 7 0 0
BITMAP
FF80
2100
2700
F900
4900
4900
2D00
ENDCHAR
STARTCHAR uni0938094D0925
ENCODING -1
SWIDTH 960 0
DWIDTH 10 0
BBX 10 7 0 0
BITMAP
F6C0
2A80
2280
FC80
4880
4780
2080
ENDCHAR
STARTCHAR uni0938094D0926
ENCODING -1
SWIDTH 851 0
DWIDTH 9 0
BBX 9 7 0 0
BITMAP
FF80
2100
2700
F800
4900
4700
2100
ENDCHAR
STARTCHAR uni0938094D092A
ENCODING -1
SWIDTH 857 0
DWIDTH 9 0
BBX 9 7 0 0
BITMAP
FF80
2900
2900
F900
4700
4100
2100
ENDCHAR
STARTCHAR uni0938094D092B
ENCODING -1
SWIDTH 1092 0
DWIDTH 11 0
BBX 11 7 0 0
BITMAP
FFE0
29C0
2920
F920
4720
41C0
2100
ENDCHAR
STARTCHAR uni0938094D092C
ENCODING -1
SWIDTH 857 0
DWIDTH 9 0
BBX 9 7 0 0
BITMAP
FF80
2500
2D00
FB00
4900
4700
2100
ENDCHAR
STARTCHAR uni0938094D092E
ENCODING -1
SWIDTH 850 0
DWIDTH 9 0
BBX 9 7 0 0
BITMAP
FF80
2900
2900
FF00
4900
4100
2100
ENDCHAR
STARTCHAR uni0938094D092F
ENCODING -1
SWIDTH 920 0
DWIDTH 9 0
BBX 9 7 0 0
BITMAP
FF80
2480
2C80
F880
4880
4780
2080
ENDCHAR
STARTCHAR uni0938094D0932
ENCODING -1
SWIDTH 1027 0
DWIDTH 10 0
BBX 10 7 0 0
BITMAP
FFC0
2040
2580
FA40
4A40
4840
2440
ENDCHAR
STARTCHAR uni0938094D0935
ENCODING -1
SWIDTH 842 0
DWIDTH 8 0
BBX 9 7 0 0
BITMAP
FF80
2500
2900
F900
4900
4700
2100
ENDCHAR
STARTCHAR uni0938094D0938
ENCODING -1
SWIDTH 871 0
DWIDTH 9 0
BBX 9 7 0 0
BITMAP
FF80
2500
2500
FF00
5100
4900
2500
ENDCHAR
STARTCHAR uni0939094D0923
ENCODING -1
SWIDTH 1136 0
DWIDTH 11 0
BBX 12 10 0 -3
BITMAP
FFF0
14A0
74A0
44A0
7520
9320
8020
7000
2000
1000
ENDCHAR
STARTCHAR uni0939094D092E
ENCODING -1
SWIDTH 746 0
DWIDTH 7 0
BBX 8 8 0 -1
BITMAP
FF
12
72
82
72
9E
92
70
ENDCHAR
STARTCHAR uni0939094D092F
ENCODING -1
SWIDTH 785 0
DWIDTH 8 0
BBX 8 8 0 -1
BITMAP
FF
72
82
7A
8A
9A
92
6E
ENDCHAR
STARTCHAR uni0939094D0932
ENCODING -1
SWIDTH 1110 0
DWIDTH 11 0
BBX 11 10 0 -3
BITMAP
FFE0
1040
72C0
4540
7540
9440
8640
7000
2000
1000
ENDCHAR
STARTCHAR uni0939094D0935
ENCODING -1
SWIDTH 920 0
DWIDTH 9 0
BBX 9 10 0 -3
BITMAP
FF80
1080
7280
4480
7480
9300
8080
7000
2000
1000
ENDCHAR
STARTCHAR uni0915093C094D0915093C
ENCODING -1
SWIDTH 1275 0
DWIDTH 13 0
BBX 13 8 0 -1
BITMAP
FFF8
7D70
9250
9250
9250
71B0
1040
4100
ENDCHAR
STARTCHAR uni0915093C094D0924
ENCODING -1
SWIDTH 1016 0
DWIDTH 10 0
BBX 10 8 0 -1
BITMAP
FFC0
7C80
9380
9280
9280
7280
1380
4000
ENDCHAR
STARTCHAR uni0915093C094D092B
ENCODING -1
SWIDTH 1246 0
DWIDTH 12 0
BBX 13 8 0 -1
BITMAP
FFF8
7260
9C90
9290
9390
70A0
1080
4000
ENDCHAR
STARTCHAR uni0915093C094D092B093C
ENCODING -1
SWIDTH 1247 0
DWIDTH 12 0
BBX 13 8 0 -1
BITMAP
FFF8
7260
9C90
9290
9390
70A0
1080
4200
ENDCHAR
STARTCHAR uni0915093C094D092C
ENCODING -1
SWIDTH 1043 0
DWIDTH 10 0
BBX 11 8 0 -1
BITMAP
FFE0
7D40
9240
9340
92C0
71C0
1040
4000
ENDCHAR
STARTCHAR uni0915093C094D092E
ENCODING -1
SWIDTH 998 0
DWIDTH 10 0
BBX 10 8 0 -1
BITMAP
FFC0
7280
9C80
9380
9280
7080
1080
4000
ENDCHAR
STARTCHAR uni0916093C094D0924
ENCODING -1
SWIDTH 984 0
DWIDTH 10 0
BBX 10 8 0 -1
BITMAP
FFC0
2080
2B80
D480
5480
4C80
2280
0800
ENDCHAR
STARTCHAR uni0916093C094D092E
ENCODING -1
SWIDTH 965 0
DWIDTH 10 0
BBX 10 8 0 -1
BITMAP
FFC0
2480
2C80
D380
5480
4C80
2080
0800
ENDCHAR
STARTCHAR uni0916093C094D092F
ENCODING -1
SWIDTH 1045 0
DWIDTH 10 0
BBX 11 8 0 -1
BITMAP
FFE0
2140
3E40
D440
5440
4BC0
2040
0800
ENDCHAR
STARTCHAR uni0916093C094D0935
ENCODING -1
SWIDTH 972 0
DWIDTH 10 0
BBX 10 8 0 -1
BITMAP
FFC0
2380
2C80
D480
5480
4B80
2080
0800
ENDCHAR
STARTCHAR uni0916093C094D0936
ENCODING -1
SWIDTH 1123 0
DWIDTH 11 0
BBX 11 8 0 -1
BITMAP
FB20
22A0
28A0
D720
5420
4A20
2220
0900
ENDCHAR
STARTCHAR uni0916093C094D0938
ENCODING -1
SWIDTH 1066 0
DWIDTH 11 0
BBX 11 8 0 -1
BITMAP
FFE0
2140
2A40
D7C0
5440
4A40
2240
0800
ENDCHAR
STARTCHAR uni091C093C094D091C093C
ENCODING -1
SWIDTH 934 0
DWIDTH 9 0
BBX 9 8 0 -1
BITMAP
FF80
0100
7700
2300
2300
CD00
0100
4800
ENDCHAR
STARTCHAR uni091C093C094D092F
ENCODING -1
SWIDTH 893 0
DWIDTH 9 0
BBX 9 8 0 -1
BITMAP
FF80
0500
7D00
2900
2900
C700
0100
4000
ENDCHAR
STARTCHAR uni092B093C094D091C093C
ENCODING -1
SWIDTH 1100 0
DWIDTH 11 0
BBX 11 8 0 -1
BITMAP
FFE0
5040
4DC0
50C0
70C0
1340
1040
4200
ENDCHAR
STARTCHAR uni092B093C094D0924
ENCODING -1
SWIDTH 1036 0
DWIDTH 10 0
BBX 11 8 0 -1
BITMAP
FFE0
5040
5F80
5240
7240
1240
1340
4000
ENDCHAR
STARTCHAR uni092B093C094D092B093C
ENCODING -1
SWIDTH 1256 0
DWIDTH 13 0
BBX 13 8 0 -1
BITMAP
FFF8
5260
4C90
5290
7390
10A0
1080
4200
ENDCHAR
STARTCHAR uni092B093C094D0938
ENCODING -1
SWIDTH 1141 0
DWIDTH 11 0
BBX 12 8 0 -1
BITMAP
FFF0
4D20
5320
53C0
7220
1120
1120
4000
ENDCHAR
STARTCHAR uni092C094D091C093C
ENCODING -1
SWIDTH 883 0
DWIDTH 9 0
BBX 9 8 0 -1
BITMAP
FF80
0100
6F00
A500
9500
7D00
0100
0800
ENDCHAR
STARTCHAR uni0932094D091C093C
ENCODING -1
SWIDTH 1062 0
DWIDTH 11 0
BBX 11 8 0 -1
BITMAP
FFE0
0040
6B80
9140
8140
8640
6040
0400
ENDCHAR
STARTCHAR uni0936094D0915093C
ENCODING -1
SWIDTH 1093 0
DWIDTH 11 0
BBX 11 8 0 -1
BITMAP
6FE0
95C0
1920
E920
4920
47C0
2100
0400
ENDCHAR
STARTCHAR uni0924094D0924094D
ENCODING -1
SWIDTH 309 0
DWIDTH 3 0
BBX 4 7 0 0
BITMAP
F0
00
F0
40
40
40
60
ENDCHAR
STARTCHAR uni0928094D092D094D
ENCODING -1
SWIDTH 505 0
DWIDTH 5 0
BBX 6 5 0 2
BITMAP
F4
10
10
7C
90
ENDCHAR
STARTCHAR uni0928094D0938094D
ENCODING -1
SWIDTH 635 0
DWIDTH 6 0
BBX 8 7 0 0
BITMAP
FF
04
64
9F
88
08
04
ENDCHAR
STARTCHAR uni092E094D092D094D
ENCODING -1
SWIDTH 533 0
DWIDTH 5 0
BBX 6 5 0 2
BITMAP
F4
50
50
7C
50
ENDCHAR
STARTCHAR uni0932094D092D094D
ENCODING -1
SWIDTH 694 0
DWIDTH 7 0
BBX 8 7 0 0
BITMAP
FD
04
6C
97
94
80
60
ENDCHAR
STARTCHAR uni0938094D0924094D0930094D
ENCODING -1
SWIDTH 575 0
DWIDTH 6 0
BBX 7 7 0 0
BITMAP
FC
20
2E
F2
42
44
28
ENDCHAR
STARTCHAR uni0915094D0924094D092F
ENCODING -1
SWIDTH 1356 0
DWIDTH 14 0
BBX 14 7 0 0
BITMAP
FFFC
7C28
93C8
9288
9288
7278
1308
ENDCHAR
STARTCHAR uni0915094D0924094D0930
ENCODING -1
SWIDTH 997 0
DWIDTH 10 0
BBX 10 7 0 0
BITMAP
FFC0
7C80
9380
9480
9080
7180
1280
ENDCHAR
STARTCHAR uni0915094D0924094D0935
ENCODING -1
SWIDTH 1242 0
DWIDTH 12 0
BBX 13 7 0 0
BITMAP
FFF8
7C50
9390
9490
9490
7470
1210
ENDCHAR
STARTCHAR uni0915094D092A094D0930
ENCODING -1
SWIDTH 1007 0
DWIDTH 10 0
BBX 10 7 0 0
BITMAP
FFC0
7C80
9280
9280
9380
7180
1280
ENDCHAR
STARTCHAR uni0915094D0935094D092F
ENCODING -1
SWIDTH 1384 0
DWIDTH 14 0
BBX 14 7 0 0
BITMAP
FFFC
7F28
9248
9248
9248
73B8
1008
ENDCHAR
STARTCHAR uni0915094D0938094D091F
ENCODING -1
SWIDTH 1376 0
DWIDTH 14 0
BBX 14 7 0 0
BITMAP
FFFC
7D08
9338
93C0
9244
7148
1138
ENDCHAR
STARTCHAR uni0915094D0938094D0921
ENCODING -1
SWIDTH 1388 0
DWIDTH 14 0
BBX 14 7 0 0
BITMAP
FFFC
7D08
9338
93C0
9238
7124
1138
ENDCHAR
STARTCHAR uni0915094D0938094D0924
ENCODING -1
SWIDTH 1423 0
DWIDTH 14 0
BBX 14 7 0 0
BITMAP
FFFC
7D04
9338
93C4
9224
7124
1134
ENDCHAR
STARTCHAR uni0915094D0938094D092A094D0930
ENCODING -1
SWIDTH 1437 0
DWIDTH 14 0
BBX 15 7 0 0
BITMAP
FFFE
7D24
9324
93E4
9218
7114
1124
ENDCHAR
STARTCHAR uni0915094D0938094D092A094D0932
ENCODING -1
SWIDTH 1866 0
DWIDTH 19 0
BBX 19 7 0 0
BITMAP
FFFFE0
7D2040
9327C0
93E940
921840
710840
110640
ENDCHAR
STARTCHAR uni0917094D0927094D092F
ENCODING -1
SWIDTH 1156 0
DWIDTH 12 0
BBX 12 7 0 0
BITMAP
FBF0
50A0
4920
5220
9220
0FE0
0020
ENDCHAR
STARTCHAR uni0917094D0927094D0935
ENCODING -1
SWIDTH 1084 0
DWIDTH 11 0
BBX 11 7 0 0
BITMAP
FBE0
51C0
4A40
5240
9240
0FC0
0040
ENDCHAR
STARTCHAR uni0917094D0928094D092F
ENCODING -1
SWIDTH 1069 0
DWIDTH 11 0
BBX 11 7 0 0
BITMAP
FFE0
4140
5E40
5440
9240
03C0
0040
ENDCHAR
STARTCHAR uni0917094D092D094D092F
ENCODING -1
SWIDTH 1102 0
DWIDTH 11 0
BBX 11 7 0 0
BITMAP
F7E0
5140
5340
4E40
9240
01C0
0040
ENDCHAR
STARTCHAR uni0917094D0930094D092F
ENCODING -1
SWIDTH 817 0
DWIDTH 8 0
BBX 8 7 0 0
BITMAP
FF
49
59
51
92
0E
0D
ENDCHAR
STARTCHAR uni091A094D091B094D0935
ENCODING -1
SWIDTH 913 0
DWIDTH 9 0
BBX 9 8 0 -1
BITMAP
FF80
0900
E480
4880
4880
3700
0900
0700
ENDCHAR
STARTCHAR uni091C094D091C094D091E
ENCODING -1
SWIDTH 945 0
DWIDTH 9 0
BBX 10 8 0 -1
BITMAP
FFC0
0080
7F80
2880
2E80
CA80
0E80
0800
ENDCHAR
STARTCHAR uni091C094D091C094D092F
ENCODING -1
SWIDTH 1252 0
DWIDTH 13 0
BBX 13 7 0 0
BITMAP
FFF8
0050
7790
2310
2310
CCF0
0010
ENDCHAR
STARTCHAR uni091C094D091C094D0935
ENCODING -1
SWIDTH 1243 0
DWIDTH 12 0
BBX 12 7 0 0
BITMAP
FFF0
00E0
7720
2320
2320
CCE0
0020
ENDCHAR
STARTCHAR uni0924094D0915094D092F
ENCODING -1
SWIDTH 1346 0
DWIDTH 13 0
BBX 14 7 0 0
BITMAP
FFFC
0A28
73C8
9288
9288
8E78
4208
ENDCHAR
STARTCHAR uni0924094D0915094D0930
ENCODING -1
SWIDTH 995 0
DWIDTH 10 0
BBX 10 7 0 0
BITMAP
FFC0
0B80
7240
9240
9240
8F80
4A00
ENDCHAR
STARTCHAR uni0924094D0915094D0935
ENCODING -1
SWIDTH 1282 0
DWIDTH 13 0
BBX 13 7 0 0
BITMAP
FFF8
0BF0
7290
9290
9290
8E70
4210
ENDCHAR
STARTCHAR uni0924094D0915094D0937
ENCODING -1
SWIDTH 943 0
DWIDTH 9 0
BBX 10 7 0 0
BITMAP
FEC0
0A80
7F80
9080
9280
8E80
4280
ENDCHAR
STARTCHAR uni0924094D0916094D0930
ENCODING -1
SWIDTH 1008 0
DWIDTH 10 0
BBX 10 7 0 0
BITMAP
FFC0
0480
7580
9A80
8A80
8980
4780
ENDCHAR
STARTCHAR uni0924094D0924094D092F
ENCODING -1
SWIDTH 888 0
DWIDTH 9 0
BBX 9 7 0 0
BITMAP
FF80
0500
F500
4900
4900
4700
6100
ENDCHAR
STARTCHAR uni0924094D0924094D0935
ENCODING -1
SWIDTH 788 0
DWIDTH 8 0
BBX 8 7 0 0
BITMAP
FF
0E
F2
52
52
4E
62
ENDCHAR
STARTCHAR uni0924094D0928094D092F
ENCODING -1
SWIDTH 1098 0
DWIDTH 11 0
BBX 11 7 0 0
BITMAP
FFE0
0140
7F40
9240
8240
81C0
4040
ENDCHAR
STARTCHAR uni0924094D092A094D0930
ENCODING -1
SWIDTH 763 0
DWIDTH 8 0
BBX 8 7 0 0
BITMAP
FF
12
72
92
8E
8A
4A
ENDCHAR
STARTCHAR uni0924094D092A094D0932
ENCODING -1
SWIDTH 1219 0
DWIDTH 12 0
BBX 12 7 0 0
BITMAP
FFF0
1010
7160
9290
8E10
8210
4110
ENDCHAR
STARTCHAR uni0924094D092E094D092F
ENCODING -1
SWIDTH 1096 0
DWIDTH 11 0
BBX 11 7 0 0
BITMAP
FFE0
1140
7340
9C40
9240
81C0
4040
ENDCHAR
STARTCHAR uni0924094D0930094D092F
ENCODING -1
SWIDTH 848 0
DWIDTH 8 0
BBX 9 7 0 0
BITMAP
FF80
0500
6500
8900
1100
2F00
4100
ENDCHAR
STARTCHAR uni0924094D0938094D092F
ENCODING -1
SWIDTH 1234 0
DWIDTH 12 0
BBX 12 7 0 0
BITMAP
FFF0
0450
7590
8F10
8910
88E0
4410
ENDCHAR
STARTCHAR uni0924094D0938094D0935
ENCODING -1
SWIDTH 1155 0
DWIDTH 12 0
BBX 12 7 0 0
BITMAP
FFF0
04A0
7520
8F20
8920
88E0
4420
ENDCHAR
STARTCHAR uni0926094D0917094D0930
ENCODING -1
SWIDTH 493 0
DWIDTH 5 0
BBX 5 9 0 -2
BITMAP
F8
10
70
80
90
70
30
50
30
ENDCHAR
STARTCHAR uni0926094D092C094D0930
ENCODING -1
SWIDTH 483 0
DWIDTH 5 0
BBX 5 10 0 -3
BITMAP
F8
10
70
80
80
90
70
70
70
20
ENDCHAR
STARTCHAR uni0926094D092F094D092D
ENCODING -1
SWIDTH 607 0
DWIDTH 6 0
BBX 6 9 0 -2
BITMAP
FC
68
48
68
48
78
58
A8
18
ENDCHAR
STARTCHAR uni0926094D092F094D0930
ENCODING -1
SWIDTH 595 0
DWIDTH 6 0
BBX 6 7 0 0
BITMAP
FC
68
88
68
48
88
78
ENDCHAR
STARTCHAR uni0927094D0928094D092F
ENCODING -1
SWIDTH 1138 0
DWIDTH 11 0
BBX 12 7 0 0
BITMAP
FFF0
80A0
60A0
4F20
9220
79C0
0020
ENDCHAR
STARTCHAR uni0928094D0915094D0938
ENCODING -1
SWIDTH 1384 0
DWIDTH 14 0
BBX 14 7 0 0
BITMAP
FFFC
0B28
12A8
F2F8
9248
0C48
0228
ENDCHAR
STARTCHAR uni0928094D0924094D092F
ENCODING -1
SWIDTH 1073 0
DWIDTH 11 0
BBX 11 7 0 0
BITMAP
FFE0
0140
0E40
7440
9240
11C0
1840
ENDCHAR
STARTCHAR uni0928094D0924094D0930
ENCODING -1
SWIDTH 732 0
DWIDTH 7 0
BBX 7 7 0 0
BITMAP
FE
02
0C
72
92
04
1A
ENDCHAR
STARTCHAR uni0928094D0924094D0938
ENCODING -1
SWIDTH 1134 0
DWIDTH 11 0
BBX 11 7 0 0
BITMAP
FFE0
0120
0D20
F3C0
9220
1120
1920
ENDCHAR
STARTCHAR uni0928094D0925094D092F
ENCODING -1
SWIDTH 1168 0
DWIDTH 12 0
BBX 12 7 0 0
BITMAP
FFF0
14A0
0520
7A20
9120
0FE0
0020
ENDCHAR
STARTCHAR uni0928094D0925094D0935
ENCODING -1
SWIDTH 1089 0
DWIDTH 11 0
BBX 11 7 0 0
BITMAP
FFE0
15C0
0640
7A40
9240
0FC0
0040
ENDCHAR
STARTCHAR uni0928094D0926094D0930
ENCODING -1
SWIDTH 734 0
DWIDTH 7 0
BBX 7 7 0 0
BITMAP
FE
02
0C
70
92
0E
0A
ENDCHAR
STARTCHAR uni0928094D0926094D0935
ENCODING -1
SWIDTH 732 0
DWIDTH 7 0
BBX 7 9 0 -2
BITMAP
FE
02
0C
70
92
0E
12
12
0C
ENDCHAR
STARTCHAR uni0928094D0927094D092F
ENCODING -1
SWIDTH 1097 0
DWIDTH 11 0
BBX 11 7 0 0
BITMAP
FFE0
1140
7B40
9240
9240
1DC0
0040
ENDCHAR
STARTCHAR uni0928094D0927094D0930
ENCODING -1
SWIDTH 783 0
DWIDTH 8 0
BBX 8 7 0 0
BITMAP
FF
12
12
7A
92
1E
0A
ENDCHAR
STARTCHAR uni0928094D0927094D0935
ENCODING -1
SWIDTH 1036 0
DWIDTH 10 0
BBX 11 7 0 0
BITMAP
FFE0
1140
7A40
9240
1240
1D80
0040
ENDCHAR
STARTCHAR uni0928094D0928094D092F
ENCODING -1
SWIDTH 1071 0
DWIDTH 11 0
BBX 11 7 0 0
BITMAP
FFE0
0140
7E40
9440
0240
03C0
0040
ENDCHAR
STARTCHAR uni0928094D092A094D0930
ENCODING -1
SWIDTH 737 0
DWIDTH 7 0
BBX 8 7 0 0
BITMAP
FF
12
72
92
8C
0A
12
ENDCHAR
STARTCHAR uni0928094D092B094D0930
ENCODING -1
SWIDTH 975 0
DWIDTH 10 0
BBX 10 7 0 0
BITMAP
FFC0
1380
7280
9280
8C80
0B80
1200
ENDCHAR
STARTCHAR uni0928094D092D094D092F
ENCODING -1
SWIDTH 1071 0
DWIDTH 11 0
BBX 11 7 0 0
BITMAP
F7E0
1140
1240
7C40
9240
03C0
0040
ENDCHAR
STARTCHAR uni0928094D092D094D0935
ENCODING -1
SWIDTH 995 0
DWIDTH 10 0
BBX 10 7 0 0
BITMAP
F7C0
1380
1280
7C80
9480
0380
0080
ENDCHAR
STARTCHAR uni0928094D092E094D092F
ENCODING -1
SWIDTH 1071 0
DWIDTH 11 0
BBX 11 7 0 0
BITMAP
FFE0
1140
1240
7C40
9240
03C0
0040
ENDCHAR
STARTCHAR uni0928094D0938094D091F
ENCODING -1
SWIDTH 1113 0
DWIDTH 11 0
BBX 11 7 0 0
BITMAP
FFE0
0840
6980
9E00
9120
0920
09C0
ENDCHAR
STARTCHAR uni0928094D0938094D092E094D092F
ENCODING -1
SWIDTH 1453 0
DWIDTH 15 0
BBX 15 7 0 0
BITMAP
FFFE
0914
6924
9FC4
9144
083C
0804
ENDCHAR
STARTCHAR uni0928094D0938094D092F
ENCODING -1
SWIDTH 1194 0
DWIDTH 12 0
BBX 12 7 0 0
BITMAP
FFF0
08A0
6920
9E20
9120
08E0
0820
ENDCHAR
STARTCHAR uni092A094D0924094D092F
ENCODING -1
SWIDTH 1119 0
DWIDTH 11 0
BBX 11 7 0 0
BITMAP
FFE0
4120
4F20
5220
7220
11E0
0820
ENDCHAR
STARTCHAR uni092C094D091C094D092F
ENCODING -1
SWIDTH 1235 0
DWIDTH 12 0
BBX 12 7 0 0
BITMAP
FFF0
0050
6F90
A510
9510
7CE0
0010
ENDCHAR
STARTCHAR uni092C094D0927094D0935
ENCODING -1
SWIDTH 1097 0
DWIDTH 11 0
BBX 11 7 0 0
BITMAP
FBE0
71C0
4D40
B140
9140
6FC0
0040
ENDCHAR
STARTCHAR uni092C094D092D094D0930
ENCODING -1
SWIDTH 764 0
DWIDTH 8 0
BBX 8 7 0 0
BITMAP
F7
72
52
AE
92
66
0A
ENDCHAR
STARTCHAR uni092C094D0932094D092F
ENCODING -1
SWIDTH 480 0
DWIDTH 5 0
BBX 13 7 0 0
BITMAP
FFF8
6D48
52C8
B2C8
9290
7068
0C08
ENDCHAR
STARTCHAR uni092D094D0930094D092F
ENCODING -1
SWIDTH 830 0
DWIDTH 8 0
BBX 8 7 0 0
BITMAP
9F
45
59
71
51
2E
41
ENDCHAR
STARTCHAR uni092E094D092A094D0930
ENCODING -1
SWIDTH 765 0
DWIDTH 8 0
BBX 8 7 0 0
BITMAP
FF
52
52
72
4E
0A
0A
ENDCHAR
STARTCHAR uni092E094D092C094D092F
ENCODING -1
SWIDTH 1124 0
DWIDTH 11 0
BBX 11 7 0 0
BITMAP
FFE0
4920
5B20
7620
5220
0DC0
0020
ENDCHAR
STARTCHAR uni092E094D092C094D0930
ENCODING -1
SWIDTH 768 0
DWIDTH 8 0
BBX 8 7 0 0
BITMAP
FF
4E
5A
76
52
0E
0A
ENDCHAR
STARTCHAR uni092E094D092D094D092F
ENCODING -1
SWIDTH 1101 0
DWIDTH 11 0
BBX 11 7 0 0
BITMAP
F7E0
5140
5340
7E40
5240
01C0
0040
ENDCHAR
STARTCHAR uni092E094D092D094D0930
ENCODING -1
SWIDTH 759 0
DWIDTH 8 0
BBX 8 7 0 0
BITMAP
F7
52
52
7E
52
06
0A
ENDCHAR
STARTCHAR uni092E094D092D094D0935
ENCODING -1
SWIDTH 1028 0
DWIDTH 10 0
BBX 10 7 0 0
BITMAP
F7C0
5140
5240
7E40
5240
0180
0040
ENDCHAR
STARTCHAR uni0932094D0915094D092F
ENCODING -1
SWIDTH 1534 0
DWIDTH 15 0
BBX 15 7 0 0
BITMAP
FFFE
028A
7CF2
94A2
94A2
831C
6082
ENDCHAR
STARTCHAR uni0932094D0925094D092F
ENCODING -1
SWIDTH 1397 0
DWIDTH 14 0
BBX 14 7 0 0
BITMAP
FB7C
0528
7D68
9648
9448
83B8
6008
ENDCHAR
STARTCHAR uni0932094D0926094D0930
ENCODING -1
SWIDTH 933 0
DWIDTH 9 0
BBX 9 7 0 0
BITMAP
FF80
0080
6B00
9400
9480
8380
6280
ENDCHAR
STARTCHAR uni0932094D0932094D092F
ENCODING -1
SWIDTH 1476 0
DWIDTH 15 0
BBX 15 7 0 0
BITMAP
FFFE
6AD4
5554
9524
9524
841C
6204
ENDCHAR
STARTCHAR uni0932094D0935094D0921
ENCODING -1
SWIDTH 1247 0
DWIDTH 12 0
BBX 13 7 0 0
BITMAP
FFF8
0210
6C70
9480
94F0
8310
60F0
ENDCHAR
STARTCHAR uni0937094D0915094D0930
ENCODING -1
SWIDTH 1042 0
DWIDTH 10 0
BBX 11 7 0 0
BITMAP
FFE0
4D80
6A40
5240
6A40
0E80
0E00
ENDCHAR
STARTCHAR uni0937094D091F094D092F
ENCODING -1
SWIDTH 997 0
DWIDTH 10 0
BBX 10 7 0 0
BITMAP
FFC0
6E80
5180
6680
8480
8B80
7080
ENDCHAR
STARTCHAR uni0937094D091F094D0930
ENCODING -1
SWIDTH 493 0
DWIDTH 5 0
BBX 5 9 0 -2
BITMAP
F8
70
50
70
80
88
50
20
50
ENDCHAR
STARTCHAR uni0937094D091F094D0935
ENCODING -1
SWIDTH 493 0
DWIDTH 5 0
BBX 5 10 0 -3
BITMAP
F8
70
50
70
80
88
70
50
50
60
ENDCHAR
STARTCHAR uni0937094D0920094D092F
ENCODING -1
SWIDTH 1006 0
DWIDTH 10 0
BBX 10 7 0 0
BITMAP
FFC0
7E80
7180
4E80
8C80
8B80
7080
ENDCHAR
STARTCHAR uni0937094D0920094D0930
ENCODING -1
SWIDTH 512 0
DWIDTH 5 0
BBX 5 8 0 -1
BITMAP
F8
70
70
70
88
88
70
50
ENDCHAR
STARTCHAR uni0937094D0923094D092F
ENCODING -1
SWIDTH 1273 0
DWIDTH 13 0
BBX 13 7 0 0
BITMAP
FFF8
5250
7290
5290
6C90
0070
0010
ENDCHAR
STARTCHAR uni0937094D092A094D0930
ENCODING -1
SWIDTH 798 0
DWIDTH 8 0
BBX 8 7 0 0
BITMAP
FF
52
72
52
6E
06
0A
ENDCHAR
STARTCHAR uni0937094D092E094D092F
ENCODING -1
SWIDTH 1121 0
DWIDTH 11 0
BBX 11 7 0 0
BITMAP
FFE0
5120
7320
5E20
7220
01E0
0020
ENDCHAR
STARTCHAR uni0938094D0915094D0930
ENCODING -1
SWIDTH 1084 0
DWIDTH 11 0
BBX 11 7 0 0
BITMAP
FFE0
25C0
2940
F940
4940
46C0
2500
ENDCHAR
STARTCHAR uni0938094D0915094D0935
ENCODING -1
SWIDTH 1369 0
DWIDTH 14 0
BBX 14 7 0 0
BITMAP
FFFC
25F8
2948
F948
4948
4638
2108
ENDCHAR
STARTCHAR uni0938094D0924094D092F
ENCODING -1
SWIDTH 1185 0
DWIDTH 12 0
BBX 12 7 0 0
BITMAP
FFF0
20A0
2720
F920
4920
48E0
2C20
ENDCHAR
STARTCHAR uni0938094D0924094D0930
ENCODING -1
SWIDTH 818 0
DWIDTH 8 0
BBX 8 7 0 0
BITMAP
FF
21
2E
F1
42
45
29
ENDCHAR
STARTCHAR uni0938094D0924094D0935
ENCODING -1
SWIDTH 1126 0
DWIDTH 11 0
BBX 11 7 0 0
BITMAP
FFE0
20A0
2720
F920
4920
48C0
2C20
ENDCHAR
STARTCHAR uni0938094D0925094D092F
ENCODING -1
SWIDTH 1303 0
DWIDTH 13 0
BBX 13 7 0 0
BITMAP
F6F8
2A50
22D0
FC90
4890
4770
2010
ENDCHAR
STARTCHAR uni0938094D092A094D0930
ENCODING -1
SWIDTH 850 0
DWIDTH 9 0
BBX 9 7 0 0
BITMAP
FF80
2900
2900
F900
4700
4500
2D00
ENDCHAR
STARTCHAR uni0938094D092E094D092F
ENCODING -1
SWIDTH 1189 0
DWIDTH 12 0
BBX 12 7 0 0
BITMAP
FFF0
28A0
2920
FE20
4920
40E0
2020
ENDCHAR
STARTCHAR uni093F.a01
ENCODING -1
SWIDTH 231 0
DWIDTH 2 0
BBX 5 10 0 0
BITMAP
78
48
40
C0
40
40
40
40
40
40
ENDCHAR
STARTCHAR uni093F.a04
ENCODING -1
SWIDTH 231 0
DWIDTH 2 0
BBX 6 10 0 0
BITMAP
7C
44
40
C0
40
40
40
40
40
40
ENDCHAR
STARTCHAR uni093F.a05
ENCODING -1
SWIDTH 231 0
DWIDTH 2 0
BBX 7 10 0 0
BITMAP
7E
42
40
C0
40
40
40
40
40
40
ENDCHAR
STARTCHAR uni093F.a06
ENCODING -1
SWIDTH 231 0
DWIDTH 2 0
BBX 7 10 0 0
BITMAP
7E
42
40
C0
40
40
40
40
40
40
ENDCHAR
STARTCHAR uni093F.a07
ENCODING -1
SWIDTH 231 0
DWIDTH 2 0
BBX 8 10 0 0
BITMAP
7E
41
40
C0
40
40
40
40
40
40
ENDCHAR
STARTCHAR uni093F.a08
ENCODING -1
SWIDTH 231 0
DWIDTH 2 0
BBX 8 10 0 0
BITMAP
7F
41
40
C0
40
40
40
40
40
40
ENDCHAR
STARTCHAR uni093F.a09
ENCODING -1
SWIDTH 231 0
DWIDTH 2 0
BBX 9 10 0 0
BITMAP
7F00
4080
4000
C000
4000
4000
4000
4000
4000
4000
ENDCHAR
STARTCHAR uni093F.a10
ENCODING -1
SWIDTH 231 0
DWIDTH 2 0
BBX 9 10 0 0
BITMAP
7F80
4080
4000
C000
4000
4000
4000
4000
4000
4000
ENDCHAR
STARTCHAR uni093F.a11
ENCODING -1
SWIDTH 231 0
DWIDTH 2 0
BBX 10 10 0 0
BITMAP
7F80
4040
4000
C000
4000
4000
4000
4000
4000
4000
ENDCHAR
STARTCHAR uni093F.a12
ENCODING -1
SWIDTH 231 0
DWIDTH 2 0
BBX 10 10 0 0
BITMAP
7FC0
4040
4000
C000
4000
4000
4000
4000
4000
4000
ENDCHAR
STARTCHAR uni093F.a13
ENCODING -1
SWIDTH 231 0
DWIDTH 2 0
BBX 11 10 0 0
BITMAP
7FC0
4020
4000
C000
4000
4000
4000
4000
4000
4000
ENDCHAR
STARTCHAR uni093F.a14
ENCODING -1
SWIDTH 231 0
DWIDTH 2 0
BBX 11 10 0 0
BITMAP
7FE0
4020
4000
C000
4000
4000
4000
4000
4000
4000
ENDCHAR
STARTCHAR uni093F.a15
ENCODING -1
SWIDTH 231 0
DWIDTH 2 0
BBX 11 10 0 0
BITMAP
7FE0
4020
4000
C000
4000
4000
4000
4000
4000
4000
ENDCHAR
STARTCHAR uni093F.a16
ENCODING -1
SWIDTH 231 0
DWIDTH 2 0
BBX 12 10 0 0
BITMAP
7FF0
4010
4000
C000
4000
4000
4000
4000
4000
4000
ENDCHAR
STARTCHAR uni093F.a17
ENCODING -1
SWIDTH 231 0
DWIDTH 2 0
BBX 12 10 0 0
BITMAP
7FF0
4010
4000
C000
4000
4000
4000
4000
4000
4000
ENDCHAR
STARTCHAR uni093F.a18
ENCODING -1
SWIDTH 231 0
DWIDTH 2 0
BBX 13 10 0 0
BITMAP
7FF8
4008
4000
C000
4000
4000
4000
4000
4000
4000
ENDCHAR
STARTCHAR uni093F.a19
ENCODING -1
SWIDTH 231 0
DWIDTH 2 0
BBX 13 10 0 0
BITMAP
7FF8
4008
4000
C000
4000
4000
4000
4000
4000
4000
ENDCHAR
STARTCHAR uni093F.a20
ENCODING -1
SWIDTH 231 0
DWIDTH 2 0
BBX 14 10 0 0
BITMAP
7FFC
4004
4000
C000
4000
4000
4000
4000
4000
4000
ENDCHAR
STARTCHAR uni093F.a21
ENCODING -1
SWIDTH 231 0
DWIDTH 2 0
BBX 14 10 0 0
BITMAP
7FFC
4004
4000
C000
4000
4000
4000
4000
4000
4000
ENDCHAR
STARTCHAR uni093F.a22
ENCODING -1
SWIDTH 231 0
DWIDTH 2 0
BBX 15 10 0 0
BITMAP
7FFE
4002
4000
C000
4000
4000
4000
4000
4000
4000
ENDCHAR
STARTCHAR uni093F.a23
ENCODING -1
SWIDTH 231 0
DWIDTH 2 0
BBX 15 10 0 0
BITMAP
7FFE
4002
4000
C000
4000
4000
4000
4000
4000
4000
ENDCHAR
STARTCHAR uni093F.a24
ENCODING -1
SWIDTH 231 0
DWIDTH 2 0
BBX 16 10 0 0
BITMAP
7FFE
4001
4000
C000
4000
4000
4000
4000
4000
4000
ENDCHAR
STARTCHAR uni093F.a25
ENCODING -1
SWIDTH 231 0
DWIDTH 2 0
BBX 16 10 0 0
BITMAP
7FFF
4001
4000
C000
4000
4000
4000
4000
4000
4000
ENDCHAR
STARTCHAR uni093F.a26
ENCODING -1
SWIDTH 231 0
DWIDTH 2 0
BBX 17 10 0 0
BITMAP
7FFF00
400080
400000
C00000
400000
400000
400000
400000
400000
400000
ENDCHAR
STARTCHAR uni093F.a32
ENCODING -1
SWIDTH 231 0
DWIDTH 2 0
BBX 20 10 0 0
BITMAP
7FFFF0
400010
400000
C00000
400000
400000
400000
400000
400000
400000
ENDCHAR
STARTCHAR uni093E0901
ENCODING -1
SWIDTH 231 0
DWIDTH 2 0
BBX 3 10 0 0
BITMAP
40
A0
C0
40
40
40
40
40
40
40
ENDCHAR
STARTCHAR dvNG_GA
ENCODING -1
SWIDTH 562 0
DWIDTH 6 0
BBX 6 10 0 -3
BITMAP
FC
08
70
84
70
08
68
50
50
D0
ENDCHAR
STARTCHAR dvNG_MA
ENCODING -1
SWIDTH 728 0
DWIDTH 7 0
BBX 7 10 0 -3
BITMAP
FE
72
82
7A
12
92
72
1C
12
02
ENDCHAR
STARTCHAR dvNY_CA
ENCODING -1
SWIDTH 963 0
DWIDTH 10 0
BBX 10 7 0 0
BITMAP
FFC0
4080
2E80
3480
2480
C380
0080
ENDCHAR
STARTCHAR dvTT_GA
ENCODING -1
SWIDTH 510 0
DWIDTH 5 0
BBX 5 10 0 -3
BITMAP
F8
10
70
80
88
88
70
50
D0
10
ENDCHAR
STARTCHAR dvTTH_TTHA
ENCODING -1
SWIDTH 511 0
DWIDTH 5 0
BBX 5 11 0 -4
BITMAP
F8
10
70
88
88
70
30
50
88
88
70
ENDCHAR
STARTCHAR dvDD_GA
ENCODING -1
SWIDTH 541 0
DWIDTH 5 0
BBX 6 10 0 -3
BITMAP
FC
08
70
80
70
08
68
50
50
D0
ENDCHAR
STARTCHAR dvDDH_DDHA
ENCODING -1
SWIDTH 487 0
DWIDTH 5 0
BBX 5 10 0 -3
BITMAP
F8
70
80
90
A8
70
90
A8
88
70
ENDCHAR
STARTCHAR dvSHA_MatraVocalicR
ENCODING -1
SWIDTH 558 0
DWIDTH 6 0
BBX 6 10 0 -3
BITMAP
6C
98
68
68
98
08
08
10
10
1C
ENDCHAR
STARTCHAR dvT_KH_NA
ENCODING -1
SWIDTH 1341 0
DWIDTH 13 0
BBX 14 7 0 0
BITMAP
FFFC
0408
7588
9A78
8A48
8988
4408
ENDCHAR
STARTCHAR dvT_S_NA
ENCODING -1
SWIDTH 1169 0
DWIDTH 12 0
BBX 12 7 0 0
BITMAP
FFF0
0420
7420
8FE0
8920
8820
4420
ENDCHAR
ENDFONT
